SplineFontDB: 3.0
FontName: BulaqNaskh
FullName: Bulaq Naskh
FamilyName: Bulaq Naskh
Weight: Regular
Copyright: Copyright (C) 2009  Khaled Hosny <khaledhosny@elug.org>\n\nThis program is free software: you can redistribute it and/or modify\nit under the terms of the GNU General Public License as published by\nthe Free Software Foundation, either version 3 of the License, or\n(at your option) any later version.\n\nThis program is distributed in the hope that it will be useful,\nbut WITHOUT ANY WARRANTY; without even the implied warranty of\nMERCHANTABILITY or FITNESS FOR A PARTICULAR PURPOSE.  See the\nGNU General Public License for more details.\n\nYou should have received a copy of the GNU General Public License\nalong with this program.  If not, see <http://www.gnu.org/licenses/>.\n
UComments: "2009-12-17: Created." 
Version: 000.100
ItalicAngle: 0
UnderlinePosition: -100
UnderlineWidth: 50
Ascent: 800
Descent: 200
Descent: 200
LayerCount: 2
Layer: 0 0 "Back"  1
Layer: 1 0 "Fore"  0
XUID: [1021 862 584604386 14697072]
FSType: 0
OS2Version: 0
OS2_WeightWidthSlopeOnly: 0
OS2_UseTypoMetrics: 1
CreationTime: 1261055077
ModificationTime: 1267679715
PfmFamily: 17
TTFWeight: 400
TTFWidth: 5
LineGap: 0
VLineGap: 0
OS2TypoAscent: 800
OS2TypoAOffset: 0
OS2TypoDescent: -200
OS2TypoDOffset: 0
OS2TypoLinegap: 0
OS2WinAscent: 0
OS2WinAOffset: 1
OS2WinDescent: 0
OS2WinDOffset: 1
HheadAscent: 800
HheadAOffset: 0
HheadDescent: -200
HheadDOffset: 0
OS2Vendor: 'Blq '
Lookup: 2 0 0 "'ccmp' Glyph Decomposition"  {"'ccmp' Glyph Decomposition-1"  } ['ccmp' ('DFLT' <'dflt' > 'arab' <'dflt' > ) ]
Lookup: 1 0 0 "'init' Initial Forms"  {"'init' Initial Forms-1" ("init" ) } ['init' ('DFLT' <'dflt' > 'arab' <'dflt' > ) ]
Lookup: 1 0 0 "'medi' Medial Forms"  {"'medi' Medial Forms-1" ("medi" ) } ['medi' ('DFLT' <'dflt' > 'arab' <'dflt' > ) ]
Lookup: 1 0 0 "'fina' Final Forms"  {"'fina' Final Forms-1" ("fina" ) } ['fina' ('DFLT' <'dflt' > 'arab' <'dflt' > ) ]

StartChar: uni061B
Encoding: 1563 1563 0
Width: 412
VWidth: 1399
Flags: W
LayerCount: 2
Fore
SplineSet
163.064 258.521 m 0
 189.314 273.926 204.407 283.07 223.661 283.709 c 0
 300.574 286.261 322.666 209.355 307.797 171.906 c 0
 296.024 142.256 273.786 120.233 233.807 114 c 0
 211.151 110.469 177.613 119.259 160.33 135.397 c 0
 129.305 164.369 93.3057 235.679 101.069 322.164 c 0
 107.944 399.102 156.023 477.438 224.714 535.057 c 0
 238.749 546.83 260.841 531.658 241.746 512.485 c 0
 223.279 493.942 144.085 419.872 136.675 350.877 c 0
 133.334 319.763 133.776 291.088 150.293 262.812 c 0
 153.899 256.642 157.173 255.064 163.064 258.521 c 0
286.222 11.2324 m 1
 286.222 -17.3145 263.053 -40.4834 234.505 -40.4834 c 0
 205.958 -40.4834 182.789 -17.3145 182.789 11.2324 c 0
 182.789 39.7803 205.958 62.9482 234.505 62.9482 c 0
 263.053 62.9482 286.222 39.7803 286.222 11.2324 c 1
EndSplineSet
EndChar

StartChar: uni061F
Encoding: 1567 1567 1
Width: 428
VWidth: 1399
Flags: W
LayerCount: 2
Fore
SplineSet
299.284 11.2773 m 0
 299.283 11.2695 299.283 11.2568 299.283 11.249 c 0
 297.717 -26.1338 266.105 -56.4746 228.723 -56.4746 c 0
 191.34 -56.4746 162.271 -26.1338 163.837 11.249 c 0
 163.837 11.2568 163.837 11.2695 163.838 11.2773 c 0
 163.838 11.2861 163.839 11.3008 163.839 11.3096 c 0
 165.405 48.6934 197.017 79.0332 234.399 79.0332 c 0
 271.782 79.0332 300.852 48.6934 299.285 11.3096 c 0
 299.285 11.3008 299.284 11.2861 299.284 11.2773 c 0
99.1553 530.833 m 1
 123.046 553.555 169.52 551.075 189.886 521.196 c 0
 203.102 501.807 206.4 464.396 183.259 440.757 c 0
 172.904 430.18 156.717 419.65 134.693 419.6 c 0
 100.147 419.519 78.4512 440.188 67.1318 469.05 c 0
 53.3682 504.142 56.9443 551.348 69.4131 588.102 c 0
 77.7979 612.817 100.761 643.23 134.889 663.151 c 0
 162.857 679.477 196.775 688.192 234.492 685.568 c 0
 259.3 683.843 288.256 675.138 312.662 659.9 c 0
 337.402 644.456 357.516 622.363 370.702 603.629 c 0
 409.164 548.984 409.823 484.146 385.383 422.903 c 0
 355.617 348.318 258.462 286.175 232.672 247.793 c 0
 220.905 230.279 216.233 179.542 230.486 116.735 c 0
 234.095 100.834 222.562 98.2695 216.97 109.577 c 0
 186.173 171.86 202.25 316.741 252.307 427.309 c 0
 276.395 480.513 313.764 531.301 308.579 587.551 c 0
 303.436 643.368 265.263 664.729 231.006 669.214 c 0
 192.033 674.317 160.522 660.475 147.824 654.181 c 0
 110.298 635.581 76.0615 567.899 99.1553 530.833 c 1
EndSplineSet
EndChar

StartChar: dot.above
Encoding: 65536 -1 37
Width: 0
VWidth: 0
GlyphClass: 4
Flags: W
AnchorPoint: "tashkildot.above" -22 176 basemark 0
AnchorPoint: "dot.above" 0 70 mark 0
LayerCount: 2
Fore
SplineSet
-22.3008 126.652 m 0
 -19.9424 131.062 -19.3691 130.671 -14.2754 129.488 c 0
 12.0791 123.372 36.7764 112.648 60.6016 95.7471 c 0
 65.0361 92.6025 65.4111 92.1523 62.7891 86.9375 c 0
 47.3887 56.3145 35.2549 31.71 23.2559 7.10254 c 0
 21.21 2.90625 21.3174 2.00781 17.0186 4.89258 c 0
 -2.33105 17.8799 -33.124 30.8379 -60.9854 43.9922 c 0
 -64.4229 45.6152 -65.3711 45.584 -63.4502 49.3848 c 0
 -48.4541 79.0615 -35.7939 101.425 -22.3008 126.652 c 0
EndSplineSet
EndChar

StartChar: ddots.above
Encoding: 65538 -1 39
Width: 0
VWidth: 0
GlyphClass: 4
Flags: W
AnchorPoint: "tashkildot.above" -22 206 basemark 0
AnchorPoint: "dot.above" 0 90 mark 0
LayerCount: 2
Fore
SplineSet
42.5439 165.748 m 0
 45.5615 169.802 46.0771 169.325 50.9902 167.38 c 0
 76.415 157.314 99.4922 142.893 120.772 122.427 c 0
 124.732 118.619 125.04 118.112 121.637 113.294 c 0
 101.653 84.9941 85.835 62.2217 70.1523 39.4258 c 0
 67.4775 35.5381 67.4502 34.623 63.5869 38.1523 c 0
 46.1934 54.0342 17.3584 71.6035 -8.5166 88.9277 c 0
 -11.71 91.0664 -12.6611 91.1768 -10.1719 94.6885 c 0
 9.2666 122.103 25.2744 142.557 42.5439 165.748 c 0
-69.8545 132.834 m 0
 -66.8369 136.887 -66.3213 136.41 -61.4072 134.465 c 0
 -35.9834 124.4 -12.9062 109.978 8.37402 89.5127 c 0
 12.334 85.7041 12.6416 85.1982 9.23828 80.3789 c 0
 -10.7451 52.0801 -26.5635 29.3076 -42.2461 6.51074 c 0
 -44.9209 2.62305 -44.9482 1.70898 -48.8115 5.2373 c 0
 -66.2041 21.1201 -95.04 38.6895 -120.915 56.0137 c 0
 -124.107 58.1514 -125.06 58.2627 -122.569 61.7734 c 0
 -103.131 89.1875 -87.124 109.642 -69.8545 132.834 c 0
EndSplineSet
EndChar

StartChar: tdots.above
Encoding: 65540 -1 41
Width: 0
VWidth: 0
GlyphClass: 4
Flags: W
AnchorPoint: "tashkildot.above" -42 326 basemark 0
AnchorPoint: "dot.above" 0 140 mark 0
LayerCount: 2
Fore
SplineSet
42.5439 165.748 m 0
 45.5615 169.802 46.0771 169.325 50.9902 167.38 c 0
 76.415 157.314 99.4922 142.893 120.772 122.428 c 0
 124.732 118.619 125.04 118.112 121.637 113.294 c 0
 101.653 84.9951 85.835 62.2217 70.1523 39.4258 c 0
 67.4775 35.5381 67.4502 34.623 63.5869 38.1523 c 0
 46.1934 54.0342 17.3584 71.6035 -8.5166 88.9277 c 0
 -11.709 91.0664 -12.6611 91.1777 -10.1719 94.6885 c 0
 9.2666 122.103 25.2744 142.557 42.5439 165.748 c 0
-69.8545 132.834 m 0
 -66.8359 136.887 -66.3213 136.41 -61.4072 134.465 c 0
 -35.9834 124.4 -12.9062 109.979 8.37402 89.5127 c 0
 12.334 85.7041 12.6416 85.1982 9.23828 80.3789 c 0
 -10.7451 52.0801 -26.5625 29.3076 -42.2461 6.51074 c 0
 -44.9209 2.62305 -44.9473 1.70898 -48.8115 5.2373 c 0
 -66.2041 21.1201 -95.04 38.6895 -120.915 56.0137 c 0
 -124.107 58.1514 -125.06 58.2627 -122.569 61.7734 c 0
 -103.131 89.1875 -87.124 109.642 -69.8545 132.834 c 0
-39.8848 270.683 m 0
 -36.8711 274.674 -36.3652 274.198 -31.5166 272.241 c 0
 -6.42773 262.116 16.3096 247.695 37.2295 227.308 c 0
 41.123 223.513 41.4229 223.01 38.0244 218.265 c 0
 18.0664 190.397 2.2666 167.971 -13.3994 145.52 c 0
 -16.0713 141.69 -16.1045 140.786 -19.9043 144.303 c 0
 -37.0078 160.131 -65.4219 177.703 -90.9082 195.014 c 0
 -94.0527 197.15 -94.9941 197.267 -92.5078 200.724 c 0
 -73.0947 227.719 -57.123 247.851 -39.8848 270.683 c 0
EndSplineSet
EndChar

StartChar: hamza.above
Encoding: 65542 -1 43
Width: 0
VWidth: 1399
GlyphClass: 4
Flags: W
AnchorPoint: "tashkildot.above" -75 270 basemark 0
AnchorPoint: "hamza.above" 0 30 mark 0
LayerCount: 2
Fore
SplineSet
101.108 64.834 m 2
 98.667 59.9521 92.667 54.7725 85.6895 52.498 c 1
 24.5625 46.2852 -68.8467 16.3721 -103.582 2 c 1
 -118.236 -2.28125 -122.236 9.12891 -117.46 19.1543 c 1
 -107.044 34.1055 -88.458 47.1621 -67.3467 57.8945 c 1
 -85.8584 70.2236 -106.72 91.2881 -110.521 104.152 c 0
 -118.749 131.998 -100.644 176.982 -80.5156 202.885 c 0
 -60.3867 228.788 -27.2031 250.423 10.1348 244.469 c 0
 29.6123 241.362 39.8096 230.023 46.3701 219.412 c 0
 51.3613 211.339 50.7656 202.708 47.1416 194.355 c 1
 36.8154 176.902 27.9346 163.369 15.917 150.025 c 0
 7.06836 140.199 1.65137 142.415 -3.35645 150.025 c 0
 -9.96973 160.074 -23.75 177.5 -36.8438 179.364 c 0
 -50.1553 181.258 -58.3887 177.029 -63.1064 168.914 c 1
 -60.0742 149.604 -30.6992 103.103 39.0459 98.7559 c 1
 62.9111 101.548 85.9785 105.663 108.818 105.31 c 0
 116.381 104.521 121.3 99.2617 118.648 92.0098 c 1
 101.108 64.834 l 2
EndSplineSet
EndChar

StartChar: alef
Encoding: 65554 -1 45
Width: 203
VWidth: 1399
Flags: W
AnchorPoint: "tashkil.above" 84 752 basechar 0
AnchorPoint: "tashkil.below" 110 -54 basechar 0
AnchorPoint: "madda.above" 84 752 basechar 0
AnchorPoint: "hamza.below" 110 -54 basechar 0
AnchorPoint: "hamza.above" 84 752 basechar 0
LayerCount: 2
Fore
SplineSet
82.0068 677.066 m 1
 94.123 700.171 100.183 682.922 100.237 665.818 c 1
 104.444 599.503 113.265 498.635 122.044 420.979 c 0
 129.901 351.477 137.898 284.627 140.495 193.365 c 0
 142.183 134.025 141.072 49.7471 117.698 0.610352 c 0
 111.376 -11.3418 100.396 -4.81738 103.227 11.5391 c 1
 105.643 67.1846 100.691 158.994 97.1318 197.239 c 0
 93.5752 235.458 64.4805 458.514 53.5498 586.77 c 0
 52.1426 599.133 53.1699 608.026 59.0146 620.567 c 2
 82.0068 677.066 l 1
EndSplineSet
Substitution2: "'fina' Final Forms-1" alef.fina
EndChar

StartChar: baa
Encoding: 65555 -1 46
Width: 789
VWidth: 1201
Flags: W
AnchorPoint: "tashkil.below" 402 -140 basechar 0
AnchorPoint: "tashkil.above" 392 355 basechar 0
AnchorPoint: "dot.above" 392 355 basechar 0
AnchorPoint: "dot.below" 402 -140 basechar 0
LayerCount: 2
Fore
SplineSet
707.486 302.843 m 0
 757.185 246.807 753.328 107.958 704.338 73.7461 c 0
 641.77 30.0537 504.581 -0.637695 408.74 -11.3301 c 0
 293.784 -24.1533 147.378 -15.2461 77.5215 63.2471 c 0
 51.9697 91.957 24.8252 148.66 105.654 264.179 c 0
 115.192 277.811 126.511 266.979 120.864 257.54 c 0
 110.962 240.981 92.709 214.479 95.6494 192.584 c 0
 107.111 107.261 212.698 68.1494 363.083 70.2891 c 0
 489.311 72.0752 640.54 101.705 711.008 150.021 c 1
 706.185 184.461 684.017 205.006 670.99 230.056 c 0
 669.417 233.082 668.826 235.699 669.631 239.117 c 0
 675.061 262.181 682.232 283.136 691.83 302.843 c 0
 694.616 308.565 700.079 311.194 707.486 302.843 c 0
EndSplineSet
Substitution2: "'fina' Final Forms-1" baa.fina
Substitution2: "'medi' Medial Forms-1" baa.medi
Substitution2: "'init' Initial Forms-1" baa.init
EndChar

StartChar: haa
Encoding: 65556 -1 47
Width: 583
VWidth: 1399
Flags: W
AnchorPoint: "tashkil.below" 349 -156 basechar 0
AnchorPoint: "tashkil.above" 314 345 basechar 0
AnchorPoint: "dot.above" 314 345 basechar 0
AnchorPoint: "dot.below" 349 -156 basechar 0
LayerCount: 2
Fore
SplineSet
535.407 181.664 m 2
 509.356 130.511 l 2
 506.984 125.851 504.128 123.538 499.382 123.187 c 0
 394.896 115.436 287.8 100.112 210.635 59.7871 c 0
 105.936 5.07422 57.1152 -97.7012 74.7002 -189.404 c 0
 85.6758 -246.644 122.91 -299.732 189.265 -335.525 c 0
 289.441 -389.562 512.216 -394.852 618.657 -366.043 c 0
 629.113 -363.213 633.088 -375.528 624.814 -379.326 c 0
 569.401 -404.756 471.552 -455.342 452.1 -456.077 c 0
 330.604 -457.011 182.961 -445.278 98.5576 -373.194 c 0
 18.2422 -304.602 19.3447 -206.541 45.3818 -113.364 c 0
 71.4219 -20.1719 138.544 62.8613 265.172 128.177 c 1
 192.579 159.697 140.519 158.111 72.5391 134.084 c 0
 65.5947 131.63 62.2061 133.543 63.6533 139.516 c 0
 72.2021 174.792 93.79 213.104 133.152 226.014 c 0
 183.418 242.5 233.222 219.684 282.726 207.253 c 0
 365.282 185.373 451.841 178.264 517.393 192.227 c 0
 530.874 195.099 538.316 187.38 535.407 181.664 c 2
EndSplineSet
Substitution2: "'fina' Final Forms-1" haa.fina
Substitution2: "'medi' Medial Forms-1" haa.medi
Substitution2: "'init' Initial Forms-1" haa.init
EndChar

StartChar: dal
Encoding: 65557 -1 48
Width: 335
VWidth: 1207
Flags: W
AnchorPoint: "tashkil.below" 170 -135 basechar 0
AnchorPoint: "tashkil.above" 130 526 basechar 0
AnchorPoint: "dot.above" 130 526 basechar 0
AnchorPoint: "dot.below" 170 -135 basechar 0
LayerCount: 2
Fore
SplineSet
133.297 349.801 m 0
 137.11 354.483 141.489 353.595 147.093 351.615 c 0
 178.485 340.518 212.808 312.789 241.124 283.31 c 0
 271.072 252.134 288.917 211.938 295.356 171.838 c 0
 301.398 134.212 300.658 96.1123 287.304 57.4082 c 0
 284.502 49.2881 275.388 39.5732 269.664 37.1543 c 0
 215.198 14.1895 88.1543 -19.0762 51.4346 -5.43164 c 0
 25.418 4.23535 20.8467 59.1328 30.4795 91.7002 c 0
 32.166 97.4014 38.7578 97.9443 44.1738 96.251 c 0
 61.2871 90.8984 89.4336 88.1553 128.445 93.249 c 0
 165.329 98.0674 234.523 112.491 260.287 130.011 c 0
 261.968 131.153 262.886 132.487 262.145 134.525 c 0
 249.501 169.238 233.342 194.973 214 212 c 0
 178.959 242.85 135.322 252.243 115.005 263.824 c 0
 108.829 267.344 106.553 272.138 108.231 279.312 c 0
 113.281 300.888 123.361 337.605 133.297 349.801 c 0
EndSplineSet
Substitution2: "'fina' Final Forms-1" dal.fina
EndChar

StartChar: raa
Encoding: 65558 -1 49
Width: 361
VWidth: 1399
Flags: W
AnchorPoint: "tashkil.below" 159 -312 basechar 0
AnchorPoint: "tashkil.above" 225 375 basechar 0
AnchorPoint: "dot.above" 225 375 basechar 0
AnchorPoint: "dot.below" 159 -312 basechar 0
LayerCount: 2
Fore
SplineSet
231.762 216.135 m 2
 233.601 223.529 240.81 221.309 242.832 219.222 c 0
 298.79 161.486 320.435 68.6562 313.26 -7.70898 c 0
 309.308 -49.7773 282.439 -112.414 252.467 -151.453 c 0
 214.289 -201.183 153.334 -236.021 110.12 -246.474 c 0
 99.8018 -248.512 80.7803 -249.943 66.2686 -245.703 c 0
 10.3018 -229.349 -56.25 -200.122 -66.6963 -193.282 c 1
 -74.4541 -189.541 -68.5957 -176.953 -59.8477 -179.626 c 0
 -22.1201 -191.154 12.5879 -197.477 45.1104 -193.462 c 0
 76.5645 -189.58 117.774 -172.181 153.081 -149.327 c 0
 200.372 -118.717 245.077 -74.4648 280.864 -17.2305 c 0
 283.828 -12.4893 284.451 -8.3291 282.549 -2.81641 c 0
 272.476 26.3848 255.553 64.0596 210.982 117.424 c 0
 208.938 119.871 208.034 120.673 208.886 124.097 c 2
 231.762 216.135 l 2
EndSplineSet
Substitution2: "'fina' Final Forms-1" raa.fina
EndChar

StartChar: seen
Encoding: 65559 -1 50
Width: 863
VWidth: 1169
Flags: W
AnchorPoint: "tashkil.below" 699 -126 basechar 0
AnchorPoint: "tashkil.above" 648 381 basechar 0
AnchorPoint: "dot.above" 648 381 basechar 0
AnchorPoint: "dot.below" 699 -126 basechar 0
LayerCount: 2
Fore
SplineSet
797.258 238.789 m 1
 823.747 228.599 832.928 149.733 815.925 104.37 c 0
 798.922 59.0078 793.652 46.0322 772.858 38.6113 c 0
 747.58 30.3555 695.71 51.3193 670.587 63.2842 c 1
 657.878 42.9404 649.827 28.6318 637.731 19.9873 c 0
 612.794 2.16406 592.69 -4.49414 553.186 3.20703 c 1
 553.039 -11.0234 552.495 -37.9258 551.047 -52.0928 c 0
 544.635 -114.806 527.191 -178.896 467.27 -224.254 c 0
 411.499 -266.469 336.188 -303.667 238.053 -303.696 c 0
 164.415 -303.72 124.235 -290.51 84.0117 -251.213 c 0
 3.87793 -172.925 37.8496 -45.5176 111.381 73.7598 c 0
 118.783 85.7705 130.608 73.8379 122.437 61.8506 c 0
 88.8057 12.5127 67.9492 -39.7949 76.4707 -85.6719 c 0
 88.5215 -150.562 151.554 -200.753 246.925 -207.465 c 1
 335.612 -209.883 456.339 -177.366 512.178 -91.2344 c 0
 526.066 -69.8115 501.58 36.624 479.691 70.6211 c 0
 476.928 74.9121 474.79 80.7871 477.132 85.874 c 0
 487.058 107.438 497.703 127.166 509.735 146.56 c 0
 511.908 150.062 515.282 150.095 518.195 147.383 c 0
 529.767 136.606 546.257 87.8105 559.543 84.748 c 0
 582.073 79.5557 623.994 84.5059 653.08 112.901 c 0
 675.088 134.386 686.227 166.045 694.849 201.626 c 0
 696.666 209.125 706.986 210.448 707.476 201.285 c 0
 708.37 184.446 707.209 168.027 704.541 152.351 c 1
 730.476 137.326 759.029 128.875 781.117 130.852 c 1
 781.282 135.768 778.363 147.562 774.385 152.656 c 0
 772.221 155.428 771.874 156.937 773.051 160.73 c 2
 797.258 238.789 l 1
EndSplineSet
Substitution2: "'fina' Final Forms-1" seen.fina
Substitution2: "'medi' Medial Forms-1" seen.medi
Substitution2: "'init' Initial Forms-1" seen.init
EndChar

StartChar: sad
Encoding: 65560 -1 51
Width: 1064
VWidth: 1173
Flags: W
AnchorPoint: "tashkil.below" 819 -147 basechar 0
AnchorPoint: "tashkil.above" 777 444 basechar 0
AnchorPoint: "dot.above" 777 444 basechar 0
AnchorPoint: "dot.below" 819 -147 basechar 0
LayerCount: 2
Fore
SplineSet
932.859 271.106 m 0
 965.689 270.658 1006.82 246.597 1022.42 193.905 c 0
 1023.92 188.844 1024.54 184.226 1023.94 179.074 c 0
 1019.98 144.754 991.82 88.8936 978.92 74.415 c 0
 934.665 24.7129 833.685 -3.75293 736.4 -11.7373 c 0
 666.286 -17.4912 598.083 -11.1797 554.463 -1.29004 c 1
 544.835 -79.0859 522.471 -151.576 494.639 -184.305 c 0
 428.97 -261.634 287.936 -287.078 256.655 -287.23 c 0
 177.137 -286.729 136.088 -280.333 89.7324 -235.309 c 0
 -9.51562 -138.892 83.9814 59.3516 125.563 104.812 c 0
 141.198 121.906 143.858 105.188 137.586 97.5947 c 0
 82.502 30.9082 40.751 -182.143 246.812 -195.828 c 0
 301.287 -199.446 474.733 -175.292 513.591 -78.2549 c 0
 515.81 -72.9814 515.264 -70.3047 514.693 -65.4443 c 0
 504.907 -2.15039 489.998 36.2959 468.31 66.3301 c 0
 464.922 71.0225 460.627 74.8916 463.375 82.1855 c 2
 491.146 155.975 l 2
 495.896 168.583 503.732 163.745 507.081 158.101 c 2
 540.393 101.926 l 1
 563.178 87.9082 603.98 81.2266 641.927 79.8496 c 1
 737.562 176.819 867.466 271.25 929.709 271.055 c 0
 930.742 271.089 931.801 271.121 932.859 271.106 c 0
877.26 173.798 m 0
 866.018 173.613 855.196 171.909 844.944 169.257 c 0
 789.917 155.02 730.567 111.01 684.794 75.9639 c 1
 786.2 70.0889 896.882 81.8213 969.11 136.103 c 1
 937.445 164.855 905.987 174.269 877.26 173.798 c 0
EndSplineSet
Substitution2: "'fina' Final Forms-1" sad.fina
Substitution2: "'medi' Medial Forms-1" sad.medi
Substitution2: "'init' Initial Forms-1" sad.init
EndChar

StartChar: taa
Encoding: 65561 -1 52
Width: 665
VWidth: 1240
Flags: W
AnchorPoint: "tashkil.above" 456 501 basechar 0
AnchorPoint: "tashkil.below" 498 -90 basechar 0
AnchorPoint: "dot.below" 498 -90 basechar 0
AnchorPoint: "dot.above" 456 501 basechar 0
LayerCount: 2
Fore
SplineSet
269.034 677.679 m 0
 271.206 677.651 273.444 676.116 275.15 672.482 c 0
 286.104 649.137 291.612 633.275 329.566 603.13 c 0
 331.735 601.405 332.236 596.92 326.495 591.054 c 0
 318.242 582.625 305.087 566.231 297.83 556.878 c 0
 294.339 552.378 292.434 547.226 293 541.128 c 0
 296.381 504.763 314.468 333.472 310.719 266.29 c 0
 309.226 239.271 297.005 181.276 292.737 161.604 c 1
 312.294 177.512 l 1
 439.994 278.251 500.81 295.213 539.095 300.127 c 0
 549.276 301.432 563.355 299.034 581.645 287.211 c 0
 599.935 275.388 631.712 251.838 634.617 226.888 c 0
 639.331 186.414 588.194 104.784 573.875 89.7852 c 0
 551.072 65.8994 368.043 -8.53809 160.437 -18.0234 c 1
 85.0879 -5.1543 40.1299 38.3809 27.2715 63.9277 c 0
 18.9248 80.5107 26.6533 81.9014 32.3906 81.0703 c 0
 81.3174 73.9863 138.309 73.168 194.432 77.1592 c 1
 222.002 102.094 247.408 124.182 270.871 143.807 c 2
 273.286 145.776 l 1
 281.721 283.795 259.16 439.945 242.442 576.512 c 0
 241.555 583.77 239.02 594.349 236.667 601.528 c 0
 235.287 605.742 234.852 607.951 236.379 612.474 c 0
 245.48 639.438 253.702 656.667 263.391 673.795 c 0
 264.77 676.234 266.862 677.708 269.034 677.679 c 0
490.189 205.363 m 0
 478.835 205.387 466.079 203.87 451.812 200.428 c 0
 371.16 180.971 325.469 127.194 272 88 c 1
 356.604 104.408 479.3 120.369 563.349 166.173 c 1
 553.431 185.793 530.743 205.279 490.189 205.363 c 0
EndSplineSet
Substitution2: "'fina' Final Forms-1" taa.fina
Substitution2: "'medi' Medial Forms-1" taa.medi
Substitution2: "'init' Initial Forms-1" taa.init
EndChar

StartChar: ayn
Encoding: 65562 -1 53
Width: 515
VWidth: 1399
Flags: W
AnchorPoint: "tashkil.above" 138 516 basechar 0
AnchorPoint: "tashkil.below" 285 -84 basechar 0
AnchorPoint: "dot.below" 285 -84 basechar 0
AnchorPoint: "dot.above" 138 516 basechar 0
LayerCount: 2
Fore
SplineSet
213.734 387.634 m 0
 247.809 388.227 290.119 356.325 308.208 328.178 c 0
 313.572 319.831 307.851 315.863 299.31 319.174 c 0
 261.235 333.935 176.865 334.37 108.104 255.911 c 0
 104.921 252.279 107.573 246.986 109.549 244.65 c 0
 143.276 204.753 206.203 184.93 249.094 189.61 c 0
 281.25 193.121 356.473 244.24 408.745 267.514 c 0
 415.943 270.719 420.365 265.558 417.749 258.511 c 0
 411.023 240.389 397.908 213.304 390.082 202.23 c 0
 387.423 198.468 384.5 195.132 382.102 194.197 c 0
 315.935 168.43 264.679 137.281 204.573 98.2803 c 0
 114.313 39.7139 77.4141 -38.3311 63.8994 -118.439 c 0
 48.2178 -211.396 98.8408 -309.094 225.6 -335.633 c 0
 357.334 -363.111 474.412 -358.287 598.611 -350.568 c 0
 611.078 -349.793 614.006 -357.641 601.446 -365.715 c 0
 565.067 -389.103 458.428 -429.178 414.049 -431.13 c 0
 358.721 -433.538 270.609 -429.755 205.859 -414.015 c 0
 28.8242 -370.978 22.2871 -215.552 41.876 -112.298 c 0
 62.4287 -3.95605 108.392 71.0605 168.19 127.286 c 1
 111.936 153.548 91.6514 174.993 82.1426 189.421 c 0
 76.4521 198.056 74.3193 206.059 75.8955 217.166 c 0
 80.0625 246.521 89.4336 267.149 101.673 289.879 c 0
 119.59 323.152 163.574 372.938 199.717 385.298 c 0
 204.153 386.815 208.866 387.55 213.734 387.634 c 0
EndSplineSet
Substitution2: "'fina' Final Forms-1" ayn.fina
Substitution2: "'medi' Medial Forms-1" ayn.medi
Substitution2: "'init' Initial Forms-1" ayn.init
EndChar

StartChar: faa
Encoding: 65563 -1 54
Width: 827
VWidth: 1218
Flags: W
AnchorPoint: "tashkil.above" 705 603 basechar 0
AnchorPoint: "tashkil.below" 714 -39 basechar 0
AnchorPoint: "dot.below" 714 -39 basechar 0
AnchorPoint: "dot.above" 705 603 basechar 0
LayerCount: 2
Fore
SplineSet
709.047 443.538 m 0
 717.427 443.535 725.241 443.194 732.619 440.204 c 0
 804.633 411.031 833.439 241.14 808.797 177.101 c 0
 762.136 55.8389 478.716 -25.8701 279.334 -29.8291 c 0
 -31.5693 -35.9678 25.3447 188.246 97.6846 281.156 c 0
 107.98 294.361 125.354 280.452 116.926 267.637 c 0
 92.041 229.8 75.9521 183.865 80.9102 161.403 c 0
 101.39 68.626 240.671 53.6729 402 70 c 0
 479.176 77.8115 775.061 151.833 791.682 237.161 c 1
 789.029 252.832 781.118 264.658 767.952 276.299 c 1
 764.255 278.296 763.974 274.885 762.991 272.073 c 0
 751.555 239.938 707.917 194.631 646.572 225.979 c 1
 606.184 253.258 610.324 295.274 630.297 347.411 c 0
 650.089 399.075 682.352 443.392 705.425 443.512 c 0
 706.646 443.518 707.851 443.539 709.047 443.538 c 0
683.873 349.826 m 0
 683.457 349.829 683.062 349.81 682.665 349.773 c 0
 672.892 348.864 657.335 327.234 659.225 320.425 c 0
 661.57 311.971 677.219 305.771 692.457 306.67 c 0
 704.936 307.407 714.511 313.328 725.139 323.129 c 1
 718.991 331.162 696.787 349.744 683.873 349.826 c 0
EndSplineSet
Substitution2: "'fina' Final Forms-1" faa.fina
Substitution2: "'medi' Medial Forms-1" faa.medi
Substitution2: "'init' Initial Forms-1" faa.init
EndChar

StartChar: qaf
Encoding: 65564 -1 55
Width: 582
VWidth: 1204
Flags: W
AnchorPoint: "tashkil.above" 447 570 basechar 0
AnchorPoint: "tashkil.below" 273 -213 basechar 0
AnchorPoint: "dot.below" 273 -213 basechar 0
AnchorPoint: "dot.above" 447 570 basechar 0
LayerCount: 2
Fore
SplineSet
451.718 422.95 m 0
 496.609 423.445 580.289 269.223 552.466 128.95 c 0
 528.243 6.44531 405.448 -77.6592 264.241 -88.873 c 0
 167.324 -96.5713 16.1133 -47.4248 45.3691 110.758 c 0
 58.9355 184.117 92.4131 250.732 133.227 309.917 c 0
 141.259 321.565 156.965 311.666 147.796 298.314 c 0
 119.233 256.719 87.1348 204.989 85.374 149.267 c 0
 83.1318 78.4023 129.878 6.19238 265.448 7.33301 c 0
 372.316 8.23047 523.351 96.4482 532.096 160.423 c 0
 534.931 181.167 518.734 216.429 508.392 221.401 c 1
 485.421 189.81 429.44 167.947 392 182 c 0
 363.274 192.783 319.57 220.48 356.142 311.702 c 0
 378.172 366.655 408.053 422.467 451.718 422.95 c 0
420.717 319.051 m 0
 411.906 318.925 402.991 313.565 394.126 300.178 c 1
 410.258 281.979 438.176 280.576 456.076 297.185 c 1
 444.699 309.573 432.793 319.224 420.717 319.051 c 0
EndSplineSet
Substitution2: "'fina' Final Forms-1" qaf.fina
Substitution2: "'medi' Medial Forms-1" faa.medi
Substitution2: "'init' Initial Forms-1" faa.init
EndChar

StartChar: kaf
Encoding: 65565 -1 56
Width: 548
VWidth: 1399
Flags: W
AnchorPoint: "tashkil.below" 266 -106 basechar 0
AnchorPoint: "tashkil.above" 210 662 basechar 0
LayerCount: 2
Fore
SplineSet
278.519 583.272 m 1
 284.368 583.13 283.861 580.544 282.2 575.909 c 2
 257.9 517 l 2
 253.832 507.139 250.075 509.372 246.854 508.164 c 0
 218.72 497.603 198.725 484.512 195.31 466.927 c 0
 189.198 435.466 231.76 438.543 266 436 c 1
 313.737 434.731 299.443 391.407 296.56 383.35 c 0
 285.842 353.408 251.303 303.636 224.801 296.867 c 0
 195.884 289.482 141.322 289.202 97.7412 284.677 c 0
 93 284.185 93.1602 289.437 96.2676 290.567 c 0
 144.685 308.182 215.665 334.003 239.859 346.899 c 0
 246.003 350.175 252.4 356.006 243.541 357.577 c 2
 194.941 364.204 l 2
 162.953 368.566 148.146 392.021 153.705 415.382 c 0
 171.487 490.119 231.588 563.251 278.519 583.272 c 1
431.272 666.326 m 0
 433.373 651.94 451.545 626.076 463.106 604.932 c 0
 465.828 599.953 467.398 594.012 464.812 588.304 c 2
 449.748 555.049 l 1
 469.138 432.825 506.596 269.62 506.415 186.54 c 0
 506.344 153.715 504.467 97.6904 475.718 36.4648 c 0
 448.285 -21.958 114.436 -0.0595703 49.9736 10.8838 c 0
 45.8203 11.5889 44.2676 15.9893 44.1475 18.8428 c 0
 43.0938 43.7129 40.9287 68.583 43.4355 93.4531 c 0
 43.7158 96.2275 45.7295 98.7588 47.8418 97.8584 c 0
 100.076 75.6201 413.088 64.6221 468.792 108.092 c 1
 472.271 124.591 454.071 242.8 441.78 300.553 c 0
 415.674 423.809 395.345 567.727 392.616 620.138 c 0
 392.207 628.024 392.623 639.799 397.022 645.576 c 2
 418.34 673.573 l 2
 422.843 679.487 429.574 677.954 431.272 666.326 c 0
EndSplineSet
Substitution2: "'fina' Final Forms-1" kaf.fina
Substitution2: "'medi' Medial Forms-1" kaf.medi
Substitution2: "'init' Initial Forms-1" kaf.init
EndChar

StartChar: lam
Encoding: 65566 -1 57
Width: 477
VWidth: 1399
Flags: W
AnchorPoint: "tashkil.above" 186 550 basechar 0
AnchorPoint: "tashkil.below" 220 -200 basechar 0
LayerCount: 2
Fore
SplineSet
353.806 566.585 m 0
 361.045 575.15 376.039 575.043 380.628 561.647 c 0
 385.479 549.83 388.816 542.524 396.064 528.053 c 0
 403.173 513.86 418.608 504.632 407.693 491.604 c 0
 401.271 483.937 395.017 477.187 389.562 465.939 c 1
 395.796 388.739 410.033 300.117 421.585 228.042 c 0
 427.423 191.624 433.028 159.432 435.649 135.07 c 0
 437.44 118.417 436.814 100.334 437.105 84.9453 c 0
 436.535 50.6875 430.227 11.0479 418.286 -19.6914 c 0
 396.216 -80.6318 289.111 -126.138 209.753 -130.222 c 0
 177.327 -131.891 125.71 -125.027 89.0537 -98.748 c 0
 72.1377 -86.6221 61.7529 -72.3594 51.8301 -49.3506 c 0
 38.8594 -19.2764 36.7412 27.9023 45.3398 65.9658 c 0
 53.7627 103.255 81.5312 168.363 106.683 184.203 c 0
 109.496 186.338 118.081 188.572 115.392 180.298 c 1
 111.047 173.494 104.383 164.369 99.6885 155.15 c 0
 84.9736 126.25 75.1348 82.7139 79.041 50.9873 c 0
 82.0635 26.4463 97.7881 -1.02441 110.111 -13.5752 c 0
 135.528 -39.4619 173.776 -48.5088 221.971 -43.373 c 0
 319.383 -32.9961 370.389 2.59375 404.681 39.8857 c 1
 398.293 118 378.848 218.068 370.855 264.758 c 0
 357.816 340.919 346.518 416.216 341.772 496.891 c 1
 345.147 541.14 348.095 559.825 353.806 566.585 c 0
EndSplineSet
Substitution2: "'fina' Final Forms-1" lam.fina
Substitution2: "'medi' Medial Forms-1" lam.medi
Substitution2: "'init' Initial Forms-1" lam.init
EndChar

StartChar: meem
Encoding: 65567 -1 58
Width: 365
VWidth: 1163
Flags: W
AnchorPoint: "tashkil.above" 184 386 basechar 0
AnchorPoint: "tashkil.below" 280 -140 basechar 0
LayerCount: 2
Fore
SplineSet
139.587 111.839 m 1
 161.113 121.098 187.315 127.683 216.185 131.315 c 1
 200.244 144.739 180.997 156.763 167.202 152.945 c 0
 149.365 148.012 141.761 130.675 139.587 111.839 c 1
93.5703 79.7861 m 1
 102.935 151.22 139.188 236.493 180.274 250.806 c 0
 186.567 252.998 196.129 254.869 205.658 254.796 c 0
 211.376 254.752 217.086 253.989 222.091 252.196 c 0
 258.662 239.103 303.865 200.102 337.672 156.355 c 0
 339.821 153.574 345.24 145.466 343.97 138.119 c 0
 341.027 121.09 332.685 67.1963 328.114 53.8252 c 0
 325.423 45.9512 317.882 43.1025 312.84 44.2969 c 0
 257.792 57.3271 159.134 69.2236 93.5703 -8.49219 c 0
 88.6074 -14.374 87.5176 -18.208 89.502 -25.5283 c 0
 123.639 -150.997 176.187 -394.086 170.143 -461.305 c 0
 167.633 -489.199 141.899 -494.038 137.435 -461.146 c 0
 133.581 -432.763 121.377 -341.408 104.701 -265.217 c 0
 85.6152 -178.016 50.9727 -72.1885 59.6299 -13.8467 c 0
 65.5264 25.8965 75.0879 57.6543 93.5703 79.7861 c 1
EndSplineSet
Substitution2: "'fina' Final Forms-1" meem.fina
Substitution2: "'medi' Medial Forms-1" meem.medi
Substitution2: "'init' Initial Forms-1" meem.init
EndChar

StartChar: noon
Encoding: 65568 -1 59
Width: 475
VWidth: 1399
Flags: W
AnchorPoint: "tashkil.above" 213 399 basechar 0
AnchorPoint: "tashkil.below" 255 -192 basechar 0
AnchorPoint: "dot.below" 255 -192 basechar 0
AnchorPoint: "dot.above" 213 399 basechar 0
LayerCount: 2
Fore
SplineSet
372.11 394.364 m 0
 416.142 321.937 450.024 202.623 432.062 90.5225 c 0
 413.838 -23.5332 316.225 -69.8379 224 -76 c 0
 165.361 -79.9189 112.139 -66.998 79.793 -37.1045 c 0
 18.4873 19.5527 22.0752 150.969 94.8301 242.447 c 0
 101.734 251.127 119.118 245.186 106.559 230.501 c 0
 87.7471 208.505 56.8262 136.517 86.1494 75.5156 c 0
 115.237 15.0039 306.87 -27.6455 407.672 93.1006 c 0
 409.108 94.8223 409.202 98.2354 409.24 100.603 c 0
 410.547 182.052 366.374 269.479 340.843 306.611 c 0
 338.479 310.049 334.798 313.396 337.25 321.369 c 2
 359.977 395.266 l 2
 361.862 401.394 367.145 402.53 372.11 394.364 c 0
EndSplineSet
Substitution2: "'fina' Final Forms-1" noon.fina
Substitution2: "'medi' Medial Forms-1" baa.medi
Substitution2: "'init' Initial Forms-1" baa.init
EndChar

StartChar: heh
Encoding: 65569 -1 60
Width: 292
VWidth: 1399
Flags: W
AnchorPoint: "tashkil.above" 144 456 basechar 0
AnchorPoint: "tashkil.below" 153 -138 basechar 0
AnchorPoint: "dot.below" 153 -138 basechar 0
AnchorPoint: "dot.above" 144 456 basechar 0
LayerCount: 2
Fore
SplineSet
146.607 290.986 m 0
 151.979 291.061 157.634 288.593 162.856 286.523 c 0
 193.049 274.561 231.83 232.043 248.195 194.938 c 0
 261.694 164.326 263.695 116.182 256.149 83.7158 c 0
 241.967 22.709 197.499 -23.7988 135.451 -24.4863 c 0
 50.1777 -25.4365 28.3428 43.6201 50.6641 131.255 c 0
 65.1172 188.001 112.718 265.702 137.394 287.442 c 0
 140.259 289.966 143.385 290.941 146.607 290.986 c 0
125.135 182.469 m 0
 124.146 182.471 123.176 182.426 122.221 182.364 c 0
 96.3701 180.695 78.5352 126.453 82.7676 106.974 c 0
 87.124 86.9229 113.019 73.0117 140.255 72.3242 c 0
 167.491 71.6348 202.805 86.666 219.556 100.91 c 0
 222.559 103.572 225.67 111.844 221.945 117.264 c 0
 202.094 152.209 155.795 182.428 125.135 182.469 c 0
EndSplineSet
Substitution2: "'fina' Final Forms-1" heh.fina
Substitution2: "'medi' Medial Forms-1" heh.medi
Substitution2: "'init' Initial Forms-1" heh.init
EndChar

StartChar: waw
Encoding: 65570 -1 61
Width: 390
VWidth: 1399
Flags: W
AnchorPoint: "tashkil.above" 270 411 basechar 0
AnchorPoint: "tashkil.below" 312 -234 basechar 0
AnchorPoint: "hamza.above" 270 411 basechar 0
AnchorPoint: "dot.below" 312 -234 basechar 0
AnchorPoint: "dot.above" 270 411 basechar 0
LayerCount: 2
Fore
SplineSet
273.688 308.906 m 0
 274.181 308.896 274.667 308.85 275.156 308.812 c 0
 301.03 306.863 363.524 251.944 369.906 158.531 c 0
 372.294 123.202 363.692 82.3047 353.094 32.9375 c 0
 324.131 -102.481 191.027 -238.298 136.719 -244.5 c 0
 82.4102 -250.702 -22.8428 -221.57 -75.5 -208.594 c 0
 -88.9521 -205.278 -88.1162 -188.268 -78.1562 -188.75 c 0
 -29.2646 -191.115 20.332 -193.995 82.8125 -184.719 c 0
 141.257 -176.042 311.55 -22.2148 329.812 37 c 1
 327.247 58.5664 315.359 75.9199 309.625 79.2812 c 1
 284.407 40.6533 250.997 27.792 206.531 47.5625 c 0
 157.364 69.4229 160.068 132.787 183.281 200.094 c 0
 203.425 258.5 242.61 309.574 273.688 308.906 c 0
250.438 192.125 m 0
 239.853 192.548 228.641 185.892 216.688 170.562 c 1
 236.927 143.64 265.256 151.893 284.094 165.875 c 1
 273.616 182.09 262.434 191.646 250.438 192.125 c 0
EndSplineSet
Substitution2: "'fina' Final Forms-1" waw.fina
EndChar

StartChar: yaa
Encoding: 65571 -1 62
Width: 771
VWidth: 1399
Flags: W
AnchorPoint: "tashkil.above" 297 495 basechar 0
AnchorPoint: "tashkil.below" 315 -276 basechar 0
AnchorPoint: "hamza.above" 164 384 basechar 0
AnchorPoint: "dot.below" 315 -276 basechar 0
AnchorPoint: "dot.above" 297 495 basechar 0
LayerCount: 2
Fore
SplineSet
681.211 346.853 m 0
 650.059 408.473 494.528 327.485 429.012 217.755 c 0
 424.827 210.747 425.554 206.028 429.046 201.613 c 0
 493.212 120.507 649.532 167.691 669.348 94.6074 c 0
 677.478 64.624 648.835 -23.2676 630.534 -43.3799 c 0
 570.392 -109.478 405.584 -162.434 296.06 -162.277 c 0
 84.626 -161.979 33.46 -56.5938 55.4326 77.9629 c 0
 66.2227 144.038 105.375 240.983 158.335 291.744 c 0
 170.688 303.585 177.331 290.934 170.449 281.833 c 0
 142.342 244.664 67.3867 136.473 104.463 44.4629 c 0
 125.633 -8.07422 180.843 -73.042 307.014 -67.2861 c 0
 413.949 -62.4082 535.102 -36.501 623.836 34.7529 c 0
 629.279 39.124 626.98 42.3066 621.915 46.7627 c 0
 589.259 75.4912 433.875 59.7158 392.916 128.749 c 0
 374.871 159.163 397.996 235.981 424.421 273.045 c 0
 517.357 403.393 613.403 458.538 657.398 457.361 c 0
 688.513 456.53 702.541 435.73 705.436 415.993 c 0
 708.173 397.329 698.128 371.105 690.298 349.483 c 0
 687.831 342.672 684.802 339.749 681.211 346.853 c 0
EndSplineSet
Substitution2: "'fina' Final Forms-1" yaa.fina
Substitution2: "'medi' Medial Forms-1" baa.medi
Substitution2: "'init' Initial Forms-1" baa.init
EndChar

StartChar: uni0621
Encoding: 1569 1569 65
Width: 321
VWidth: 0
Flags: W
LayerCount: 2
Fore
SplineSet
259.982 127.084 m 1
 257.993 120.874 253.211 110.894 245.602 106.539 c 1
 175.608 84.4326 79.5391 28.5469 42.3965 3.30371 c 1
 26.2949 -5.2627 18.8457 7.11328 22 20 c 1
 30.5537 40.0176 49.125 59.8018 71.2139 77.4814 c 1
 46.5674 87.4092 17.0518 106.984 9.48242 121.109 c 0
 -6.90137 151.683 1.40625 182.375 16.9854 210.848 c 0
 32.5645 239.321 87.9424 307.041 130.114 307.563 c 0
 153.676 307.855 163.543 299.539 171.463 287.051 c 0
 186.07 264.018 175.668 224.355 160.397 200.868 c 0
 151.787 187.624 141.404 189.097 133.699 196.782 c 0
 123.524 206.932 103.175 223.97 87.4062 222.972 c 0
 71.377 221.956 64.2285 213.133 65.749 202.593 c 0
 68.915 180.643 117.034 143.26 190.491 154.071 c 0
 218.804 158.238 230.574 175.919 257.463 180.454 c 0
 266.412 181.964 274.343 171.916 271.529 163.131 c 2
 259.982 127.084 l 1
EndSplineSet
EndChar

StartChar: madda.above
Encoding: 65544 -1 66
Width: 0
VWidth: 0
GlyphClass: 4
Flags: W
AnchorPoint: "madda.above" 0 33 mark 0
LayerCount: 2
Fore
SplineSet
193.513 147.303 m 0
 203.009 150.88 213.455 147.66 216.852 138.542 c 0
 220.061 129.924 216.398 118.863 209.071 114.072 c 0
 102.891 44.6504 -32.1035 34.8047 -139.355 45.5527 c 1
 -139.568 33.6895 -145.853 15.459 -151.067 5.99414 c 0
 -153.96 0.746094 -157.154 0.412109 -161.687 4.45117 c 0
 -180.016 20.7803 -196.874 34.8965 -214.423 51.9873 c 0
 -220.54 57.9453 -217.471 67.3438 -215.28 72.5771 c 0
 -207.118 92.0801 -204.871 97.8721 -187.827 123.194 c 0
 -180.713 133.764 -166.868 131.609 -159.945 129.199 c 0
 -26.4053 102.136 70.6396 101.011 193.513 147.303 c 0
EndSplineSet
EndChar

StartChar: baa.init
Encoding: 65582 -1 67
Width: 119
VWidth: 24
Flags: W
AnchorPoint: "tashkil.above" 54 423 basechar 0
AnchorPoint: "tashkil.below" 54 -150 basechar 0
AnchorPoint: "hamza.below" 55 -151 basechar 0
AnchorPoint: "hamza.above" 54 423 basechar 0
AnchorPoint: "dot.below" 54 -150 basechar 0
AnchorPoint: "dot.above" 54 423 basechar 0
LayerCount: 2
Fore
SplineSet
58.252 255.119 m 0
 60.9385 259.273 66.4492 260.859 69.3076 254.057 c 0
 81.3115 225.484 94.1621 192.589 83.5518 104.599 c 0
 74.9727 33.4609 38.3916 15.3428 0 0 c 1
 0.212891 84.251 l 1
 20.8662 89.1299 39.5146 103.401 50.6855 113.677 c 0
 52.8164 115.637 52.1445 117.89 51.541 119.953 c 0
 45.7432 139.783 36 154 23.8105 172.631 c 0
 19.5433 179.153 19.96 186.662 22.3223 192.189 c 0
 32.0293 214.904 48.4688 239.991 58.252 255.119 c 0
EndSplineSet
Substitution2: "BaaYaa.isol-1" baa.init_BaaYaa.isol
Substitution2: "BaaMeem.init-1" baa.init_BaaMeem.init
Substitution2: "BaaNoon.isol-1" baa.init_BaaNoon.isol
Substitution2: "BaaHeh.isol-1" baa.init_BaaHeh.isol
Substitution2: "BaaHeh.init-1" baa.init_BaaHeh.init
Substitution2: "BaaHaa.isol-1" baa.init_BaaHaa.isol
Substitution2: "BaaHaa.init-1" baa.init_BaaHaa.init
Substitution2: "BaaSeen-1" baa.init_BaaSeen
EndChar

StartChar: haa.init
Encoding: 65583 -1 68
Width: 564
VWidth: 26
Flags: W
AnchorPoint: "tashkil.below" 312 -57 basechar 0
AnchorPoint: "tashkil.above" 114 453 basechar 0
AnchorPoint: "dot.above" 114 453 basechar 0
AnchorPoint: "dot.below" 312 -57 basechar 0
LayerCount: 2
Fore
SplineSet
2.22754 200.735 m 0
 10.8789 231.087 53.0703 283.988 107.901 283.393 c 0
 178.976 282.625 309.492 172.501 516.109 178.253 c 0
 537.228 178.839 530.022 166.496 527.618 162.194 c 2
 500.854 114.285 l 2
 495.717 105.091 486.831 105.408 481.048 106.522 c 0
 314.609 138.618 147.674 47.7148 0 0 c 1
 0 88.3232 l 1
 71.0859 100.872 158.732 113.859 230.575 147.428 c 1
 151.396 190.343 109.006 204.538 16.4316 187.731 c 0
 6.75098 185.974 -0.394531 191.538 2.22754 200.735 c 0
EndSplineSet
Substitution2: "HaaRaa.isol-1" haa.init_HaaRaa.isol
Substitution2: "HaaYaa.isol-1" haa.init_HaaYaa.isol
Substitution2: "preMeem-1" haa.init_preMeem
Substitution2: "HaaHaa.init-1" haa.init_HaaHaa.init
Substitution2: "HaaAlt-1" haa.init.alt
EndChar

StartChar: seen.init
Encoding: 65584 -1 69
Width: 496
VWidth: 24
Flags: W
AnchorPoint: "tashkil.below" 276 -141 basechar 0
AnchorPoint: "tashkil.above" 276 432 basechar 0
AnchorPoint: "dot.above" 276 432 basechar 0
AnchorPoint: "dot.below" 276 -141 basechar 0
LayerCount: 2
Fore
SplineSet
444.614 262.012 m 0
 446.608 262.098 448.48 259.492 449.768 257.302 c 0
 465.531 230.473 478.427 162.92 427.006 78.3164 c 0
 422.695 71.2256 413.915 66.3135 406.054 65.042 c 0
 384.71 61.5889 324.07 78.4014 292.827 110.599 c 1
 270.71 67.9805 243.789 32.1543 203.248 20.4746 c 1
 160.229 10.6904 118.913 33.3594 95.6182 73.7773 c 1
 62.6504 31.1826 26.1426 6.0459 0 0 c 1
 0 89.3721 l 1
 60.7432 95.2686 104.433 122.117 139.23 175.026 c 0
 146.237 185.683 154.947 178.365 152.846 173.116 c 0
 148.464 162.172 143.81 152.097 138.991 142.711 c 1
 149.523 123.692 174.609 101.546 210.893 106.776 c 0
 286.93 117.74 301.684 186.617 325.689 230.105 c 0
 331.169 240.03 343.943 233.73 339.987 223.484 c 0
 335.141 210.931 330.234 197.771 325.108 184.411 c 1
 352.821 155.593 413.65 141.711 423.491 156.121 c 0
 428.178 162.983 421.812 195.275 415.574 209.801 c 0
 413.979 213.516 415.207 214.836 417.349 218.775 c 0
 424.54 232.003 433.108 245.909 441.885 259.93 c 0
 442.794 261.383 443.708 261.972 444.614 262.012 c 0
EndSplineSet
Substitution2: "SeenMeem-1" seen.init_SeenMeem.isol
EndChar

StartChar: sad.init
Encoding: 65585 -1 70
Width: 449
VWidth: 0
Flags: W
AnchorPoint: "tashkil.below" 240 -114 basechar 0
AnchorPoint: "tashkil.above" 159 420 basechar 0
AnchorPoint: "dot.above" 159 420 basechar 0
AnchorPoint: "dot.below" 240 -114 basechar 0
LayerCount: 2
Fore
SplineSet
314.651 292.579 m 0
 340.792 293.472 421.187 260.907 416.856 212.826 c 0
 413.405 174.152 378.352 105.548 368.117 95.8418 c 0
 285.599 17.5947 116.509 1.81836 55.0479 -0.569336 c 1
 50.5352 -10.0781 44.4551 -29.8848 38.5801 -44.1533 c 0
 31.8311 -60.5439 14.5029 -53.8896 17.1924 -35.6484 c 0
 18.458 -27.0664 21.6807 -9.86914 24.6729 -0.548828 c 1
 20.0039 -0.330078 3.81934 -1.3418 0 0 c 1
 0.579102 80.6367 l 1
 15.8252 78.6777 48.9658 81.5137 63.999 80.9453 c 1
 104.251 138.951 231.715 289.753 314.651 292.579 c 0
356.064 166.787 m 0
 328.45 185.527 284.134 202.675 249.991 196.068 c 0
 208.891 188.115 138.751 130.187 102.56 81.6113 c 1
 213.966 93.79 322.475 127.282 356.66 158.41 c 0
 359.927 161.385 359.813 164.244 356.064 166.787 c 0
EndSplineSet
EndChar

StartChar: taa.init
Encoding: 65586 -1 71
Width: 490
VWidth: 65
Flags: W
AnchorPoint: "tashkil.below" 315 -75 basechar 0
AnchorPoint: "tashkil.above" 315 498 basechar 0
AnchorPoint: "dot.above" 315 498 basechar 0
AnchorPoint: "dot.below" 315 -75 basechar 0
LayerCount: 2
Fore
SplineSet
121.906 683.419 m 0
 125.383 683.748 128.733 680.207 130.253 676.068 c 0
 143.615 639.666 160.82 629.77 180.601 610.941 c 0
 185.003 606.75 184.644 601.834 180.442 597.424 c 0
 168.665 585.059 159.459 572.24 150.282 561.12 c 0
 145.847 555.744 146.227 549.599 146.686 542.509 c 0
 151.062 474.97 163.695 387.036 164.719 310.354 c 0
 165.509 251.303 157.881 202.18 146.029 168.499 c 0
 145.678 167.5 145.332 166.547 144.979 165.61 c 1
 218.018 224.354 297.826 277.302 341.513 289.091 c 0
 362.142 294.657 380.781 296.056 396.087 290.271 c 0
 420.068 281.21 440.64 256.418 454.887 228.769 c 0
 458.156 222.423 457.749 210.332 455.753 203.175 c 0
 444.979 164.546 431.55 131.439 409.711 99.6709 c 1
 396.04 77.0186 346.999 57.7969 320.671 51.6074 c 0
 205.678 24.9512 117.756 7.74023 0 0 c 1
 -0.249023 24.8252 -0.648438 61.9463 0.578125 86.625 c 1
 20.4697 87.2158 41.4492 87.0684 57.2256 88.751 c 1
 77.2539 108.116 100.228 128.575 124.426 148.759 c 0
 124.51 149.422 124.623 150.126 124.793 150.858 c 0
 128.007 164.687 128.085 175.133 128.416 183.96 c 0
 131.279 312.382 111.773 452.403 95.1309 590.678 c 0
 94.1104 599.155 91.3896 603.478 90.0635 610.154 c 0
 89.1455 614.788 89.2295 617.615 91.1143 622.624 c 0
 95.5107 634.304 107.623 664.114 116.603 679.245 c 0
 118.246 682.013 120.085 683.246 121.906 683.419 c 0
309.067 206.85 m 0
 302.688 206.93 296.352 206.104 290.116 204.251 c 0
 231.24 186.756 157.12 134.166 117.232 92.1377 c 1
 209.851 99.9248 315.714 116.918 395.299 145.398 c 0
 398.135 146.413 399.427 148.923 397.636 151.594 c 0
 378.562 180.031 343.52 206.421 309.067 206.85 c 0
EndSplineSet
EndChar

StartChar: ayn.init
Encoding: 65587 -1 72
Width: 400
VWidth: 0
Flags: W
AnchorPoint: "tashkil.below" 220.92 -26.04 basechar 0
AnchorPoint: "tashkil.above" 94.9199 497.279 basechar 0
AnchorPoint: "dot.above" 94.9199 497.279 basechar 0
AnchorPoint: "dot.below" 220.92 -26.04 basechar 0
LayerCount: 2
Fore
SplineSet
367.218 223.061 m 0
 367.218 223.061 355.738 179.37 348.799 152.125 c 0
 347.122 145.541 340.361 141.918 333.766 139.497 c 0
 216.312 96.3975 0 0 0 0 c 1
 -0.604492 81.1582 l 1
 16.834 86.3691 36.1523 94.8643 61.3389 105.812 c 1
 44.7891 123.021 22.0752 139.263 30.0645 186.4 c 0
 43.1738 263.742 104.179 329.957 170.205 351.775 c 0
 202.436 362.425 253.481 333.932 290.479 293.44 c 0
 303.296 279.413 290.313 265.176 275.445 271.197 c 0
 205.979 299.321 101.052 276.009 80.583 226.099 c 0
 72.5156 206.426 120.165 165.927 149.761 162.327 c 0
 238.043 151.517 302.08 207.171 355.412 234.488 c 0
 363.986 238.881 367.919 231.397 367.218 223.061 c 0
EndSplineSet
Substitution2: "AynYaa.isol-1" ayn.init_AynYaa.isol
Substitution2: "preMeem-1" ayn.init_preMeem
Substitution2: "AynHaa-1" ayn_AynHaa.init
EndChar

StartChar: faa.init
Encoding: 65588 -1 73
Width: 280
VWidth: 0
Flags: W
AnchorPoint: "tashkil.below" 117 -57 basechar 0
AnchorPoint: "tashkil.above" 114 549 basechar 0
AnchorPoint: "dot.above" 114 549 basechar 0
AnchorPoint: "dot.below" 117 -57 basechar 0
LayerCount: 2
Fore
SplineSet
119.031 424.844 m 0
 150.988 424.51 247.02 331.217 240.25 202.406 c 0
 235.513 112.255 194.315 65.5537 124.938 33 c 0
 81.7881 12.7539 45.1113 5.42188 -0.53125 0 c 1
 -0.15625 94.8125 l 1
 80.2744 102.197 158.372 142.398 194.688 167.688 c 1
 196.997 195.49 189.595 207.543 181.344 213.656 c 0
 174.031 219.074 169.083 217.515 167.438 213.188 c 0
 146.288 157.562 88.5049 142.208 38.6562 166.969 c 0
 15.5303 178.456 6.25586 209.711 9.15625 248.094 c 0
 14.5215 319.107 74.5684 425.307 119.031 424.844 c 0
84.6875 312.094 m 0
 67.8555 311.703 60.9023 288.469 56.0938 272.312 c 0
 55.4648 270.199 56.0098 266.564 58 265.938 c 0
 82.1455 258.326 101.529 261.122 120.625 269.531 c 0
 122.433 270.327 122.572 272.099 122.125 273.406 c 0
 116.722 289.207 99.4844 312.438 84.6875 312.094 c 0
EndSplineSet
Substitution2: "preMeem-1" faa.init_preMeem
Substitution2: "FaaYaa.isol-1" faa.init_FaaYaa.isol
Substitution2: "preHaa-1" faa.init_preHaa
EndChar

StartChar: kaf.init
Encoding: 65589 -1 74
Width: 492
VWidth: 0
Flags: W
AnchorPoint: "tashkil.above" 82 672 basechar 0
AnchorPoint: "tashkil.below" 66 -104 basechar 0
LayerCount: 2
Fore
SplineSet
458.104 661.666 m 2
 441.241 625.766 l 2
 438.459 619.841 431.758 614.512 425.893 613.191 c 0
 292.41 583.133 149.586 546.804 19.8818 468.698 c 0
 16.9863 466.956 17.9912 462.682 20.9258 458.468 c 0
 93.0908 354.83 162.66 257.118 132.633 109.933 c 0
 116.31 29.7393 58.6455 18.0361 0 0 c 1
 -0.120117 84.0293 l 1
 9.64453 83.041 96.6865 107.855 110.893 121.033 c 1
 119.158 143.032 85.5352 226.178 34.3398 319.933 c 0
 29.3535 329.063 24.3135 332.006 17.9199 330.107 c 2
 3.11816 325.714 l 2
 -3.40234 323.778 -9.19629 327.352 -12.3779 332.189 c 2
 -52.9824 393.931 l 2
 -58.5693 402.427 -56.2158 407.073 -55.2725 412.279 c 0
 -49.7168 442.923 -33.084 478.577 -20.0098 492.927 c 0
 43.918 563.095 273.611 659.41 446.245 678.874 c 0
 451.582 679.476 464.227 674.702 458.104 661.666 c 2
EndSplineSet
Substitution2: "KafRaa.isol-1" kaf.init_KafRaa.isol
Substitution2: "KafYaa.isol-1" kaf.init_KafYaa.isol
Substitution2: "KafMeem.init-1" kaf.init_KafMeem.init
Substitution2: "KafMeem.isol-1" kaf.init_KafMeem.isol
Substitution2: "KafLam.isol-1" kaf.init_KafLam.isol
Substitution2: "KafLam.init-1" kaf.init_KafLam.init
Substitution2: "KafHeh.isol-1" kaf.init_KafHeh.isol
Substitution2: "KafBaa.init-1" kaf.init_KafBaa.init
Substitution2: "KafAlef.isol-1" kaf.init_KafAlef.isol
EndChar

StartChar: lam.init
Encoding: 65590 -1 75
Width: 135
VWidth: 0
Flags: W
AnchorPoint: "tashkil.above" 16 676 basechar 0
AnchorPoint: "tashkil.below" 38 -112 basechar 0
LayerCount: 2
Fore
SplineSet
0.160156 79.7529 m 1
 27.252 83.8223 50.8496 92.2119 72.3271 108.825 c 1
 76.1084 139.372 60.9102 222.377 45.9541 300.971 c 0
 31.5146 376.85 25.2568 427.635 16.3604 493.214 c 0
 16.127 494.93 4.81152 503.742 7.20215 517.418 c 2
 18.9766 584.796 l 2
 22.1035 602.691 33.793 593.519 38.6738 583.256 c 0
 46.1338 567.571 53.3545 550.979 67.3848 540.313 c 0
 76.2754 533.554 84.5371 525.792 83.084 515.455 c 0
 80.9941 500.589 78.4092 477.096 59.4551 476.907 c 1
 71.5498 382.688 97.8242 233.656 100.819 214.625 c 0
 103.814 195.595 104.224 170.581 101.854 150.908 c 0
 97.5625 115.283 94.1094 63.7734 70 34 c 1
 54.1494 15.3496 32.3916 5.05469 0.160156 -0.0205078 c 1
 0.160156 79.7529 l 1
EndSplineSet
Substitution2: "Lellah-1" lam.init_Lellah.isol
Substitution2: "LamAlef.isol-1" lam_LamAlef.isol
EndChar

StartChar: meem.init
Encoding: 65591 -1 76
Width: 316
VWidth: 26
Flags: W
AnchorPoint: "tashkil.above" 122 364 basechar 0
AnchorPoint: "tashkil.below" 162 -124 basechar 0
LayerCount: 2
Fore
SplineSet
202.912 273.919 m 0
 208.528 274.032 214.399 273.195 220.578 271.24 c 0
 264.203 257.442 276.671 185.649 283.814 128.913 c 0
 284.415 124.108 284.85 118.854 281.4 114.476 c 2
 233.809 54.0488 l 2
 230.843 50.2852 226.376 45.4648 217.166 48.1426 c 0
 177.841 59.5771 135.526 79.5693 98.7002 110.407 c 1
 84.0693 76.4561 45.6494 9.5332 0 0 c 1
 0 80.7969 l 1
 27.3574 83.4736 53.7256 97.7119 76.9648 127.706 c 0
 118.782 181.676 148.626 272.818 202.912 273.919 c 0
175.901 202.912 m 0
 162.584 203.156 148.656 196.437 140.28 188.448 c 1
 156.718 172.649 185.376 155.373 218.531 148.075 c 1
 219.264 168.068 212.806 187.048 190.891 199.08 c 0
 186.228 201.639 181.112 202.816 175.901 202.912 c 0
EndSplineSet
EndChar

StartChar: heh.init
Encoding: 65592 -1 77
Width: 449
VWidth: 0
Flags: W
AnchorPoint: "tashkil.above" 166 562 basechar 0
AnchorPoint: "tashkil.below" 200 -86 basechar 0
LayerCount: 2
Fore
SplineSet
91.2041 330.406 m 0
 100.012 357.443 128.338 423.066 161.61 422.906 c 0
 204.886 422.697 257.272 371.727 293.298 336.531 c 0
 338.595 292.276 399.395 225.07 406.673 182.844 c 0
 414.849 135.401 404.633 22.4697 336.113 36.3623 c 0
 283.624 47.0039 208.667 61.0469 141.946 84.8496 c 1
 92.5576 41.9365 38.3721 14.0605 -0.264648 0 c 1
 1.04492 88.0293 l 1
 24.8975 97.3711 49.2666 110.004 68.7686 120.183 c 1
 48.1748 137.229 49.541 157.366 57.5293 181.563 c 0
 67.3018 213.067 90.2754 259.016 134.468 297.615 c 1
 136.109 304.826 111.512 317.19 97.7354 318.031 c 0
 91.46 318.414 89.7246 325.81 91.2041 330.406 c 0
158.642 266.812 m 0
 138.032 266.963 106.168 243.121 91.1416 218.062 c 0
 79.1172 198.012 105.584 180.535 170.586 163.607 c 1
 181.802 169.225 191.042 174.052 202.153 180.108 c 0
 205.374 181.863 205.107 183.645 204.809 187.369 c 0
 202.287 218.766 190.396 258.291 164.642 265.969 c 0
 162.781 266.523 160.773 266.797 158.642 266.812 c 0
246.158 241.764 m 0
 243.654 243.58 241.283 243.108 242.409 239.93 c 0
 247.208 211.792 214.271 163.474 205.072 154.352 c 1
 269.076 137.717 337.1 118.238 361.235 118.594 c 0
 366.897 118.677 370.086 121.925 366.332 127.061 c 0
 333.863 171.489 293.131 207.697 246.158 241.764 c 0
EndSplineSet
Substitution2: "preHaa-1" heh.init_preHaa
Substitution2: "preMeem-1" heh.init_preMeem
EndChar

StartChar: baa.medi
Encoding: 65603 -1 78
Width: 190
VWidth: 0
Flags: W
AnchorPoint: "tashkil.below" 102 -177 basechar 0
AnchorPoint: "tashkil.above" 87 393 basechar 0
AnchorPoint: "hamza.above" 87 394 basechar 0
AnchorPoint: "hamza.below" 102 -177 basechar 0
AnchorPoint: "dot.above" 87 393 basechar 0
AnchorPoint: "dot.below" 102 -177 basechar 0
LayerCount: 2
Fore
SplineSet
190.149 81.9971 m 1
 190.016 0 l 1
 152.756 9.04883 121.974 36.6895 102.161 62.3594 c 0
 99.0752 65.7764 94.0469 65.8125 90.9609 62.0176 c 0
 77.2354 44.2031 60.9629 28.2207 44.3965 17.9111 c 0
 26.3281 6.66602 8.99707 1.63184 0 2.01367 c 1
 0.275391 82.5479 l 1
 18.7764 86.9678 50.5029 89.5654 73.5508 104.893 c 0
 84.7598 112.347 93.707 123.442 98.4844 138.012 c 0
 101.834 148.224 114.2 149.112 116.994 140.907 c 0
 121.171 128.638 122.221 116.37 131.295 107.877 c 0
 142.416 97.4678 165.014 87.7568 190.149 81.9971 c 1
EndSplineSet
Substitution2: "KafBaa.medi-1" baa.medi_KafBaa.medi
Substitution2: "KafBaa.init-1" baa.medi_KafBaa.init
Substitution2: "BaaNoon.fina-1" baa.medi_BaaNoon.fina
Substitution2: "BaaMeem.fina-1" baa.medi_BaaMeem.fina
EndChar

StartChar: haa.medi
Encoding: 65604 -1 79
Width: 524
VWidth: 25
Flags: W
AnchorPoint: "tashkil.below" 219 -123 basechar 0
AnchorPoint: "tashkil.above" 102 432 basechar 0
AnchorPoint: "dot.above" 102 432 basechar 0
AnchorPoint: "dot.below" 219 -123 basechar 0
LayerCount: 2
Fore
SplineSet
118.414 274.103 m 0
 165.214 273.359 201.267 243.495 244.31 226.695 c 0
 278.816 213.227 316.981 199.397 355.215 192.519 c 0
 404.693 183.616 470.57 178.412 512.978 177.136 c 0
 517.526 176.998 525.445 174.806 522.664 166.819 c 0
 515.86 147.288 508.452 128.056 499.196 109.751 c 0
 497.239 105.881 492.105 104.261 488.67 104.659 c 0
 461.792 107.772 437.16 110.123 414.016 111.405 c 1
 414.089 110.033 414.146 108.622 414.172 107.18 c 0
 414.474 96.1172 416.217 86.124 424.331 77.4111 c 0
 425.694 75.9482 434.558 69.1006 440.843 69.1689 c 0
 468.106 69.4492 486.142 67.3145 524.134 68.1191 c 1
 525.026 -10.0801 l 1
 515.061 -11.5469 470.585 -11.0176 421.942 -9.73828 c 0
 407.446 -9.35645 394.039 3.93652 389.445 11.2881 c 0
 380.358 25.8291 381.119 62.8418 381.99 97.4141 c 0
 381.813 102.911 381.867 107.933 382.121 112.481 c 1
 327.098 113.097 279.117 106.418 226.013 88.541 c 0
 151.39 63.4209 57.7617 17.2861 0 0 c 1
 -0.65625 71.8467 l 1
 68.1113 92.4453 172.279 124.618 203.647 141.383 c 0
 209.612 144.57 207.729 150.82 197.794 154.192 c 0
 124.604 179.036 68.3418 187.155 12.4424 170.73 c 0
 3.11816 167.99 -4.6416 168.684 1.3125 183.829 c 0
 27.5801 250.65 78.8291 274.74 118.414 274.103 c 0
EndSplineSet
Substitution2: "HaaHaa.init-1" haa.medi_HaaHaa.init
Substitution2: "HaaAlt-1" haa.medi.alt
Substitution2: "preHaa-1" haa.medi_preHaa
Substitution2: "BaaHaa.init-1" haa.medi_BaaHaa.init
Substitution2: "AynHaa-1" haa_AynHaa.init
EndChar

StartChar: seen.medi
Encoding: 65605 -1 80
Width: 508
VWidth: 0
Flags: W
AnchorPoint: "tashkil.below" 291 -129 basechar 0
AnchorPoint: "tashkil.above" 297 327 basechar 0
AnchorPoint: "dot.above" 297 327 basechar 0
AnchorPoint: "dot.below" 291 -129 basechar 0
LayerCount: 2
Fore
SplineSet
508.312 -3.74707 m 1
 490.049 2.74512 462.305 17.291 446.008 61.7979 c 0
 441.021 75.4121 435.425 70.4756 432.647 65.1611 c 0
 419.246 39.5195 412.043 22.457 397.719 8.62695 c 0
 389.564 0.764648 374.917 2.25684 363.771 5.26074 c 0
 345.71 10.1299 314.603 13.8701 281.139 54.4521 c 0
 278.114 58.1191 275.299 57.6504 270.904 51.2344 c 0
 244.876 13.2383 209.342 -10.1924 165.993 -5.12305 c 0
 123.028 -0.0996094 113.673 30.4824 98.3896 56.3613 c 0
 97.1328 58.4902 95.2881 58.7764 93.8916 57.2939 c 0
 68.0615 29.8779 30.0498 6.81445 -12 0 c 1
 -0.206055 87.9941 l 1
 53.7979 91.4473 95.2002 88.1982 146.996 153.71 c 0
 155.447 165.807 174.839 153.311 169.947 145.362 c 0
 160.704 130.342 159.277 112.55 160.756 105.248 c 0
 164.11 88.6865 181.555 80.6191 203.695 80.8564 c 0
 263.757 81.4805 293.077 111.082 320.687 154.023 c 0
 329.841 168.263 350.411 162.944 345.197 150.175 c 0
 341.215 140.425 337.749 133.211 336.152 124.739 c 0
 335.508 121.324 334.227 116.862 337.281 112.42 c 0
 349.8 94.2148 380.561 89.377 396.618 89.2139 c 0
 406.417 89.1143 410.081 93.5312 414.542 98.583 c 0
 426.664 112.312 435.237 131.956 444.386 150.642 c 0
 450.379 162.884 461.406 157.495 463.904 146.251 c 0
 471.516 111.988 485.458 86.9668 507.876 73 c 1
 508.269 50.2227 508.403 27.2061 508.312 -3.74707 c 1
EndSplineSet
Substitution2: "SeenMeem-1" seen.medi_SeenMeem.fina
Substitution2: "BaaSeen-1" seen.medi_BaaSeen
EndChar

StartChar: sad.medi
Encoding: 65606 -1 81
Width: 683
VWidth: 17
Flags: W
AnchorPoint: "tashkil.below" 408 -150 basechar 0
AnchorPoint: "tashkil.above" 306 351 basechar 0
AnchorPoint: "dot.above" 306 351 basechar 0
AnchorPoint: "dot.below" 408 -150 basechar 0
LayerCount: 2
Fore
SplineSet
533.27 291.506 m 0
 563.995 291.206 649.882 256.005 647.824 204.356 c 1
 638.241 166.851 616.52 129.188 601.389 107.362 c 0
 583.309 81.2852 547.479 61.707 521.115 41.9219 c 1
 579.795 41.0684 630.816 55.5088 685.23 63.1836 c 1
 682.685 -30.3711 l 1
 604.308 -28.4844 515.119 -20.2559 432.181 -9.71191 c 1
 367.419 -16.1309 291.264 -14.2236 225.278 2.15234 c 1
 211.658 -31.8721 203.328 -60.0713 197.716 -89.9316 c 0
 193.865 -110.423 164.434 -107.798 165.401 -88.9873 c 0
 167.622 -45.8916 181.204 -12.3623 194.565 12.1543 c 1
 153.957 21.6641 124.912 45.7617 102.718 78.4873 c 1
 83.7451 70.7588 35.9102 -0.526367 -10 0 c 1
 0.657227 85.2861 l 1
 47.668 82.3936 83.875 128.76 105.08 145.162 c 0
 118.287 155.379 123.567 149.913 134.585 136.736 c 0
 151.812 116.134 183.358 88.5654 236.724 82.084 c 1
 307.251 177.266 461.348 278.101 527.915 291.086 c 0
 529.431 291.382 531.222 291.526 533.27 291.506 c 0
487.358 190.602 m 0
 486.522 190.583 485.692 190.538 484.891 190.471 c 0
 459.25 188.3 319.479 129.424 282.688 73.3955 c 1
 384.699 68.959 537.704 115.385 571.306 144.375 c 0
 573.58 146.338 572.894 153.371 571.254 154.796 c 0
 555.235 168.721 513.276 191.186 487.358 190.602 c 0
EndSplineSet
EndChar

StartChar: taa.medi
Encoding: 65607 -1 82
Width: 450
VWidth: 63
Flags: W
AnchorPoint: "tashkil.below" 282 -126 basechar 0
AnchorPoint: "tashkil.above" 282 447 basechar 0
AnchorPoint: "dot.above" 282 447 basechar 0
AnchorPoint: "dot.below" 282 -126 basechar 0
LayerCount: 2
Fore
SplineSet
79.1182 668.824 m 0
 81.29 668.795 83.5547 667.234 85.2607 663.601 c 0
 96.2139 640.256 101.722 624.42 139.677 594.274 c 0
 141.845 592.55 142.32 588.037 136.58 582.173 c 0
 128.325 573.743 115.197 557.35 107.94 547.995 c 0
 104.449 543.496 102.517 538.345 103.084 532.245 c 0
 106.464 495.881 124.552 324.617 120.803 257.434 c 0
 119.352 231.169 107.787 175.636 103.216 154.455 c 1
 153.103 195.082 215.452 239.552 271.216 264.469 c 0
 295.421 275.285 323.82 282.347 346.921 277.646 c 0
 369.6 273.033 396.702 242.549 409.711 214.856 c 0
 412.761 208.363 412.354 195.945 411.022 189.289 c 0
 405.562 162.021 390.117 125.087 369.68 100.563 c 0
 354.937 82.876 323.934 62.2471 289.616 45.2295 c 1
 342.895 47.3955 397.634 58.6621 449.978 69.6416 c 1
 451.501 -0.787109 l 1
 389.649 -6.34766 270.923 -1.1582 177.556 8.66309 c 1
 136.202 2.13672 82.8125 -0.282227 0 0 c 1
 -0.917969 74.8652 l 1
 4.65039 74.7803 10.1973 74.6309 15.75 74.6553 c 1
 26.8037 87.1865 51.498 110.932 83.4492 138.049 c 1
 91.6924 275.79 69.2236 431.435 52.5527 567.631 c 0
 51.6641 574.889 49.1035 585.494 46.752 592.673 c 0
 45.3701 596.887 44.9355 599.068 46.4629 603.593 c 0
 55.5645 630.556 63.7852 647.784 73.4746 664.913 c 0
 74.8535 667.352 76.9453 668.853 79.1182 668.824 c 0
266.989 191.993 m 0
 263.258 192.016 259.473 191.724 255.649 191.074 c 0
 199.789 181.578 118.175 122.617 71.374 76.7295 c 1
 198.24 84.918 311.495 116.64 356.082 132.432 c 1
 347.713 147.656 311.014 191.721 266.989 191.993 c 0
EndSplineSet
EndChar

StartChar: ayn.medi
Encoding: 65608 -1 83
Width: 312
VWidth: 24
Flags: W
AnchorPoint: "tashkil.below" 147 -123 basechar 0
AnchorPoint: "tashkil.above" 147 450 basechar 0
AnchorPoint: "dot.above" 147 450 basechar 0
AnchorPoint: "dot.below" 147 -123 basechar 0
LayerCount: 2
Fore
SplineSet
312.61 75.9658 m 1
 312.756 -7.31836 l 1
 251.138 -6.51855 207.976 17.0928 154.074 83.2676 c 1
 107.167 53.6221 32.084 7.97949 0 0 c 1
 0.366211 85.3711 l 1
 45.2432 88.8828 59.5713 93.9375 103.146 118.357 c 1
 81.6338 136.812 41.1777 150.846 12.0381 156.032 c 0
 7.10449 156.91 6.61426 160.375 7.69336 166.254 c 0
 15.6855 209.818 78.5605 270.402 142.936 268.086 c 0
 205.787 265.825 278.838 210.253 273.671 172.477 c 0
 269.939 145.188 229.97 123.863 207.878 111.743 c 1
 241.425 89.042 274.067 78.79 312.61 75.9658 c 1
EndSplineSet
Substitution2: "AynYaa.fina-1" ayn.medi_AynYaa.fina
EndChar

StartChar: faa.medi
Encoding: 65609 -1 84
Width: 313
VWidth: 32
Flags: W
AnchorPoint: "tashkil.below" 174 -111 basechar 0
AnchorPoint: "tashkil.above" 261 489 basechar 0
AnchorPoint: "dot.above" 261 489 basechar 0
AnchorPoint: "dot.below" 174 -111 basechar 0
LayerCount: 2
Fore
SplineSet
257.04 341.906 m 0
 260.487 341.938 263.373 341.28 265.624 339.911 c 0
 312.324 311.493 298.231 202.753 276.045 161.621 c 0
 262.305 136.149 251.092 115.167 243.521 104.029 c 1
 267.574 91.4463 290.951 83.5605 313.871 78.9072 c 1
 312.086 0.367188 l 1
 262.321 -1.09961 200.348 23.6543 158.733 43.2861 c 1
 115.769 22.3594 22.21 0.499023 0 0 c 1
 1.18164 84.998 l 1
 28.4053 86.5215 64.6963 96.4795 90.1953 105.84 c 1
 70.9717 223.161 211.468 341.495 257.04 341.906 c 0
219.949 247.958 m 0
 188.215 247.236 139.143 207.38 135.896 200.235 c 0
 127.197 181.089 144.938 137.477 189.525 132.72 c 0
 199.654 131.64 242.984 151.459 251.895 164.771 c 0
 253.191 166.708 255.342 169.271 255.57 171.412 c 0
 259.461 208.021 236.037 245.911 226.039 247.564 c 0
 224.096 247.886 222.064 248.006 219.949 247.958 c 0
EndSplineSet
Substitution2: "FaaYaa.fina-1" faa.medi_FaaYaa.fina
EndChar

StartChar: kaf.medi
Encoding: 65610 -1 85
Width: 411
VWidth: 0
Flags: W
AnchorPoint: "tashkil.above" 72 728 basechar 0
AnchorPoint: "tashkil.below" 184 -128 basechar 0
LayerCount: 2
Fore
SplineSet
73.2383 616.74 m 0
 130.879 662.598 413.395 786.698 657.26 818.881 c 0
 672.506 820.893 678.889 810.086 673.458 800.11 c 2
 648.128 753.579 l 2
 644.589 748.987 640.835 745.894 636.564 746.421 c 1
 416.536 714.917 93.0518 584.144 50.7275 535.698 c 1
 50.7275 535.698 113.715 439.473 180.033 340.655 c 1
 222.747 270.192 295.997 135.449 410.738 96.46 c 1
 411.895 -5.50684 l 1
 354.993 1.2998 297.293 55.1191 260.244 106.543 c 0
 224.496 156.16 189.078 212.451 150.23 259.052 c 1
 141.621 110.937 45.9609 19.1836 0 0 c 1
 0 93.6123 l 1
 32.6729 95.335 84.998 117.374 99.1191 142.346 c 0
 116.093 172.36 114.322 239.766 88.5215 293.627 c 0
 66.3994 339.812 52.2227 377.936 -0.322266 459.841 c 1
 -3.4707 468.947 -7.29883 477.763 -5.50586 488.986 c 0
 6.7373 538.152 40.2881 590.524 73.2383 616.74 c 0
EndSplineSet
Substitution2: "KafYaa.fina-1" kaf.medi_KafYaa.fina
Substitution2: "KafRaa.fina-1" kaf.medi_KafRaa.fina
Substitution2: "KafMeem.fina-1" kaf.medi_KafMeem.fina
Substitution2: "KafMeem.medi-1" kaf.medi_KafMeem.medi
Substitution2: "KafLam.fina-1" kaf.medi_KafLam.fina
Substitution2: "KafLam.medi-1" kaf.medi_KafLam.medi
Substitution2: "KafKaf.fina-1" kaf.medi_KafKaf.fina
Substitution2: "KafHeh.fina-1" kaf.medi_KafHeh.fina
Substitution2: "KafBaa.medi-1" kaf.medi_KafBaa.medi
Substitution2: "KafAlef.fina-1" kaf.medi_KafAlef.fina
EndChar

StartChar: lam.medi
Encoding: 65611 -1 86
Width: 177
VWidth: 0
Flags: W
AnchorPoint: "tashkil.above" 66 738 basechar 0
AnchorPoint: "tashkil.below" 78 -122 basechar 0
LayerCount: 2
Fore
SplineSet
177.276 79.8223 m 1
 176.819 43.2891 176.184 -6.42773 176.107 -12.8496 c 1
 152.164 -8.70605 108.036 29.668 81.4893 125.699 c 0
 79.0029 134.694 77.0586 137.192 74.8691 137.066 c 0
 71.3467 136.864 69.7383 127.645 69.0293 123.362 c 0
 60.9785 74.7627 17.7549 5.16406 0.499023 0 c 1
 -0.623047 5.23145 0.499023 84.8838 0.499023 84.8838 c 1
 45.5195 110.229 64.9238 144.161 65.5254 172.104 c 0
 66.7168 227.526 49.8203 478.803 44.8877 647.532 c 1
 44.8877 647.532 50.79 689.771 66.0361 691.209 c 0
 79.2383 692.455 90.3506 659.612 91.0029 650.258 c 0
 91.7803 639.102 105.531 250.206 113.363 196.645 c 0
 119.914 151.841 138.533 90.2041 177.276 79.8223 c 1
EndSplineSet
Substitution2: "KafLam.medi-1" lam.medi_KafLam.medi
Substitution2: "KafLam.init-1" lam.medi_KafLam.init
Substitution2: "Lellah-1" lam.medi_Lellah.isol
Substitution2: "LamAlef.fina-1" lam_LamAlef.fina
EndChar

StartChar: meem.medi
Encoding: 65612 -1 87
Width: 424
VWidth: 14
Flags: W
AnchorPoint: "tashkil.above" 216 442 basechar 0
AnchorPoint: "tashkil.below" 216 -138 basechar 0
LayerCount: 2
Fore
SplineSet
214.143 223.265 m 0
 216.367 223.295 219.276 222.664 220.102 221.349 c 0
 240.005 189.571 266.925 157.993 297.723 133.49 c 0
 335.699 103.275 379.601 82.9805 423.565 76.1338 c 1
 424.852 -2.69531 l 1
 380.516 2.00879 335.531 17.9541 289.453 52.2725 c 1
 294.294 25.1035 288.938 -15.6816 265.907 -14.1396 c 0
 201.364 -9.82129 133.605 50.3887 103.132 77.9189 c 0
 99.8623 80.8721 99.0635 81.1367 95.3086 78.1553 c 0
 62.4092 52.0254 26.0967 16.8174 -6.88281 -0.0703125 c 1
 0.30957 84.3242 l 1
 24.6895 89.9678 75.2383 99.2568 99.7451 109.498 c 0
 122.323 118.932 147.938 202.857 212.253 223.029 c 0
 212.736 223.18 213.4 223.255 214.143 223.265 c 0
207.554 171.106 m 0
 207.052 171.082 206.478 170.974 205.796 170.765 c 0
 185.739 164.636 171.524 154.014 156.865 138.556 c 0
 153.854 135.381 154.186 132.276 157.783 129.579 c 0
 179.154 113.561 211.798 90.3369 239.343 76.8428 c 0
 242.828 75.1348 245.03 76.4482 244.408 80.4912 c 0
 239.789 110.701 223.32 151.008 212.096 167.3 c 0
 210.465 169.665 209.729 171.208 207.554 171.106 c 0
EndSplineSet
Substitution2: "KafMeem.medi-1" meem.medi_KafMeem.medi
Substitution2: "KafMeem.init-1" meem.medi_KafMeem.init
Substitution2: "BaaMeem.init-1" meem.medi_BaaMeem.init
Substitution2: "preMeem-1" meem.medi_preMeem
EndChar

StartChar: heh.medi
Encoding: 65613 -1 88
Width: 381
VWidth: 14
Flags: W
AnchorPoint: "tashkil.above" 228 450 basechar 0
AnchorPoint: "tashkil.below" 224 -280 basechar 0
LayerCount: 2
Fore
SplineSet
279.641 346.5 m 0
 280.495 346.501 281.277 346.362 281.978 346.08 c 0
 324.579 328.911 313.118 153.768 214.751 80.2197 c 1
 272.655 77.1035 331.597 93.5557 382.436 104.869 c 1
 382.436 19.5039 l 1
 352.232 12.8047 320.321 13.7744 291.638 14.6738 c 1
 327.358 -38.2998 339.568 -179.918 236.302 -196.98 c 0
 195.939 -203.688 130.354 -164.185 115.105 -6.95605 c 1
 88.1475 -3.17578 l 1
 92.584 29.7148 l 1
 62.5254 20.0801 31.6758 6.9375 0 0 c 1
 1.18066 88.6465 l 1
 29.29 93.252 83.7646 105.977 125.055 123.454 c 1
 155.378 213.301 253.176 346.479 279.641 346.5 c 0
237.063 237.405 m 0
 232.511 237.331 228.033 236.408 223.99 234.622 c 0
 181.438 215.828 153.917 155.532 148.995 131.408 c 1
 189.719 150.095 232.929 163.702 265.729 206.22 c 0
 268.065 209.249 269.222 217.062 266.988 221.051 c 0
 260.76 232.177 248.698 237.593 237.063 237.405 c 0
153.011 -11.1826 m 1
 158.618 -27.9639 168.803 -85.668 214.068 -105.289 c 0
 233.505 -113.713 256.548 -117.465 289.222 -95.0781 c 0
 293.731 -91.9883 291.476 -84.7725 288.828 -80.2988 c 0
 272.048 -51.9346 209.383 -20.2012 153.011 -11.1826 c 1
EndSplineSet
Substitution2: "BaaHeh.init-1" heh.medi_BaaHeh.init
EndChar

StartChar: alef.fina
Encoding: 65624 -1 89
Width: 168
VWidth: 0
Flags: W
AnchorPoint: "hamza.above" 56 780 basechar 0
AnchorPoint: "hamza.below" 80 -60 basechar 0
LayerCount: 2
Fore
SplineSet
54.915 718.924 m 2
 63.6123 733.549 68.2666 727.85 71.2979 705.047 c 0
 83.4258 613.822 91.9268 525.305 96.3545 439.835 c 0
 101.494 356.095 105.674 247.166 111.003 188.501 c 0
 116.331 129.835 129.683 112.908 168.605 91.7451 c 1
 168.605 91.7451 168.408 7.25 168.054 0 c 1
 82.3174 3.77832 74.6621 85.9395 70.1416 126.823 c 0
 65.6211 167.707 58.2363 364.707 57.0352 396.661 c 0
 55.834 428.615 32.3506 607.323 21.5703 641.828 c 0
 18.4229 651.903 18.1299 657.069 24.6543 668.041 c 2
 54.915 718.924 l 2
EndSplineSet
Substitution2: "KafAlef.isol-1" alef.fina_KafAlef.isol
Substitution2: "KafAlef.fina-1" alef.fina_KafAlef.fina
Substitution2: "LamAlef.fina-1" alef_LamAlef.fina
Substitution2: "LamAlef.isol-1" alef_LamAlef.isol
EndChar

StartChar: baa.fina
Encoding: 65625 -1 90
Width: 758
VWidth: 0
Flags: W
AnchorPoint: "tashkil.below" 297 -195 basechar 0
AnchorPoint: "tashkil.above" 369 342 basechar 0
AnchorPoint: "dot.above" 369 342 basechar 0
AnchorPoint: "dot.below" 297 -195 basechar 0
LayerCount: 2
Fore
SplineSet
758.321 2.4834 m 1
 721.673 1.9375 662.232 17.2451 637.379 34.0107 c 0
 634.481 35.9648 632.642 36.5615 629.21 34.8535 c 0
 547.698 -5.73438 410.553 -42.6201 268.109 -34.7861 c 0
 105.721 -25.8564 43.5869 22.0264 26.6943 75.9258 c 0
 5.1582 144.643 58.0078 231.493 86.0703 259.158 c 0
 94.4355 267.406 98.4551 257.6 94.376 252.003 c 0
 71.8398 221.084 58.7305 195.183 59.8291 169.9 c 0
 63.9707 74.5137 222.571 52.7227 323.35 49.3945 c 1
 409.139 47.4121 483.988 60.2002 533.452 72.2373 c 0
 608.325 90.459 623.141 111.129 651.402 149.717 c 0
 656.092 156.119 665.898 153.728 664.413 146.525 c 0
 662.624 137.851 660.978 129.967 659.217 121.392 c 0
 658.529 117.171 658.332 114.588 662.698 111.834 c 0
 676.309 103.247 722.718 92.1309 758.321 90.1084 c 1
 758.321 2.4834 l 1
EndSplineSet
EndChar

StartChar: haa.fina
Encoding: 65626 -1 91
Width: 565
VWidth: 0
Flags: W
AnchorPoint: "tashkil.below" 315 -186 basechar 0
AnchorPoint: "tashkil.above" 315 387 basechar 0
AnchorPoint: "dot.above" 315 387 basechar 0
AnchorPoint: "dot.below" 315 -186 basechar 0
LayerCount: 2
Fore
SplineSet
566.405 81.7441 m 1
 566.405 -3.36719 l 1
 486.986 -7.25586 419.223 16.6633 390.172 49.8271 c 0
 372.097 70.4607 379.472 107.152 389.683 138.273 c 1
 330.792 128.307 275.626 113.299 230.635 89.7871 c 0
 125.937 35.0739 77.1157 -67.7011 94.7002 -159.404 c 0
 105.676 -216.643 142.91 -269.732 209.265 -305.525 c 0
 309.441 -359.562 532.217 -364.853 638.657 -336.044 c 0
 649.113 -333.214 653.088 -345.529 644.814 -349.326 c 0
 589.402 -374.756 491.552 -425.342 472.1 -426.077 c 0
 350.604 -427.012 202.961 -415.277 118.558 -343.194 c 0
 38.2422 -274.602 39.3455 -176.54 65.3818 -83.3643 c 0
 91.4227 9.8279 158.544 92.8613 285.172 158.177 c 1
 212.579 189.698 160.519 188.108 92.5391 164.084 c 0
 85.5947 161.63 82.2061 163.543 83.6533 169.516 c 0
 92.2021 204.792 113.79 243.104 153.151 256.014 c 0
 203.419 272.499 253.223 249.684 302.726 237.252 c 0
 385.283 215.373 471.842 208.264 537.393 222.227 c 0
 550.874 225.098 558.317 217.38 555.406 211.664 c 2
 529.356 160.511 l 2
 526.983 155.851 524.128 153.538 519.382 153.186 c 0
 486.846 150.769 454.057 147.62 421.998 143.212 c 1
 421.604 128.92 425.836 115.105 444.753 104.409 c 0
 478.706 85.2111 519.943 79.9951 566.405 81.7441 c 1
EndSplineSet
Substitution2: "BaaHaa.isol-1" haa.fina_BaaHaa.isol
EndChar

StartChar: dal.fina
Encoding: 65627 -1 92
Width: 421
VWidth: 0
Flags: W
AnchorPoint: "tashkil.below" 165 -99 basechar 0
AnchorPoint: "tashkil.above" 291 600 basechar 0
AnchorPoint: "dot.above" 291 600 basechar 0
AnchorPoint: "dot.below" 165 -99 basechar 0
LayerCount: 2
Fore
SplineSet
419.696 90.8086 m 1
 421.547 2.92285 l 1
 397.211 6.69238 372.289 11.0068 351.531 30.5244 c 0
 329.976 50.793 319.353 83.2207 303.595 152.79 c 1
 287.801 109.115 275.317 68.2676 232.559 52.6494 c 0
 203.424 42.0059 123.704 34.2471 71.7754 45.0156 c 0
 27.7305 54.1484 39.2959 115.482 47.1748 150.319 c 0
 49.4951 160.575 55.8145 159.203 58.1465 153.626 c 0
 63.6357 140.501 76.6377 126.818 94.7607 120.979 c 0
 123.714 111.661 200.797 110.789 245.009 124.652 c 0
 265.68 131.134 288.09 157.716 294.807 180.081 c 0
 297.006 187.404 291.985 217.053 286.679 251.857 c 0
 279.635 298.046 271.034 353.489 267.796 379.61 c 0
 266.207 392.43 266.053 398.627 270.898 406.469 c 0
 280.394 421.832 290.219 439.259 299.963 453.608 c 0
 304.727 460.625 308.978 457.143 310.206 446.568 c 0
 322.517 340.598 344.793 152.787 363.265 120.874 c 0
 379.092 93.5303 401.036 91.5361 419.696 90.8086 c 1
EndSplineSet
EndChar

StartChar: raa.fina
Encoding: 65628 -1 93
Width: 308
VWidth: 0
Flags: W
AnchorPoint: "tashkil.below" 213 -285 basechar 0
AnchorPoint: "tashkil.above" 111 288 basechar 0
AnchorPoint: "dot.above" 213 288 basechar 0
AnchorPoint: "dot.below" 213 -285 basechar 0
LayerCount: 2
Fore
SplineSet
228.541 127.728 m 0
 231.486 134.654 234.393 133.407 237.677 129.504 c 0
 266.43 95.3203 279.454 75.9062 308.749 77.1299 c 1
 309.472 59.6016 309.134 10.3643 309.348 -8.86523 c 1
 301.227 -9.58301 289.358 -11.001 280.787 -11.4795 c 0
 279.026 -11.5781 277.399 -12.6797 277.3 -15.7559 c 0
 275.406 -74.6182 254.192 -123.902 216.33 -172.72 c 0
 184.26 -214.491 133.059 -243.756 96.7588 -252.536 c 0
 88.0908 -254.249 72.1123 -255.451 59.9219 -251.889 c 0
 12.9102 -238.151 -42.9932 -213.602 -51.7676 -207.855 c 1
 -58.2842 -204.713 -53.3633 -194.139 -46.0146 -196.385 c 0
 -14.3232 -206.068 14.8311 -211.379 42.1494 -208.007 c 0
 68.5713 -204.745 103.188 -190.131 132.846 -170.934 c 1
 176.137 -140.028 239.135 -82.833 249.841 -32.3369 c 1
 251.028 -21.2002 236.526 7.08984 203.222 40.9189 c 0
 200.852 43.3018 199.16 44.5439 200.429 48.9209 c 0
 208.671 77.3691 217.775 102.416 228.541 127.728 c 0
EndSplineSet
Substitution2: "KafRaa.isol-1" raa.fina_KafRaa.isol
Substitution2: "KafRaa.fina-1" raa.fina_KafRaa.fina
Substitution2: "HaaRaa.isol-1" raa.fina_HaaRaa.isol
Substitution2: "BaaNoon.isol-1" raa.fina_BaaRaa.fina
Substitution2: "BaaNoon.fina-1" raa.fina_BaaRaa.fina
EndChar

StartChar: seen.fina
Encoding: 65629 -1 94
Width: 894
VWidth: 0
Flags: W
AnchorPoint: "tashkil.below" 666 -138 basechar 0
AnchorPoint: "tashkil.above" 642 330 basechar 0
AnchorPoint: "dot.above" 642 330 basechar 0
AnchorPoint: "dot.below" 666 -138 basechar 0
LayerCount: 2
Fore
SplineSet
894.862 74.665 m 1
 894.399 -4.43164 l 1
 847.728 -5.06738 815.829 73.7441 805.82 92.4727 c 0
 804.344 95.2363 799.376 95.6426 798.335 91.9424 c 0
 776.836 15.5303 753.549 -17.6289 724.411 -17.8457 c 0
 703.815 -17.999 661.964 -13.4795 633.002 20.8174 c 0
 631.653 22.4141 630.281 21.3184 629.74 20.7246 c 0
 587.255 -25.916 547.684 -19.8174 518.805 -18.3086 c 1
 516.794 -79.4072 508.764 -127.54 491.741 -167.152 c 0
 450.041 -264.192 305.847 -298.892 214.444 -305.093 c 0
 67.2402 -315.078 7.21875 -210.176 27.6953 -106.401 c 0
 39.4746 -46.708 72.4951 13.7383 94.5625 49.4951 c 0
 100.544 59.1885 115.313 56.5791 107.131 42.749 c 0
 76.8857 -8.36914 60.3809 -51.332 62.9307 -89.5898 c 0
 67.9326 -164.648 143.047 -214.877 231.096 -211.656 c 0
 313.149 -208.655 422.271 -185.128 483.024 -100.337 c 0
 484.583 -98.1621 484.69 -94.9219 484.656 -91.0625 c 0
 484.332 -53.8555 469.122 3.11816 440.916 49.7178 c 0
 438.848 53.1338 439.215 57.1016 439.99 59.3076 c 2
 464.58 129.266 l 2
 465.458 131.765 467.496 134.905 470.694 130.776 c 0
 481.729 116.528 491.211 101.629 500.071 83.2227 c 0
 509.849 62.9111 551.542 60.8604 570.627 63.0273 c 0
 626.661 67.4248 639.345 86.7051 665.897 133.409 c 0
 672.458 144.92 685.993 137.124 683.012 128.784 c 0
 680.06 120.525 671.821 106.08 689.719 95.9424 c 0
 705.404 87.0586 740.637 72.7559 763.959 85.3037 c 0
 776.891 92.2607 787.773 135.161 799.113 160.237 c 0
 804.303 171.715 812.295 168.025 817.153 159.544 c 0
 835.155 128.052 860.991 89.7539 894.862 74.665 c 1
EndSplineSet
EndChar

StartChar: sad.fina
Encoding: 65630 -1 95
Width: 1026
VWidth: 3
Flags: W
AnchorPoint: "tashkil.below" 744 -138 basechar 0
AnchorPoint: "tashkil.above" 663 354 basechar 0
AnchorPoint: "dot.above" 663 354 basechar 0
AnchorPoint: "dot.below" 744 -138 basechar 0
LayerCount: 2
Fore
SplineSet
914.084 290.139 m 0
 946.911 289.689 988.075 265.602 1003.67 212.911 c 0
 1005.17 207.849 1005.79 203.257 1005.2 198.105 c 0
 1001.24 163.785 973.07 107.926 960.179 93.4473 c 0
 945.348 76.79 924.134 62.4932 898.832 50.5811 c 1
 942.389 45.7998 993.959 54.5615 1027.12 57.9834 c 1
 1025.41 -6.64453 l 1
 932.946 -24.6562 815.014 -10.0869 753.46 11.127 c 1
 741.539 9.53223 729.575 8.24707 717.654 7.26855 c 0
 647.539 1.51367 579.363 7.85156 535.742 17.7422 c 1
 526.114 -60.0547 503.724 -132.571 475.893 -165.299 c 0
 410.224 -242.629 269.189 -268.046 237.91 -268.199 c 0
 158.392 -267.696 117.342 -261.302 70.9863 -216.276 c 0
 -28.2617 -119.86 65.2354 78.3828 106.817 123.845 c 0
 122.452 140.938 125.112 124.245 118.84 116.652 c 0
 63.7559 49.9658 22.0039 -163.137 228.066 -176.823 c 0
 282.541 -180.441 455.961 -156.261 494.818 -59.2227 c 0
 497.037 -53.9502 496.519 -51.2988 495.947 -46.4395 c 0
 486.162 16.8555 471.278 55.3281 449.59 85.3623 c 0
 446.202 90.0537 441.881 93.9238 444.629 101.217 c 2
 472.401 175.006 l 2
 477.151 187.614 484.986 182.75 488.335 177.105 c 2
 521.646 120.957 l 1
 544.432 106.939 585.234 100.258 623.181 98.8809 c 1
 718.817 195.851 848.72 290.308 910.96 290.112 c 0
 912 290.146 913.024 290.153 914.084 290.139 c 0
858.512 192.829 m 0
 847.271 192.645 836.45 190.941 826.198 188.288 c 0
 771.171 174.051 711.821 130.042 666.047 94.9961 c 1
 767.454 89.1211 878.137 100.826 950.361 155.108 c 1
 918.697 183.861 887.238 193.301 858.512 192.829 c 0
EndSplineSet
EndChar

StartChar: taa.fina
Encoding: 65631 -1 96
Width: 649
VWidth: 0
Flags: W
AnchorPoint: "tashkil.below" 435 -147 basechar 0
AnchorPoint: "tashkil.above" 435 426 basechar 0
AnchorPoint: "dot.above" 435 426 basechar 0
AnchorPoint: "dot.below" 435 -147 basechar 0
LayerCount: 2
Fore
SplineSet
277.592 672.879 m 0
 279.765 672.851 282.029 671.289 283.734 667.655 c 0
 294.688 644.311 300.197 628.475 338.15 598.329 c 0
 340.319 596.604 340.795 592.092 335.053 586.228 c 0
 326.8 577.798 313.673 561.404 306.414 552.051 c 0
 302.924 547.551 300.991 542.4 301.559 536.301 c 0
 304.938 499.936 323.026 328.672 319.277 261.489 c 0
 317.826 235.224 306.261 179.69 301.689 158.511 c 1
 351.577 199.137 413.927 243.607 469.689 268.524 c 0
 493.896 279.341 522.295 286.402 545.395 281.701 c 0
 568.074 277.087 595.178 246.604 608.185 218.911 c 0
 611.235 212.418 610.83 200 609.497 193.344 c 0
 604.037 166.077 588.591 129.142 568.153 104.619 c 0
 553.411 86.9307 522.408 66.3027 488.091 49.2842 c 1
 541.369 51.4502 596.108 62.7178 648.452 73.6963 c 1
 649.975 3.26758 l 1
 588.124 -2.29297 496.218 0.280273 402.85 10.1006 c 1
 362.306 3.70215 214.707 -9.73145 117.086 -2.03125 c 0
 112.943 -1.70312 110.238 -0.794922 106.781 1.88184 c 0
 80.585 22.1641 47.8975 57.6406 31.6709 79.5752 c 0
 29.2373 82.8643 29.5049 87.8623 35.9805 86.4434 c 0
 84.0137 75.9111 203.999 74.7207 214.225 78.71 c 1
 225.277 91.2412 249.973 114.987 281.923 142.104 c 1
 290.167 279.845 267.699 435.489 251.027 571.686 c 0
 250.139 578.943 247.578 589.549 245.226 596.728 c 0
 243.845 600.941 243.41 603.124 244.937 607.647 c 0
 254.039 634.61 262.26 651.84 271.948 668.968 c 0
 273.328 671.406 275.42 672.908 277.592 672.879 c 0
465.463 196.048 m 0
 461.732 196.07 457.946 195.778 454.123 195.129 c 0
 398.263 185.632 316.65 126.672 269.848 80.7842 c 1
 396.714 88.9736 509.97 120.694 554.556 136.486 c 1
 546.188 151.711 509.488 195.775 465.463 196.048 c 0
EndSplineSet
EndChar

StartChar: ayn.fina
Encoding: 65632 -1 97
Width: 421
VWidth: 0
Flags: W
AnchorPoint: "tashkil.below" 258 -195 basechar 0
AnchorPoint: "tashkil.above" 258 378 basechar 0
AnchorPoint: "dot.above" 258 378 basechar 0
AnchorPoint: "dot.below" 258 -195 basechar 0
LayerCount: 2
Fore
SplineSet
271.028 234.924 m 0
 272.852 234.926 274.685 234.896 276.515 234.818 c 0
 302.236 233.752 328.996 224.735 356.079 209.487 c 0
 377.458 196.575 394.75 179.056 392.934 161.477 c 0
 389.885 131.964 360.116 109.987 338.675 97.0059 c 0
 336.095 95.4443 337.861 92.4414 340.119 91.0215 c 0
 366.173 74.6387 395.495 67.085 419.105 66.2939 c 1
 421.074 -14.4775 l 1
 373.267 -18.709 312.43 27.6553 264.581 66.7656 c 0
 260.848 69.8164 257.522 69.0283 252.809 66.8701 c 0
 237.932 60.0605 221.508 49.5723 205.771 39.3613 c 0
 115.513 -19.2051 78.6123 -97.249 65.0977 -177.358 c 0
 49.416 -270.315 100.039 -368.014 226.798 -394.551 c 0
 358.532 -422.031 475.609 -417.206 599.81 -409.487 c 0
 612.276 -408.713 615.204 -416.56 602.645 -424.634 c 0
 566.265 -448.021 459.625 -488.098 415.246 -490.049 c 0
 359.92 -492.456 271.808 -488.674 207.058 -472.934 c 0
 30.0225 -429.896 23.4854 -274.472 43.0742 -171.216 c 0
 64.7812 -56.7871 114.835 20.4824 179.6 77.6865 c 0
 190.135 86.9902 198.453 95.0654 209.719 103.097 c 0
 211.837 104.606 213.007 107.316 210.438 109.594 c 0
 195.93 122.456 180.035 130.063 155.188 132.522 c 0
 148.884 133.15 132.918 134.676 136.523 148.403 c 0
 142.792 172.264 162.373 195.325 188.079 210.879 c 1
 217.084 226.236 243.687 234.9 271.028 234.924 c 0
EndSplineSet
EndChar

StartChar: faa.fina
Encoding: 65633 -1 98
Width: 899
VWidth: 23
Flags: W
AnchorPoint: "tashkil.below" 750 -99 basechar 0
AnchorPoint: "tashkil.above" 750 474 basechar 0
AnchorPoint: "dot.above" 750 474 basechar 0
AnchorPoint: "dot.below" 750 -99 basechar 0
LayerCount: 2
Fore
SplineSet
760.184 327.274 m 0
 807.217 328.224 871.086 235.88 800.188 98.6367 c 1
 828.559 91.1523 870.234 87.2109 900.044 92.2051 c 1
 900.411 1.22266 l 1
 813.251 0.0126953 771.391 17.4326 737.294 28.6807 c 1
 613.144 -77.3809 215.663 -128.014 72.5127 -23.8457 c 0
 -17.8867 41.9355 46.0283 163.339 88.9189 232.879 c 0
 95.1475 242.978 111.532 236.129 105.876 223.639 c 0
 82.7441 172.562 62.9941 110.474 139.896 53.5654 c 0
 237.167 -18.416 587.17 26.7305 652.689 78.2139 c 1
 596.025 122.126 703.727 326.122 760.184 327.274 c 0
744.066 231.12 m 0
 728.072 231.546 703.015 209.588 681.801 166.021 c 1
 687.77 146.688 705.829 119.758 730.652 119.217 c 0
 746.123 118.866 779.254 142.663 789.399 150.69 c 1
 783.088 176.296 779.828 226.855 745.589 231.016 c 0
 745.092 231.076 744.582 231.106 744.066 231.12 c 0
EndSplineSet
EndChar

StartChar: qaf.fina
Encoding: 65634 -1 99
Width: 598
VWidth: 0
Flags: MW
AnchorPoint: "tashkil.below" 273 -390 basechar 0
AnchorPoint: "tashkil.above" 456 351 basechar 0
AnchorPoint: "dot.above" 456 351 basechar 0
AnchorPoint: "dot.below" 273 -390 basechar 0
LayerCount: 2
Fore
SplineSet
468.928 221.894 m 0
 492.416 221.987 508.305 199.079 516.174 190.044 c 0
 536.684 166.495 553.371 124.923 559.603 77.0654 c 1
 571.576 77.8066 584.497 78.9453 598.48 80.5996 c 1
 598.48 0 l 1
 586.452 -0.563477 573.578 -1.03125 560.052 -1.42383 c 1
 557.021 -19.8057 553.54 -38.7881 546.968 -56.5498 c 0
 487.49 -225.534 329.187 -280.774 253.452 -286.365 c 0
 101.381 -297.487 38.9473 -233.204 20.1025 -168.959 c 0
 -12.2871 -58.5381 42.5977 28.7646 93.7959 113.831 c 0
 103.708 130.3 116.871 117.21 108.868 104.487 c 0
 66.6846 37.4326 23.79 -39.4473 79.4551 -126.912 c 0
 97.1572 -154.727 132.827 -178.712 185.446 -186.144 c 0
 267.154 -197.685 475.602 -152.242 524.705 -55.9814 c 0
 526.641 -52.1875 525.812 -45.5469 525.274 -41.5186 c 0
 523.712 -29.8291 520.891 -16.2783 517.23 -2.07227 c 1
 462.487 -1.79688 408.81 3.03027 388.408 20.7598 c 0
 330.558 71.0322 439.732 221.775 468.928 221.894 c 0
482.504 94.2578 m 0
 470.792 121.594 458.701 136.431 421.764 130.34 c 0
 416.761 129.516 416.405 122.558 417.693 117.329 c 0
 421.797 100.686 436.107 81.0264 477.883 83.0488 c 0
 483.507 83.3213 484.742 89.5801 482.504 94.2578 c 0
EndSplineSet
EndChar

StartChar: kaf.fina
Encoding: 65635 -1 100
Width: 731
VWidth: 0
Flags: MW
AnchorPoint: "tashkil.above" 338 656 basechar 0
AnchorPoint: "tashkil.below" 322 -142 basechar 0
LayerCount: 2
Fore
SplineSet
376.551 537.287 m 1
 381.747 537.16 381.297 534.863 379.822 530.746 c 2
 358.234 478.413 l 2
 354.621 469.652 351.283 471.637 348.422 470.563 c 0
 323.429 461.183 305.667 449.552 302.633 433.931 c 0
 297.203 405.982 335.013 408.716 365.431 406.457 c 1
 407.838 405.33 395.14 366.842 392.578 359.685 c 0
 383.057 333.086 352.374 288.871 328.831 282.858 c 0
 303.143 276.298 254.673 276.049 215.956 272.029 c 0
 211.745 271.591 211.888 276.258 214.648 277.262 c 0
 257.659 292.909 320.715 315.848 342.208 327.304 c 0
 347.666 330.214 353.349 335.394 345.479 336.789 c 2
 302.305 342.677 l 2
 273.889 346.552 260.735 367.388 265.672 388.14 c 0
 281.47 454.533 334.86 519.501 376.551 537.287 c 1
626.882 631.782 m 0
 639.205 492.194 640.282 356.905 662.962 219.183 c 0
 679.559 118.401 722.412 96.1699 731.42 95.2178 c 1
 730.607 -0.598633 l 1
 694.901 8.27246 645.16 26.9199 630.352 165.758 c 1
 612.093 122.251 571.881 62.8135 529.432 40.8555 c 0
 458.393 4.10742 385.858 -8.75098 307.716 -11.3477 c 0
 170.962 -15.8906 108.132 19.708 82.917 67.4648 c 0
 43.6436 141.853 113.447 249.224 126.939 262.177 c 0
 136.918 271.757 151.725 266.577 138.808 248.954 c 0
 115.146 216.673 105.732 180.97 107.896 163.677 c 0
 116.422 95.0752 217.172 71.877 293.843 71.166 c 0
 326.205 70.8633 535.646 83.6553 594.504 168.302 c 0
 624.259 211.095 582.317 374.016 580.164 570.262 c 0
 580.117 574.61 580.149 577.767 581.552 579.976 c 2
 615.781 633.864 l 2
 620.892 641.909 626.517 635.908 626.882 631.782 c 0
EndSplineSet
Substitution2: "KafKaf.fina-1" kaf.fina_KafKaf.fina
EndChar

StartChar: lam.fina
Encoding: 65636 -1 101
Width: 510
VWidth: 0
Flags: MW
AnchorPoint: "tashkil.above" 152 404 basechar 0
AnchorPoint: "tashkil.below" 224 -430 basechar 0
LayerCount: 2
Fore
SplineSet
326.189 480.595 m 1
 332.625 497.44 340.227 517.748 346.079 529.163 c 1
 359.307 547.203 363.495 511.686 366.895 491.696 c 0
 387.103 372.863 402.578 206.674 441.365 144.317 c 0
 458.058 117.482 481.971 85.1299 510.748 68.458 c 1
 510.744 48.6201 511.714 9.02148 511.211 -0.370117 c 1
 469.121 -0.370117 425.298 49.667 414.074 68.9209 c 1
 421.186 -6.60254 434.81 -84.4941 421.938 -161.432 c 0
 415.282 -198.367 401.644 -227.844 375.976 -250.121 c 0
 329.049 -290.849 244.788 -321.873 186.961 -323.788 c 0
 138.786 -325.385 96.9707 -304.288 70.7871 -275.322 c 0
 40.9688 -242.335 25.8105 -202.94 33.3926 -146.63 c 0
 38.3223 -110.014 66.4727 -30.8027 110.639 25.9033 c 0
 118.219 35.6348 135.148 24.8643 123.128 5.64258 c 0
 82.1172 -59.9336 61.4395 -101.025 83.8105 -161.895 c 0
 98.7246 -202.473 136.455 -231.704 227.665 -230.522 c 0
 300.188 -229.583 358.816 -192.771 404.824 -147.093 c 1
 324.339 438.039 l 2
 321.557 455.96 323.126 469.264 326.189 480.595 c 1
EndSplineSet
Substitution2: "KafLam.fina-1" lam.fina_KafLam.fina
Substitution2: "KafLam.isol-1" lam.fina_KafLam.isol
EndChar

StartChar: meem.fina
Encoding: 65637 -1 102
Width: 449
VWidth: -30
Flags: MW
AnchorPoint: "tashkil.above" 208 318 basechar 0
AnchorPoint: "tashkil.below" 268 -240 basechar 0
LayerCount: 2
Fore
SplineSet
211.156 183.25 m 0
 214.095 183.373 217.118 181.103 220.868 176.688 c 0
 283.952 102.42 383.371 83.3076 446.094 81.1113 c 1
 450.162 -0.867188 l 1
 407.651 -1.14648 349.717 12.7725 303.897 36.3027 c 0
 300.863 37.8604 299.381 36.6865 299.487 34.0713 c 0
 301.099 -5.96387 297.856 -62.5234 266.885 -87.9912 c 0
 261.025 -92.8086 254.341 -95.834 242.314 -87.2031 c 0
 220.172 -71.3125 184.955 -13.7949 181.362 51.5273 c 1
 150.485 55.5059 97.9355 17.1963 85.707 0.288086 c 0
 66.4443 -26.3457 153.878 -400.873 135.215 -478.644 c 0
 124.976 -521.309 106.18 -515.538 105.105 -483.578 c 0
 102.187 -396.726 76.2041 -295.53 61.3213 -200 c 0
 44.377 -91.2422 41.9961 -22.3438 65.9932 38.4551 c 0
 89.5811 98.2188 140.443 129.108 189.264 149.072 c 1
 192.439 158.682 196.583 167.593 201.89 175.454 c 0
 205.365 180.604 208.216 183.127 211.156 183.25 c 0
EndSplineSet
Substitution2: "KafMeem.fina-1" meem.fina_KafMeem.fina
Substitution2: "KafMeem.isol-1" meem.fina_KafMeem.isol
Substitution2: "SeenMeem-1" meem.fina_SeenMeem.fina
Substitution2: "BaaMeem.fina-1" meem.fina_BaaMeem.fina
EndChar

StartChar: noon.fina
Encoding: 65638 -1 103
Width: 537
VWidth: 0
Flags: MW
AnchorPoint: "tashkil.below" 258 -390 basechar 0
AnchorPoint: "tashkil.above" 258 183 basechar 0
AnchorPoint: "dot.above" 258 183 basechar 0
AnchorPoint: "dot.below" 258 -390 basechar 0
LayerCount: 2
Fore
SplineSet
455.143 129.279 m 0
 463.199 116.253 471.015 104.513 478.458 87.7891 c 0
 480.685 82.7852 484.394 80.6143 490.085 77.7236 c 0
 499.018 73.1855 521.637 71.6816 537.782 71.6963 c 1
 537.782 71.6963 539.202 -2.83496 535.884 -3.58496 c 0
 522.702 -6.56152 487.41 -12.9395 487.41 -12.9395 c 1
 476.067 -79.0439 463.788 -132.195 441.43 -169.486 c 0
 386.14 -261.705 271.482 -296.305 171.913 -291.019 c 0
 112.954 -287.903 78.7041 -268.975 49.25 -231.838 c 0
 -3.9541 -164.757 25.5371 -54.627 91.5723 42.5342 c 0
 97.9434 51.9092 110.264 42.3994 103.229 34.2275 c 0
 76.7139 3.43066 0.457031 -162.941 159.157 -201.728 c 0
 239.28 -221.309 359.554 -208.682 423.81 -144.985 c 0
 427.905 -140.926 432.968 -134.157 434.729 -126.051 c 0
 448.61 -62.4707 440.722 2.91211 418.777 51.6387 c 0
 416.648 56.3662 411.572 60.5791 414.376 66.6973 c 2
 442.765 128.651 l 2
 447.56 139.115 451.626 134.967 455.143 129.279 c 0
EndSplineSet
Substitution2: "BaaNoon.isol-1" noon.fina_BaaNoon.isol
Substitution2: "BaaNoon.fina-1" noon.fina_BaaNoon.fina
EndChar

StartChar: heh.fina
Encoding: 65639 -1 104
Width: 332
VWidth: 0
Flags: MW
AnchorPoint: "curs" 332.402 53.7324 entry 0
AnchorPoint: "tashkil.below" 117 -93 basechar 0
AnchorPoint: "tashkil.above" 117 480 basechar 0
AnchorPoint: "dot.above" 117 480 basechar 0
AnchorPoint: "dot.below" 117 -93 basechar 0
LayerCount: 2
Fore
SplineSet
332.949 1.64453 m 1
 300.278 -0.488281 270.898 10.1064 259.997 35.1504 c 0
 248.325 61.9648 240.336 95.5234 234.482 131.986 c 1
 221.99 110.41 210.768 87.2852 188.046 78.9883 c 0
 161.477 69.2861 92.4014 81.3633 58.1875 93.3994 c 0
 47.9746 96.9922 37.8164 110.294 39.6279 121.461 c 0
 44.3506 150.569 49.9043 184.619 68.0049 201.312 c 0
 100.189 230.998 169.457 262.856 218.496 289.565 c 1
 216.532 315.438 214.599 340.248 212.17 362.593 c 0
 211.377 369.877 211.38 375.437 216.134 381.86 c 2
 239.522 413.466 l 2
 240.732 415.102 241.693 415.897 242.488 415.854 c 0
 243.813 415.782 244.677 413.374 245.35 408.636 c 0
 259.226 310.892 270.217 160.373 286.063 125.477 c 0
 294.804 106.229 312.73 96.4209 332.835 94.6846 c 1
 332.949 1.64453 l 1
221.594 249.219 m 1
 177.172 230.171 127.243 203.943 98.6387 181.153 c 0
 94.748 178.054 96.9453 174.253 101.211 171.913 c 0
 118.523 162.42 177.099 153.082 216.501 162.726 c 0
 221.446 163.937 225.625 166.185 229.285 169.131 c 1
 226.098 195.463 223.709 222.564 221.594 249.219 c 1
EndSplineSet
Substitution2: "KafHeh.isol-1" heh.fina_KafHeh.isol
Substitution2: "KafHeh.fina-1" heh.fina_KafHeh.fina
Substitution2: "Lellah-1" heh.fina_Lellah.isol
EndChar

StartChar: waw.fina
Encoding: 65640 -1 105
Width: 303
VWidth: 0
Flags: MW
AnchorPoint: "tashkil.below" 219 -237 basechar 0
AnchorPoint: "tashkil.above" 219 336 basechar 0
AnchorPoint: "hamza.above" 219 336 basechar 0
AnchorPoint: "dot.above" 219 336 basechar 0
AnchorPoint: "dot.below" 219 -237 basechar 0
LayerCount: 2
Fore
SplineSet
227.857 189.219 m 0
 228.691 189.24 229.512 189.207 230.326 189.156 c 0
 260.145 187.28 284.101 133.971 290.607 76.8438 c 0
 290.6 76.8213 290.584 76.8037 290.576 76.7812 c 2
 290.639 76.7812 l 2
 290.634 76.8037 290.61 76.8223 290.607 76.8438 c 1
 294.979 77.1006 299.286 77.3652 303.451 77.6562 c 1
 303.014 0.4375 l 1
 296.304 0.351562 290.989 -0.21582 287.139 0 c 1
 286.482 -2.98535 285.789 -5.8623 285.014 -8.625 c 0
 233.73 -191.449 112.285 -231.648 68.9199 -236.031 c 0
 33.2871 -239.633 -17.4395 -202.069 -45.9863 -182.875 c 0
 -58.8916 -174.197 -49.7061 -167.18 -41.2363 -171.562 c 0
 62.0586 -225.005 213.485 -115.882 266.132 -3.97363 c 0
 266.755 -2.63086 266.523 0.350586 263.897 0.111328 c 0
 233.267 0.173828 191.256 2.61328 164.701 18.3438 c 0
 145.534 29.6982 135.693 64.335 151.857 109.719 c 0
 167.463 153.534 202.007 188.564 227.857 189.219 c 0
245.136 85.3398 m 0
 232.742 113.521 206.339 134.431 180.951 106.844 c 0
 177.482 103.074 179.989 101.107 182.951 97.25 c 0
 192.145 85.2803 217.72 79.9678 241.04 78.9893 c 0
 242.945 78.9092 247.26 80.5088 245.136 85.3398 c 0
EndSplineSet
EndChar

StartChar: yaa.fina
Encoding: 65641 -1 106
Width: 582
VWidth: 0
Flags: MW
AnchorPoint: "tashkil.below" 303 -450 basechar 0
AnchorPoint: "tashkil.above" 309 162 basechar 0
AnchorPoint: "hamza.above" 130 193 basechar 0
AnchorPoint: "dot.above" 309 162 basechar 0
AnchorPoint: "dot.below" 303 -450 basechar 0
LayerCount: 2
Fore
SplineSet
136.767 128.643 m 0
 142.893 128.846 144.933 120.465 139.985 113.924 c 0
 111.878 76.7559 36.9414 -31.4092 74.0166 -123.42 c 0
 95.1865 -175.956 150.378 -240.925 276.548 -235.17 c 0
 383.484 -230.292 504.658 -204.393 593.392 -133.139 c 0
 598.836 -128.767 596.521 -125.595 591.454 -121.139 c 0
 575.524 -107.124 530.398 -103.694 483.596 -95.8447 c 0
 452.479 -90.626 414.477 -83.0322 396.5 -67.583 c 0
 380.383 -53.7324 398.611 -25.4092 411.485 -6.66992 c 0
 450.342 49.8896 538.968 86.9004 584.416 88.0781 c 1
 581.485 4.73633 l 1
 560.063 2.95117 520.96 1.19824 485.864 -8.23535 c 0
 481.116 -9.51172 479.385 -12.5312 485.092 -13.833 c 0
 551.91 -29.0664 625.688 -24.5928 638.892 -73.2949 c 0
 647.021 -103.278 618.38 -191.151 600.079 -211.264 c 0
 539.937 -277.361 375.135 -330.325 265.61 -330.17 c 0
 54.1768 -329.87 3.01367 -224.476 24.9854 -89.9199 c 0
 35.7754 -23.8438 74.9004 73.1006 127.86 123.861 c 0
 131.335 127.191 134.37 128.563 136.767 128.643 c 0
EndSplineSet
Substitution2: "KafYaa.fina-1" yaa.fina_KafYaa.fina
Substitution2: "KafYaa.isol-1" yaa.fina_KafYaa.isol
Substitution2: "HaaYaa.isol-1" yaa.fina_HaaYaa.isol
Substitution2: "FaaYaa.isol-1" yaa.fina_FaaYaa.isol
Substitution2: "FaaYaa.fina-1" yaa.fina_FaaYaa.fina
Substitution2: "BaaYaa.isol-1" yaa.fina_BaaYaa.isol
Substitution2: "AynYaa.fina-1" yaa.fina_AynYaa.fina
Substitution2: "AynYaa.isol-1" yaa.fina_AynYaa.isol
EndChar

StartChar: uni060C
Encoding: 1548 1548 108
Width: 412
VWidth: 0
Flags: W
LayerCount: 2
Fore
SplineSet
163.064 143.778 m 0
 189.313 159.183 204.407 168.328 223.661 168.967 c 0
 300.574 171.519 322.667 94.6133 307.797 57.1631 c 0
 296.024 27.5127 273.786 5.49023 233.808 -0.742188 c 0
 211.15 -4.27441 177.613 4.51562 160.33 20.6543 c 0
 129.306 49.626 93.3066 120.937 101.069 207.421 c 0
 107.944 284.358 156.023 362.696 224.714 420.313 c 0
 238.75 432.087 260.841 416.915 241.746 397.742 c 0
 223.279 379.199 144.086 305.13 136.676 236.134 c 0
 133.334 205.02 133.776 176.345 150.293 148.07 c 0
 153.898 141.898 157.174 140.321 163.064 143.778 c 0
EndSplineSet
EndChar

StartChar: colon
Encoding: 58 58 109
Width: 338
VWidth: 0
Flags: W
LayerCount: 2
Fore
SplineSet
236.24 484.363 m 0
 236.24 484.351 236.24 484.33 236.24 484.317 c 0
 236.24 446.715 205.723 416.197 168.12 416.197 c 0
 130.519 416.197 100 446.715 100 484.317 c 0
 100 484.33 100 484.351 100 484.363 c 0
 100 484.367 100 484.373 100 484.377 c 0
 100 521.979 130.519 552.496 168.12 552.496 c 0
 205.723 552.496 236.24 521.979 236.24 484.377 c 0
 236.24 484.373 236.24 484.367 236.24 484.363 c 0
238.577 68.1201 m 0
 238.577 68.1074 238.577 68.0869 238.577 68.0742 c 0
 238.577 30.4717 208.059 -0.0458984 170.457 -0.0458984 c 0
 132.854 -0.0458984 102.337 30.4717 102.337 68.0742 c 0
 102.337 68.0869 102.337 68.1074 102.337 68.1201 c 0
 102.337 68.124 102.337 68.1299 102.337 68.1338 c 0
 102.337 105.736 132.854 136.254 170.457 136.254 c 0
 208.059 136.254 238.577 105.736 238.577 68.1338 c 0
 238.577 68.1299 238.577 68.124 238.577 68.1201 c 0
EndSplineSet
EndChar

StartChar: alef_LamAlef.isol
Encoding: 65652 -1 110
Width: 536
VWidth: 0
Flags: MW
AnchorPoint: "tashkil.above" 72 830 basechar 0
AnchorPoint: "tashkil.below" 316 -94 basechar 0
AnchorPoint: "hamza.below" 316 -94 basechar 0
AnchorPoint: "hamza.above" 72 830 basechar 0
AnchorPoint: "madda.above" 72 830 basechar 0
AnchorPoint: "curs" 386 88 entry 0
LayerCount: 2
Back
SplineSet
468.562 155.25 m 1
 453.478 132.923 434.623 109.796 415.875 87.4688 c 1
 431.646 87.752 472.639 92.4141 484.344 97.25 c 1
 482.312 122.569 475.65 139.32 468.562 155.25 c 1
556.031 771.656 m 0
 560.196 771.968 564.375 769.173 566.5 764.688 c 0
 576.807 742.938 587.243 721.748 602.969 704.969 c 0
 612.192 695.127 609.533 680.151 602.594 673.906 c 2
 571.469 645.875 l 1
 581.646 471.855 552.549 333.911 497.344 205 c 1
 513.418 160.866 531.939 108.222 533.531 70.5938 c 0
 534.873 38.8682 516.558 8.12891 504.594 4.5625 c 0
 457.994 -9.33008 315.203 -9.52148 299 -8.09375 c 0
 290.889 -7.37891 282.61 -2.41602 279.156 3.21875 c 0
 267.882 21.6084 272.52 66.4746 282.062 78.3125 c 0
 284.708 81.5938 293.479 88.6387 296.312 88.4062 c 0
 310.43 87.2471 335.753 84.5801 344.969 87.0938 c 1
 389.508 113.162 423.487 158.062 451.531 200.625 c 1
 385.811 326.938 251.873 491.795 191.531 545.281 c 1
 176.312 534.844 l 2
 169.52 530.18 158.675 529.859 150.938 538.406 c 2
 78.375 618.562 l 2
 68.3916 629.592 63.0215 637.631 65.2812 658.344 c 2
 74.625 744 l 2
 76.8281 764.195 92.627 759.89 99.625 752.594 c 0
 162.35 687.201 366.597 495.859 477.094 248.438 c 1
 530.251 346.261 534.615 539.045 520.062 686.375 c 1
 523.188 717.5 l 1
 529.629 737.565 538.854 753.806 549 767.438 c 0
 551.021 770.154 553.532 771.47 556.031 771.656 c 0
EndSplineSet
Fore
SplineSet
416.689 87.4688 m 1
 432.461 87.752 473.453 92.4141 485.158 97.25 c 1
 483.127 122.569 476.465 139.32 469.377 155.25 c 1
 452.346 200.625 l 1
 386.625 326.938 252.688 491.795 192.347 545.281 c 1
 177.128 534.844 l 2
 170.335 530.18 159.49 529.859 151.753 538.406 c 2
 79.1904 618.562 l 2
 69.207 629.592 63.8369 637.631 66.0967 658.344 c 2
 75.4404 744 l 2
 77.6436 764.195 93.4424 759.89 100.44 752.594 c 0
 163.165 687.201 367.412 495.859 477.908 248.438 c 1
 498.158 205 l 1
 514.232 160.866 532.754 108.222 534.346 70.5938 c 0
 535.688 38.8682 517.373 8.12891 505.408 4.5625 c 0
 458.809 -9.33008 316.018 -9.52148 299.815 -8.09375 c 0
 291.704 -7.37891 283.426 -2.41602 279.972 3.21875 c 0
 268.697 21.6084 273.335 66.4746 282.878 78.3125 c 0
 285.523 81.5938 294.295 88.6387 297.128 88.4062 c 0
 311.245 87.2471 336.568 84.5801 345.783 87.0938 c 1
 416.689 87.4688 l 1
EndSplineSet
EndChar

StartChar: lam_LamAlef.isol
Encoding: 65653 -1 111
Width: 183
VWidth: 0
Flags: MW
AnchorPoint: "tashkil.above" 70 894 basechar 0
AnchorPoint: "tashkil.below" 70 -100 basechar 0
AnchorPoint: "curs" -90 88 exit 0
LayerCount: 2
Back
SplineSet
-7.4375 155.25 m 1
 -22.5225 132.923 -41.377 109.796 -60.125 87.4688 c 1
 -44.3535 87.752 -3.36133 92.4141 8.34375 97.25 c 1
 6.31152 122.569 -0.349609 139.32 -7.4375 155.25 c 1
80.0312 771.656 m 0
 84.1963 771.968 88.375 769.173 90.5 764.688 c 0
 100.807 742.938 111.243 721.748 126.969 704.969 c 0
 136.192 695.127 133.533 680.151 126.594 673.906 c 2
 95.4688 645.875 l 1
 105.647 471.855 76.5488 333.911 21.3438 205 c 1
 37.418 160.866 55.9395 108.222 57.5312 70.5938 c 0
 58.873 38.8682 40.5576 8.12891 28.5938 4.5625 c 0
 -18.0059 -9.33008 -160.797 -9.52148 -177 -8.09375 c 0
 -185.111 -7.37891 -193.39 -2.41602 -196.844 3.21875 c 0
 -208.118 21.6084 -203.48 66.4746 -193.938 78.3125 c 0
 -191.292 81.5938 -182.521 88.6387 -179.688 88.4062 c 0
 -165.57 87.2471 -140.247 84.5801 -131.031 87.0938 c 1
 -86.4922 113.162 -52.5127 158.062 -24.4688 200.625 c 1
 -90.1895 326.938 -224.127 491.795 -284.469 545.281 c 1
 -299.688 534.844 l 2
 -306.48 530.18 -317.325 529.859 -325.062 538.406 c 2
 -397.625 618.562 l 2
 -407.608 629.592 -412.979 637.631 -410.719 658.344 c 2
 -401.375 744 l 2
 -399.172 764.195 -383.373 759.89 -376.375 752.594 c 0
 -313.65 687.201 -109.403 495.859 1.09375 248.438 c 1
 54.251 346.261 58.6152 539.045 44.0625 686.375 c 1
 47.1875 717.5 l 1
 53.6289 737.565 62.8525 753.806 73 767.438 c 0
 75.0225 770.154 77.5322 771.47 80.0312 771.656 c 0
EndSplineSet
Fore
SplineSet
-130.805 87.0938 m 1
 -86.2656 113.162 -52.2861 158.062 -24.2422 200.625 c 1
 1.32031 248.438 l 1
 54.4775 346.261 58.8418 539.045 44.2891 686.375 c 1
 47.4141 717.5 l 1
 53.8555 737.565 63.0791 753.806 73.2266 767.438 c 0
 75.249 770.154 77.7588 771.47 80.2578 771.656 c 0
 84.4229 771.968 88.6016 769.173 90.7266 764.688 c 0
 101.033 742.938 111.47 721.748 127.195 704.969 c 0
 136.419 695.127 133.76 680.151 126.82 673.906 c 2
 95.6953 645.875 l 1
 105.874 471.855 76.7754 333.911 21.5703 205 c 1
 -7.21094 155.25 l 1
 -22.2959 132.923 -41.1504 109.796 -59.8984 87.4688 c 1
 -106.773 26 -142.773 50 -130.805 87.0938 c 1
EndSplineSet
EndChar

StartChar: alef_LamAlef.fina
Encoding: 65654 -1 112
Width: 0
VWidth: 0
Flags: MW
AnchorPoint: "tashkil.above" 88 692 basechar 0
AnchorPoint: "tashkil.below" 450 -118 basechar 0
AnchorPoint: "hamza.below" 450 -118 basechar 0
AnchorPoint: "hamza.above" 88 692 basechar 0
AnchorPoint: "madda.above" 88 692 basechar 0
AnchorPoint: "curs" 496 190 entry 0
LayerCount: 2
Back
SplineSet
580.651 730.176 m 1
 587.544 742.854 592.229 741.188 594.969 726.872 c 1
 590.968 728.539 632.765 404.698 666.021 226.194 c 0
 674.872 178.681 700.339 139.508 744.615 113.235 c 1
 744.615 113.235 742.839 15.625 743.647 0 c 1
 721.418 6.49805 654.026 27.9336 632.522 115.062 c 0
 606.203 221.701 591.486 393.373 586.158 427.312 c 1
 583.764 433.744 581.728 443.938 577.348 429.516 c 1
 561.808 247.176 505.143 13.4385 339.766 -23.7246 c 0
 260.633 -41.5078 169.28 -49.8154 169.28 -49.8154 c 1
 161.783 -47.2998 160.309 -43.9814 168.368 -39.3916 c 1
 242.392 -13.3848 416.936 63.5273 482.634 169.604 c 1
 452.657 292.105 366.812 365.713 270.523 425.755 c 0
 265.173 429.092 255.281 436.185 250.122 425.688 c 0
 247.955 421.28 242.381 409.148 239.754 404.185 c 0
 230.864 387.394 219.283 381.243 199.973 394.273 c 2
 111.355 454.067 l 2
 93.6416 466.019 89.627 474.409 90.5635 486.784 c 1
 90.5635 486.784 87.3516 598.984 87.2598 603.524 c 0
 86.9912 616.831 103.709 622.507 116.417 614.727 c 0
 281.075 514.516 481.372 389.209 503.941 215.39 c 1
 544.4 282.51 559.97 545.944 550.727 629.444 c 1
 545.702 646.396 550.146 657.67 555.321 668.502 c 2
 580.651 730.176 l 1
EndSplineSet
Fore
SplineSet
482.777 169.604 m 0
 452.801 292.105 366.956 365.713 270.667 425.755 c 0
 265.316 429.092 255.425 436.185 250.266 425.688 c 0
 248.099 421.28 242.524 409.148 239.897 404.185 c 0
 231.008 387.394 219.427 381.243 200.116 394.273 c 2
 111.499 454.067 l 2
 93.7852 466.019 89.7715 474.409 90.707 486.784 c 1
 90.707 486.784 87.4951 598.984 87.4033 603.524 c 0
 87.1348 616.831 103.853 622.507 116.561 614.727 c 0
 281.219 514.516 481.516 389.209 504.085 215.39 c 1
 529.144 162 491.801 133.567 482.777 169.604 c 0
EndSplineSet
EndChar

StartChar: lam_LamAlef.fina
Encoding: 65655 -1 113
Width: 290
VWidth: 0
Flags: MW
AnchorPoint: "tashkil.above" 124 856 basechar 0
AnchorPoint: "tashkil.below" 182 -152 basechar 0
AnchorPoint: "curs" 42 194 exit 0
LayerCount: 2
Back
SplineSet
126.651 730.176 m 1
 133.544 742.854 138.229 741.188 140.969 726.872 c 1
 136.968 728.539 178.765 404.698 212.021 226.194 c 0
 220.872 178.681 246.339 139.508 290.615 113.235 c 1
 290.615 113.235 288.839 15.625 289.647 0 c 1
 267.418 6.49805 200.026 27.9336 178.522 115.062 c 0
 152.203 221.701 137.486 393.373 132.158 427.312 c 1
 129.764 433.744 127.728 443.937 123.348 429.516 c 1
 107.808 247.176 51.1426 13.4385 -114.234 -23.7246 c 0
 -193.367 -41.5078 -284.72 -49.8154 -284.72 -49.8154 c 1
 -292.217 -47.2998 -293.691 -43.9814 -285.632 -39.3916 c 1
 -211.608 -13.3848 -37.0645 63.5273 28.6338 169.604 c 1
 -1.34277 292.105 -87.1875 365.713 -183.477 425.755 c 0
 -188.827 429.092 -198.719 436.185 -203.878 425.688 c 0
 -206.045 421.28 -211.619 409.148 -214.246 404.185 c 0
 -223.136 387.394 -234.717 381.243 -254.027 394.273 c 2
 -342.645 454.067 l 2
 -360.358 466.019 -364.373 474.409 -363.437 486.784 c 1
 -363.437 486.784 -366.648 598.984 -366.74 603.524 c 0
 -367.009 616.831 -350.291 622.507 -337.583 614.727 c 0
 -172.925 514.516 27.3721 389.209 49.9414 215.39 c 1
 90.4004 282.51 105.97 545.944 96.7266 629.444 c 1
 91.7021 646.397 96.1455 657.67 101.321 668.502 c 2
 126.651 730.176 l 1
EndSplineSet
Fore
SplineSet
50.1553 215.39 m 1
 90.6143 282.51 106.184 545.944 96.9404 629.444 c 1
 91.916 646.397 96.3594 657.67 101.535 668.502 c 2
 126.865 730.176 l 1
 133.758 742.854 138.443 741.188 141.183 726.872 c 1
 137.182 728.539 178.979 404.698 212.234 226.194 c 0
 221.086 178.681 246.553 139.508 290.829 113.235 c 1
 290.829 113.235 289.053 15.625 289.861 0 c 1
 267.632 6.49805 200.24 27.9336 178.736 115.062 c 0
 152.417 221.701 137.7 393.373 132.372 427.312 c 1
 129.978 433.744 127.941 443.937 123.562 429.516 c 1
 108.021 247.176 51.3564 13.4385 -114.021 -23.7246 c 0
 -193.153 -41.5078 -284.506 -49.8154 -284.506 -49.8154 c 1
 -292.003 -47.2998 -293.478 -43.9814 -285.418 -39.3916 c 1
 -211.395 -13.3848 -36.8506 63.5273 28.8477 169.604 c 1
 50.1553 215.39 l 1
EndSplineSet
EndChar

StartChar: seen.medi_BaaSeen
Encoding: 65656 -1 114
Width: 473
VWidth: 0
Flags: MW
AnchorPoint: "tashkil.below" 314.597 -128 basechar 0
AnchorPoint: "tashkil.above" 308.597 436 basechar 0
AnchorPoint: "dot.above" 308.597 436 basechar 0
AnchorPoint: "dot.below" 314.597 -128 basechar 0
AnchorPoint: "curs" 518.596 200 entry 0
LayerCount: 2
Back
SplineSet
612.599 519.108 m 0
 646.498 454.201 711.603 250.643 697.078 151.471 c 0
 693.104 124.336 672.498 81.2773 655.12 67.4502 c 0
 652.462 65.335 645.346 64.333 640.932 65.7217 c 0
 581.896 84.3018 531.588 123.278 520.678 158.229 c 0
 519.119 163.222 514.585 162.566 512.186 156.251 c 0
 500.609 125.777 469.155 58.9346 455.193 39.7051 c 0
 447.695 29.377 430.531 29.5391 417.661 31.416 c 0
 396.806 34.4561 320.813 50.8936 320.109 99.9805 c 0
 320.032 105.335 320.276 110.484 314.181 100.483 c 0
 282.088 47.834 234.017 13.0244 198.477 20.5469 c 0
 163.876 27.8701 139.398 55.2363 118.851 82.1533 c 0
 117.16 84.3672 115.06 84.4414 113.693 82.5967 c 0
 88.4482 48.4834 45.541 13.2266 -0.59668 0 c 1
 0.874023 100.019 l 1
 60.833 111.077 98.5508 120.631 148.268 207.133 c 0
 156.112 221.793 173.707 211.584 169.294 202.041 c 0
 160.953 184.004 161.729 163.908 164.355 155.936 c 0
 170.314 137.854 214.824 113.155 230.414 115.281 c 0
 297.469 124.43 335.366 174.8 360.533 226.521 c 0
 368.878 243.672 385.674 236.805 380.753 222.064 c 0
 376.446 209.162 370.637 200.222 369.274 181.611 c 0
 368.988 177.707 368.169 172.542 372.179 167.979 c 0
 388.61 149.279 432.457 137.141 450.444 139.098 c 0
 461.42 140.292 469.44 149.256 472.266 156.304 c 2
 508.971 247.861 l 2
 514.685 262.116 520.872 259.704 526.714 248.116 c 0
 558.086 185.874 636.114 149.85 647.734 146.572 c 0
 651.641 145.471 654.64 147.566 655.014 156.804 c 0
 658.912 253.105 598.631 346.366 565.235 421.557 c 0
 561.32 430.37 561.459 434.625 563.593 440.62 c 0
 570.706 460.612 590.606 502.14 599.178 519.609 c 0
 602.503 526.388 607.849 528.203 612.599 519.108 c 0
EndSplineSet
Fore
SplineSet
517.596 161.521 m 1
 515.896 161.329 514.045 159.573 512.782 156.251 c 0
 501.206 125.777 469.752 58.9346 455.79 39.7051 c 0
 448.292 29.377 431.128 29.5391 418.258 31.416 c 0
 397.402 34.4561 321.41 50.8936 320.706 99.9805 c 0
 320.629 105.335 320.873 110.484 314.777 100.483 c 0
 282.685 47.834 234.613 13.0244 199.073 20.5469 c 0
 164.473 27.8701 139.995 55.2363 119.447 82.1533 c 0
 117.757 84.3672 115.656 84.4414 114.29 82.5967 c 0
 89.0449 48.4834 46.1367 13.2266 0 0 c 1
 1.4707 100.019 l 1
 61.4287 111.077 99.1475 120.631 148.864 207.133 c 0
 156.709 221.793 174.304 211.584 169.891 202.041 c 0
 161.55 184.004 162.325 163.908 164.952 155.936 c 0
 170.911 137.854 215.421 113.155 231.011 115.281 c 0
 298.065 124.43 335.963 174.8 361.13 226.521 c 0
 369.474 243.672 386.27 236.805 381.349 222.064 c 0
 377.043 209.162 371.233 200.222 369.871 181.611 c 0
 369.585 177.707 368.765 172.542 372.775 167.979 c 0
 389.207 149.279 433.054 137.141 451.041 139.098 c 0
 462.016 140.292 470.037 149.256 472.862 156.304 c 2
 509.567 247.861 l 2
 512.172 254.357 514.874 257.393 517.596 257.675 c 1
 517.596 161.521 l 1
EndSplineSet
Substitution2: "SeenMeem-1" seen.medi_BaaSeen_SeenMeem.fina
EndChar

StartChar: baa.init_BaaSeen
Encoding: 65657 -1 115
Width: 231
VWidth: 0
Flags: MW
AnchorPoint: "tashkil.below" 118 -114 basechar 0
AnchorPoint: "tashkil.above" 72 694 basechar 0
AnchorPoint: "dot.above" 72 694 basechar 0
AnchorPoint: "dot.below" 118 -114 basechar 0
AnchorPoint: "curs" 0 200 exit 0
LayerCount: 2
Back
SplineSet
94.5986 519.108 m 0
 128.498 454.201 193.603 250.643 179.078 151.471 c 0
 175.104 124.336 154.498 81.2773 137.12 67.4502 c 0
 134.462 65.335 127.346 64.333 122.932 65.7217 c 0
 63.8965 84.3018 13.5879 123.278 2.67773 158.229 c 0
 1.11914 163.222 -3.41504 162.566 -5.81445 156.251 c 0
 -17.3906 125.777 -48.8447 58.9346 -62.8066 39.7051 c 0
 -70.3047 29.377 -87.4688 29.5391 -100.339 31.416 c 0
 -121.194 34.4561 -197.187 50.8936 -197.891 99.9805 c 0
 -197.968 105.335 -197.724 110.484 -203.819 100.483 c 0
 -235.912 47.834 -283.983 13.0244 -319.523 20.5469 c 0
 -354.124 27.8701 -378.602 55.2363 -399.149 82.1533 c 0
 -400.84 84.3672 -402.94 84.4414 -404.307 82.5967 c 0
 -429.552 48.4834 -472.459 13.2266 -518.597 0 c 1
 -517.126 100.019 l 1
 -457.167 111.077 -419.449 120.631 -369.732 207.133 c 0
 -361.888 221.793 -344.293 211.584 -348.706 202.041 c 0
 -357.047 184.004 -356.271 163.908 -353.645 155.936 c 0
 -347.686 137.854 -303.176 113.155 -287.586 115.281 c 0
 -220.531 124.43 -182.634 174.8 -157.467 226.521 c 0
 -149.122 243.672 -132.326 236.805 -137.247 222.064 c 0
 -141.554 209.162 -147.363 200.222 -148.726 181.611 c 0
 -149.012 177.707 -149.831 172.542 -145.821 167.979 c 0
 -129.39 149.279 -85.543 137.141 -67.5557 139.098 c 0
 -56.5801 140.292 -48.5596 149.256 -45.7344 156.304 c 2
 -9.0293 247.861 l 2
 -3.31543 262.116 2.87207 259.704 8.71387 248.116 c 0
 40.0859 185.874 118.114 149.85 129.734 146.572 c 0
 133.641 145.471 136.64 147.566 137.014 156.804 c 0
 140.912 253.105 80.6309 346.366 47.2354 421.557 c 0
 43.3203 430.37 43.459 434.625 45.5928 440.62 c 0
 52.7061 460.612 72.6064 502.14 81.1777 519.609 c 0
 84.5029 526.388 89.8486 528.203 94.5986 519.108 c 0
EndSplineSet
Fore
SplineSet
-1 257.675 m 1
 2.25195 258.012 5.53418 254.423 8.71387 248.116 c 0
 40.0859 185.874 118.114 149.85 129.734 146.572 c 0
 133.641 145.471 136.64 147.566 137.014 156.804 c 0
 140.912 253.105 80.6309 346.366 47.2354 421.557 c 0
 43.3203 430.37 43.459 434.625 45.5928 440.62 c 0
 52.7061 460.612 72.6064 502.14 81.1777 519.609 c 0
 84.5029 526.388 89.8486 528.203 94.5986 519.108 c 0
 128.498 454.201 193.603 250.643 179.078 151.471 c 0
 175.104 124.336 154.498 81.2773 137.12 67.4502 c 0
 134.462 65.335 127.346 64.333 122.932 65.7217 c 0
 63.8965 84.3018 13.5879 123.278 2.67773 158.229 c 0
 1.93945 160.596 0.53125 161.693 -1 161.521 c 1
 -1 257.675 l 1
EndSplineSet
EndChar

StartChar: AlefTatweel.fina
Encoding: 65658 -1 116
Width: 766
VWidth: 0
Flags: MW
AnchorPoint: "madda.above" 60 882 basechar 0
AnchorPoint: "hamza.above" 60 882 basechar 0
AnchorPoint: "tashkil.above" 60 882 basechar 0
AnchorPoint: "hamza.below" 70 -142 basechar 0
AnchorPoint: "tashkil.below" 70 -142 basechar 0
LayerCount: 2
Fore
SplineSet
143.286 824.005 m 1
 143.282 824.005 l 1
 149.193 824.35 153.726 821.153 151.936 813.22 c 2
 138.858 755.292 l 2
 137.273 748.271 128.554 748.397 125.8 748.282 c 0
 116.035 748.136 93.29 739.664 83.3223 731.548 c 0
 73.3545 723.431 57.2578 690.313 58.2686 636.138 c 0
 59.9707 545.013 64.6094 460.695 75.2246 385.873 c 0
 80.8535 346.193 90.1514 309.184 105.682 275.246 c 0
 160.821 154.741 290.652 113.342 402.936 97.1963 c 1
 504.133 88.5293 642.093 87.9238 766.07 96.29 c 1
 766.14 -0 l 1
 750.786 -0 650.815 -4.05371 548.035 -2.86133 c 0
 399.771 0.0820312 227.961 -0.470703 121.607 116.86 c 0
 26.3301 221.974 35.6348 475.222 23.2109 606.495 c 1
 21.8057 658.209 27.4424 708.371 31.5967 727.383 c 0
 40.2373 766.937 75.375 820.041 143.286 824.005 c 1
EndSplineSet
LCarets2: 1 0 
Ligature2: "'liga' Extra Ligatures-1" uni0640 alef.fina
EndChar

StartChar: uni0640
Encoding: 1600 1600 117
Width: 500
VWidth: 0
Flags: W
LayerCount: 2
Fore
SplineSet
0 90 m 1
 500 90 l 1
 500 0 l 1
 0 0 l 1
 0 90 l 1
EndSplineSet
EndChar

StartChar: haa_AynHaa.init
Encoding: 65659 -1 118
Width: 635
VWidth: 0
Flags: MW
AnchorPoint: "tashkil.below" 381 -54 basechar 0
AnchorPoint: "tashkil.above" 15 503 basechar 0
AnchorPoint: "dot.above" 15 503 basechar 0
AnchorPoint: "dot.below" 381 -54 basechar 0
AnchorPoint: "curs" 98 254 entry 0
LayerCount: 2
Back
SplineSet
578.757 448.762 m 4
 570.657 430.081 562.016 414.961 548.67 394.556 c 4
 545.975 390.435 539.937 384.433 535.712 383.26 c 4
 424.014 352.256 187.014 293.533 140.587 262.214 c 4
 135.397 258.714 137.85 254.749 143.058 253.056 c 4
 288.929 205.604 439.104 195.327 577.832 188.306 c 4
 582.345 188.077 587.31 186.12 585.509 175.936 c 4
 581.237 151.784 573.283 129.844 563.843 108.795 c 4
 561.444 103.447 557.778 101.125 552.255 102.07 c 4
 348.403 136.854 178.503 50.9609 -1.34375 0 c 5
 -2.44531 91.4102 l 5
 83.1797 102.549 165.188 118.511 246.453 135.463 c 5
 223.9 151.972 106.487 179.73 19.5938 185.735 c 4
 13.6582 186.146 12.6816 189.289 14.9121 194.307 c 4
 23.9375 214.611 32.7656 233.071 52.4512 251.284 c 4
 94.7539 290.424 166.001 322.136 242.504 353.457 c 5
 197.906 388.09 161.798 412.114 191.221 491.255 c 4
 208.473 537.659 301.86 630.429 370.514 624.905 c 4
 436.437 619.603 468.291 572.593 486.395 550.961 c 4
 494.991 540.688 490.113 537.328 481.442 540.242 c 4
 451.22 550.396 410.722 561.408 369.896 560.227 c 4
 316.267 558.674 263.909 539.899 234.795 495.083 c 5
 243.404 478.94 285.985 419.28 356.341 415.776 c 4
 439.448 411.639 514.811 444.462 568.836 463.457 c 4
 575.837 465.919 584.092 461.068 578.757 448.762 c 4
EndSplineSet
Fore
SplineSet
137.888 257.055 m 1
 138.463 255.373 140.402 253.919 143.058 253.056 c 0
 288.929 205.604 439.104 195.327 577.832 188.306 c 0
 582.345 188.077 587.31 186.12 585.509 175.936 c 0
 581.237 151.784 573.283 129.844 563.843 108.795 c 0
 561.444 103.447 557.778 101.125 552.255 102.07 c 0
 348.403 136.854 178.503 50.9609 -1.34375 0 c 1
 -2.44531 91.4102 l 1
 83.1797 102.549 165.188 118.511 246.453 135.463 c 1
 223.9 151.972 106.487 179.73 19.5938 185.735 c 0
 13.6582 186.146 12.6816 189.289 14.9121 194.307 c 0
 23.9375 214.611 32.7656 233.071 52.4512 251.284 c 0
 53.0085 251.798 l 1
 137.888 257.055 l 1
EndSplineSet
EndChar

StartChar: ayn_AynHaa.init
Encoding: 65660 -1 119
Width: 630
VWidth: 0
Flags: MW
AnchorPoint: "tashkil.below" 470 -76 basechar 0
AnchorPoint: "tashkil.above" 339 709 basechar 0
AnchorPoint: "dot.above" 339 709 basechar 0
AnchorPoint: "curs" 98 254 exit 0
LayerCount: 2
Back
SplineSet
578.757 448.762 m 0
 570.657 430.081 562.016 414.961 548.67 394.556 c 0
 545.975 390.435 539.937 384.433 535.712 383.26 c 0
 424.014 352.256 187.014 293.533 140.587 262.214 c 0
 135.397 258.714 137.85 254.749 143.058 253.056 c 0
 288.929 205.604 439.104 195.327 577.832 188.306 c 0
 582.345 188.077 587.31 186.12 585.509 175.936 c 0
 581.237 151.784 573.283 129.844 563.843 108.795 c 0
 561.444 103.447 557.778 101.125 552.255 102.07 c 0
 348.403 136.854 178.503 50.9609 -1.34375 0 c 1
 -2.44531 91.4102 l 1
 83.1797 102.549 165.188 118.511 246.453 135.463 c 1
 223.9 151.972 106.487 179.73 19.5938 185.735 c 0
 13.6582 186.146 12.6816 189.289 14.9121 194.307 c 0
 23.9375 214.611 32.7656 233.071 52.4512 251.284 c 0
 94.7539 290.424 166.001 322.136 242.504 353.457 c 1
 197.906 388.09 161.798 412.114 191.221 491.255 c 0
 208.473 537.659 301.86 630.429 370.514 624.905 c 0
 436.437 619.603 468.291 572.593 486.395 550.961 c 0
 494.991 540.688 490.113 537.328 481.442 540.242 c 0
 451.22 550.396 410.722 561.408 369.896 560.227 c 0
 316.267 558.674 263.909 539.899 234.795 495.083 c 1
 243.404 478.94 285.985 419.28 356.341 415.776 c 0
 439.448 411.639 514.811 444.462 568.836 463.457 c 0
 575.837 465.919 584.092 461.068 578.757 448.762 c 0
EndSplineSet
Fore
SplineSet
53.0085 251.798 m 1
 137.888 257.055 l 1
53.0085 251.798 m 1
 95.3779 290.702 166.336 322.273 242.504 353.457 c 1
 197.906 388.09 161.798 412.114 191.221 491.255 c 0
 208.473 537.659 301.86 630.429 370.514 624.905 c 0
 436.437 619.603 468.291 572.593 486.395 550.961 c 0
 494.991 540.688 490.113 537.328 481.442 540.242 c 0
 451.22 550.396 410.722 561.408 369.896 560.227 c 0
 316.267 558.674 263.909 539.899 234.795 495.083 c 1
 243.404 478.94 285.985 419.28 356.341 415.776 c 0
 439.448 411.639 514.811 444.462 568.836 463.457 c 0
 575.837 465.919 584.092 461.068 578.757 448.762 c 0
 570.657 430.081 562.016 414.961 548.67 394.556 c 0
 545.975 390.435 539.937 384.433 535.712 383.26 c 0
 424.014 352.256 187.014 293.533 140.587 262.214 c 0
 138.044 260.499 137.336 258.672 137.888 257.055 c 1
 53.0085 251.798 l 1
EndSplineSet
EndChar

StartChar: meem.medi_preMeem
Encoding: 65661 -1 120
Width: 292
VWidth: 0
Flags: MW
AnchorPoint: "tashkil.above" 82 420 basechar 0
AnchorPoint: "tashkil.below" 246 -74 basechar 0
AnchorPoint: "curs" 186 216 entry 0
LayerCount: 2
Back
SplineSet
436.238 593.885 m 4
 436.238 593.885 l 6
 436.835 593.879 437.411 593.866 437.977 593.834 c 4
 492.497 590.107 527.184 549.227 549.412 519.836 c 4
 560.051 505.768 544.21 498.144 535.888 500.94 c 4
 481.546 519.202 376.125 520.569 294.997 461.266 c 4
 291.337 457.984 290.49 453.659 292.295 448.837 c 4
 302.324 422.038 346.994 371.515 429.457 365.017 c 4
 494.215 359.913 571.873 404.974 640.65 429.68 c 4
 649.478 432.852 653.337 424.851 649.521 417.316 c 6
 617.201 353.477 l 6
 614.954 349.039 605.954 340.188 602.148 338.691 c 4
 487.905 293.794 357.045 253.364 243.333 211.032 c 5
 268.378 187.143 285.566 161.769 290.132 127.227 c 4
 296.067 82.3213 289.65 46.2324 262.402 32.6641 c 4
 227.867 15.4668 129.839 48.2021 70.4678 76.4385 c 5
 57.293 50.6455 31.3994 6.61719 0 0 c 5
 0.602539 85.9141 l 5
 26.1504 88.6133 45.8799 95.0859 59.8633 109.956 c 5
 63.1338 152.452 73.9531 201.72 115.704 225.362 c 4
 184.743 264.458 243.095 271.247 295.635 299.878 c 5
 216.488 356.04 226.219 403.246 243.832 448.381 c 5
 300.347 547.134 380.521 593.42 436.238 593.885 c 4
141.678 180.062 m 4
 125.321 180.457 110.087 175.801 98.9824 164.314 c 4
 95.9131 161.087 96.167 155.558 100.344 152.47 c 4
 132.26 128.875 209.958 111.491 238.215 108.301 c 5
 232.537 145.105 183.477 179.057 141.678 180.062 c 4
EndSplineSet
Fore
SplineSet
243.621 210.757 m 1
 268.51 186.947 285.584 161.636 290.132 127.227 c 0
 296.067 82.3213 289.65 46.2324 262.402 32.6641 c 0
 227.867 15.4668 129.839 48.2021 70.4678 76.4385 c 1
 57.293 50.6455 31.3994 6.61719 0 0 c 1
 0.602539 85.9141 l 1
 26.1504 88.6133 45.8799 95.0859 59.8633 109.956 c 1
 63.1338 152.452 73.9531 201.72 115.704 225.362 c 1
 243.621 210.757 l 1
141.678 180.062 m 0
 125.321 180.457 110.087 175.801 98.9824 164.314 c 0
 95.9131 161.087 96.167 155.558 100.344 152.47 c 0
 132.26 128.875 209.958 111.491 238.215 108.301 c 1
 232.537 145.105 183.477 179.057 141.678 180.062 c 0
EndSplineSet
EndChar

StartChar: ayn.init_preMeem
Encoding: 65662 -1 121
Width: 700
VWidth: 0
Flags: MW
AnchorPoint: "tashkil.below" 522 110 basechar 0
AnchorPoint: "tashkil.above" 422 704 basechar 0
AnchorPoint: "dot.above" 422 704 basechar 0
AnchorPoint: "curs" 186 216 exit 0
LayerCount: 2
Back
SplineSet
436.238 593.885 m 0
 436.238 593.885 l 2
 436.835 593.879 437.411 593.866 437.977 593.834 c 0
 492.497 590.107 527.184 549.227 549.412 519.836 c 0
 560.051 505.768 544.21 498.144 535.888 500.94 c 0
 481.546 519.202 376.125 520.569 294.997 461.266 c 0
 291.337 457.984 290.49 453.659 292.295 448.837 c 0
 302.324 422.038 346.994 371.515 429.457 365.017 c 0
 494.215 359.913 571.873 404.974 640.65 429.68 c 0
 649.478 432.852 653.337 424.851 649.521 417.316 c 2
 617.201 353.477 l 2
 614.954 349.039 605.954 340.188 602.148 338.691 c 0
 487.905 293.794 357.045 253.364 243.333 211.032 c 1
 268.378 187.143 285.566 161.769 290.132 127.227 c 0
 296.067 82.3213 289.65 46.2324 262.402 32.6641 c 0
 227.867 15.4668 129.839 48.2021 70.4678 76.4385 c 1
 57.293 50.6455 31.3994 6.61719 0 0 c 1
 0.602539 85.9141 l 1
 26.1504 88.6133 45.8799 95.0859 59.8633 109.956 c 1
 63.1338 152.452 73.9531 201.72 115.704 225.362 c 0
 184.743 264.458 243.095 271.247 295.635 299.878 c 1
 216.488 356.04 226.219 403.246 243.832 448.381 c 1
 300.347 547.134 380.521 593.42 436.238 593.885 c 0
141.678 180.062 m 0
 125.321 180.457 110.087 175.801 98.9824 164.314 c 0
 95.9131 161.087 96.167 155.558 100.344 152.47 c 0
 132.26 128.875 209.958 111.491 238.215 108.301 c 1
 232.537 145.105 183.477 179.057 141.678 180.062 c 0
EndSplineSet
Fore
SplineSet
115.704 225.362 m 1
 184.743 264.458 243.095 271.247 295.635 299.878 c 1
 216.488 356.04 226.219 403.246 243.832 448.381 c 1
 300.347 547.134 380.521 593.42 436.238 593.885 c 0
 436.835 593.879 437.411 593.866 437.977 593.834 c 0
 492.497 590.107 527.184 549.227 549.412 519.836 c 0
 560.051 505.768 544.21 498.144 535.888 500.94 c 0
 481.546 519.202 376.125 520.569 294.997 461.266 c 0
 291.337 457.984 290.49 453.659 292.295 448.837 c 0
 302.324 422.038 346.994 371.515 429.457 365.017 c 0
 494.215 359.913 571.873 404.974 640.65 429.68 c 0
 649.478 432.852 653.337 424.851 649.521 417.316 c 2
 617.201 353.477 l 2
 614.954 349.039 605.954 340.188 602.148 338.691 c 0
 487.905 293.794 357.045 253.364 243.333 211.032 c 1
 243.621 210.757 l 1
 115.704 225.362 l 1
EndSplineSet
EndChar

StartChar: uni064B
Encoding: 1611 1611 122
Width: 0
VWidth: 1399
GlyphClass: 4
Flags: W
AnchorPoint: "2tashkil.above" 8 934 basemark 0
AnchorPoint: "2tashkil.above" 15 693 mark 0
AnchorPoint: "tashkildot.above" 15 693 mark 0
AnchorPoint: "tashkil.above" 13 693 mark 0
LayerCount: 2
Fore
SplineSet
104 937 m 256
 109.6 937 111 935.2 111 928 c 0
 111 925.546 103.155 912.769 101 902 c 1
 93.4687 884.428 82.4312 882.058 59 868 c 1
 -73 799 l 1
 -102.531 785.103 -99.4 783 -106 783 c 0
 -110 783 -111 784 -111 788 c 0
 -111 788.006 -108.447 818.688 -83 836.5 c 0
 -79.667 838.833 -75.667 841.333 -71 844 c 2
 64 916 l 2
 87.7934 928.979 96 937 104 937 c 256
104 836 m 256
 109.6 836 111 834.2 111 827 c 0
 111 824.515 102.537 811.752 101 801 c 1
 93.4687 783.428 82.4312 781.058 59 767 c 1
 -73 699 l 1
 -102.839 684.958 -99.4 682 -106 682 c 0
 -109.642 682 -111 683.929 -111 687 c 0
 -111 695.222 -101.467 722.379 -91.5 729.5 c 2
 -83 735.5 l 2
 -79.667 737.833 -75.667 740.333 -71 743 c 2
 64 815 l 2
 87.7934 827.979 96 836 104 836 c 256
EndSplineSet
EndChar

StartChar: uni064C
Encoding: 1612 1612 123
Width: 0
VWidth: 1399
GlyphClass: 4
Flags: W
AnchorPoint: "2tashkil.above" -12 942 basemark 0
AnchorPoint: "2tashkil.above" 24 696 mark 0
AnchorPoint: "tashkildot.above" 24 696 mark 0
AnchorPoint: "tashkil.above" 21.5 690 mark 0
LayerCount: 2
Fore
SplineSet
103.5 822 m 1
 120.406 806.3 132.5 794.406 132.5 766 c 0
 132.5 740.6 124.1 736 118.5 736 c 0
 113.7 736 102.604 742.054 94.5 749 c 2
 81.5 760.5 l 2
 77.5 764.167 73.5 767.333 69.5 770 c 1
 2.58593 703.086 -48.9 675 -78.5 675 c 0
 -88.1 675 -90.5 679.2 -90.5 682 c 256
 -90.5 684.574 -84.178 692.972 -77.5 710.5 c 2
 -69 733.5 l 2
 -66 741.833 -64.5 749.333 -64.5 756 c 0
 -64.5 776.181 -71.1726 792 -91.5 792 c 0
 -110.7 792 -120.982 765.629 -123.5 748 c 1
 -128.9 748 -132.5 749.5 -132.5 760 c 0
 -132.5 776.075 -125.869 855 -84.5 855 c 0
 -34.7475 855 -34.5 814.745 -34.5 771.5 c 0
 -34.5 756.5 -34.833 743.333 -35.5 732 c 1
 -1.06001 743.481 29.2021 774.063 41.5 788 c 1
 18.2336 807.941 -1.5 811.18 -1.5 848 c 0
 -1.5 892.263 30.9 946 79.5 946 c 0
 103.65 946 125.5 921.947 125.5 890 c 0
 125.5 863.079 107.619 836.42 103.5 822 c 1
48.5 899 m 0
 38.1 899 35.5 888.6 35.5 886 c 0
 35.5 868.8 55.0383 855.307 73.5 843 c 1
 76.7661 851.165 78.7223 859.985 78.7223 866.673 c 0
 78.7223 883.878 67.5453 899 48.5 899 c 0
EndSplineSet
EndChar

StartChar: uni064D
Encoding: 1613 1613 124
Width: 0
VWidth: 1399
GlyphClass: 4
Flags: W
AnchorPoint: "2tashkil.below" -16 -378 mark 0
AnchorPoint: "2tashkil.below" -10 -632 basemark 0
AnchorPoint: "tashkildot.below" -20.5 -375 mark 0
AnchorPoint: "tashkil.below" -20.5 -375 mark 0
LayerCount: 2
Fore
SplineSet
103.5 -378 m 256
 109.992 -378 110.5 -378.269 110.5 -385 c 0
 110.5 -385.006 101.586 -422.866 82.5 -434 c 2
 60.5 -447 l 1
 -71.5 -515 l 1
 -98.3534 -527.636 -101.61 -532 -104.5 -532 c 0
 -108.5 -532 -110.5 -530 -110.5 -526 c 0
 -110.5 -508.892 -92.7846 -482.144 -83.5 -477.5 c 0
 -80.167 -475.833 -76.167 -473.333 -71.5 -470 c 2
 64.5 -399 l 1
 87.5 -385 l 2
 95.5 -380.333 100.833 -378 103.5 -378 c 256
103.5 -490 m 256
 109.9 -490 110.5 -491.6 110.5 -498 c 0
 110.5 -498.006 101.586 -535.866 82.5 -547 c 0
 74.5 -551.667 67.167 -555.667 60.5 -559 c 2
 -71.5 -627 l 1
 -98.3534 -639.636 -101.61 -644 -104.5 -644 c 0
 -108.5 -644 -110.5 -642.667 -110.5 -640 c 0
 -110.5 -619.676 -92.0341 -593.768 -83.5 -589.5 c 0
 -80.167 -587.833 -76.167 -586 -71.5 -584 c 2
 64.5 -511 l 1
 87.5 -497 l 2
 95.5 -492.333 100.833 -490 103.5 -490 c 256
EndSplineSet
EndChar

StartChar: uni064E
Encoding: 1614 1614 125
Width: 0
VWidth: 1399
GlyphClass: 4
Flags: W
AnchorPoint: "2tashkil.above" 11 828 basemark 0
AnchorPoint: "2tashkil.above" 13 693 mark 0
AnchorPoint: "tashkildot.above" 13 693 mark 0
AnchorPoint: "tashkil.above" 13 693 mark 0
LayerCount: 2
Fore
SplineSet
104 836 m 256
 109.6 836 111 834.2 111 827 c 0
 111 824.515 102.537 811.752 101 801 c 1
 93.4687 783.428 82.4312 781.058 59 767 c 1
 -73 699 l 1
 -102.839 684.958 -99.4 682 -106 682 c 0
 -109.642 682 -111 683.929 -111 687 c 0
 -111 695.222 -101.467 722.379 -91.5 729.5 c 2
 -83 735.5 l 2
 -79.667 737.833 -75.667 740.333 -71 743 c 2
 64 815 l 2
 87.7934 827.979 96 836 104 836 c 256
EndSplineSet
EndChar

StartChar: uni064F
Encoding: 1615 1615 126
Width: 0
VWidth: 1399
GlyphClass: 4
Flags: W
AnchorPoint: "2tashkil.above" -30 952 basemark 0
AnchorPoint: "2tashkil.above" 39.5 690 mark 0
AnchorPoint: "tashkildot.above" 39.5 690 mark 0
AnchorPoint: "tashkil.above" 39.5 690 mark 0
LayerCount: 2
Fore
SplineSet
104.5 903 m 0
 104.5 887.8 103.352 869.187 83.5 827 c 1
 85.5 825 88.333 822.667 92 820 c 2
 102.5 812.5 l 2
 106.795 809.493 114.5 802.98 114.5 801 c 0
 114.5 800.992 104.655 743 102.5 743 c 0
 95.833 743 88 746.333 79 753 c 2
 49.5 776 l 1
 -2.34188 704.902 -46.5 682 -70.5 682 c 0
 -79.3 682 -99.3523 683.585 -114.5 692 c 1
 -104.5 697.333 -93.333 704 -81 712 c 2
 -44 737 l 2
 -20.1505 753.76 2.01751 773.65 18.5 797 c 1
 -10.0121 817.593 -18.5 831.2 -18.5 854 c 0
 -18.5 890.1 19.8865 966 58.5 966 c 0
 92.5937 966 104.5 930.353 104.5 903 c 0
52.5 850 m 1
 58.74 862.48 60.5 863.2 60.5 872 c 0
 60.5 890.408 45.2969 904 28.5 904 c 0
 23.4 904 18.5 900.4 18.5 895 c 0
 18.5 886 32.0894 866.809 52.5 850 c 1
EndSplineSet
EndChar

StartChar: uni0650
Encoding: 1616 1616 127
Width: 0
VWidth: 1399
GlyphClass: 4
Flags: W
AnchorPoint: "2tashkil.below" -22 -372 mark 0
AnchorPoint: "2tashkil.below" -18 -524 basemark 0
AnchorPoint: "tashkildot.below" -20.5 -375 mark 0
AnchorPoint: "tashkil.below" -20.5 -375 mark 0
LayerCount: 2
Fore
SplineSet
103.5 -378 m 256
 109.992 -378 110.5 -378.269 110.5 -385 c 0
 110.5 -385.006 101.586 -422.866 82.5 -434 c 2
 60.5 -447 l 1
 -71.5 -515 l 1
 -98.3534 -527.636 -101.61 -532 -104.5 -532 c 0
 -108.5 -532 -110.5 -530 -110.5 -526 c 0
 -110.5 -508.892 -92.7846 -482.144 -83.5 -477.5 c 0
 -80.167 -475.833 -76.167 -473.333 -71.5 -470 c 2
 64.5 -399 l 1
 87.5 -385 l 2
 95.5 -380.333 100.833 -378 103.5 -378 c 256
EndSplineSet
EndChar

StartChar: uni0651
Encoding: 1617 1617 128
Width: 0
VWidth: 1399
GlyphClass: 4
Flags: W
AnchorPoint: "2tashkil.above" 15 690 mark 0
AnchorPoint: "2tashkil.above" 0 939 basemark 0
AnchorPoint: "tashkildot.above" 11.5 690 mark 0
AnchorPoint: "tashkil.above" 11.5 690 mark 0
LayerCount: 2
Fore
SplineSet
112.5 920 m 0
 120.3 920 125.5 870.9 125.5 857 c 0
 125.5 804.542 111.5 729 55.5 729 c 0
 36.833 729 20.833 733.667 7.5 743 c 1
 -7 721 l 2
 -32.8203 683.132 -58.7153 682 -67.5 682 c 0
 -90.7 682 -125.5 700.5 -125.5 760 c 0
 -125.5 770.081 -115.051 841.519 -104.5 838 c 0
 -102.5 837.333 -100.167 837 -97.5 837 c 0
 -84.9125 837 -101.156 757 -65.5 757 c 0
 -34.9509 757 -15.9494 816.385 -10.5 840 c 2
 -5.5 862 l 1
 -3.5 872 l 2
 -2.83301 874 -0.5 875 3.5 875 c 2
 10.5 875 l 2
 21.0164 875 16.4883 808 52.5 808 c 0
 86.9 808 95.5 890.877 95.5 910 c 1
 96.8418 915.365 109.1 920 112.5 920 c 0
EndSplineSet
EndChar

StartChar: uni0652
Encoding: 1618 1618 129
Width: 0
VWidth: 1399
GlyphClass: 4
Flags: W
AnchorPoint: "2tashkil.above" -10 926 basemark 0
AnchorPoint: "2tashkil.above" -9 545 mark 0
AnchorPoint: "tashkildot.above" -9 645 mark 0
AnchorPoint: "tashkil.above" -9 645 mark 0
LayerCount: 2
Fore
SplineSet
11 886 m 0
 50.1063 886 86 833.166 86 792 c 0
 86 730.198 38.886 682 -20 682 c 0
 -72.8 682 -86 728.2 -86 781 c 0
 -86 836.725 -47.2 886 11 886 c 0
-3 745 m 0
 19.9909 745 53 759.141 53 771 c 0
 53 799.24 10.2075 834 -23 834 c 0
 -55.1469 834 -63 803.55 -63 787 c 0
 -63 758.975 -33.9934 745 -3 745 c 0
EndSplineSet
EndChar

StartChar: yaa.fina_AynYaa.isol
Encoding: 65663 -1 131
Width: 725
VWidth: 0
Flags: MW
AnchorPoint: "dot.above" 298 456 basechar 0
AnchorPoint: "tashkil.above" 298 456 basechar 0
AnchorPoint: "dot.below" 224 -306 basechar 0
AnchorPoint: "hamza.above" 118 354 basechar 0
AnchorPoint: "tashkil.below" 222 -306 basechar 0
AnchorPoint: "curs" 452 128 entry 0
LayerCount: 2
Back
SplineSet
979.598 384.963 m 2
 979.075 343.396 l 2
 978.982 335.956 973.996 329.055 967.7 326.105 c 0
 819.205 256.552 628.195 199.681 518.805 148.813 c 1
 584.222 138.293 656.002 120.236 672.171 94.6709 c 0
 679.578 82.958 674.742 20.2402 652.733 -8.49414 c 0
 609.206 -65.3252 393.196 -207.353 208.947 -197.684 c 0
 -0.298828 -186.785 -13.5049 6.3623 12.7021 89.6758 c 0
 31.2021 148.487 72.6709 228.621 110.824 285.921 c 0
 120.205 300.01 148.76 295.365 131.851 268.789 c 0
 100.906 220.151 34.292 124.407 59.4268 45.2871 c 0
 91.7432 -56.4395 203.124 -88.3545 244.77 -87.1016 c 0
 377.619 -83.1191 528.493 -37.4277 617.052 39.2383 c 0
 622.423 43.8877 623.074 46.918 617.08 51.1865 c 0
 591.113 69.6797 473.555 81.4326 401.317 87.1182 c 0
 392.409 87.8193 389.315 89.4336 392.928 98.3584 c 0
 403.384 124.187 418.669 146.554 432.299 170.041 c 0
 435.299 175.21 437.905 178.179 442.867 181.07 c 0
 497.531 212.926 559.375 242.882 641.478 274.885 c 1
 616.141 302.456 571.127 338.73 580.278 382.353 c 0
 596.12 457.868 709.239 563.859 770.64 572.997 c 0
 808.06 578.565 890.077 535.269 922.3 500.887 c 0
 929.678 493.014 924.053 483.977 913.83 487.38 c 0
 833.804 514.021 714.945 497.606 647.394 426.292 c 0
 644.729 423.479 645.123 420.771 647.081 417.678 c 0
 662.068 394 700.748 356.965 783.383 341.307 c 0
 834.375 331.645 911.953 373.642 964.079 399.608 c 0
 970.694 402.904 979.743 396.488 979.598 384.963 c 2
EndSplineSet
Fore
SplineSet
518.805 148.813 m 1
 584.222 138.293 656.002 120.236 672.171 94.6709 c 0
 679.578 82.958 674.742 20.2402 652.733 -8.49414 c 0
 609.206 -65.3252 393.196 -207.353 208.947 -197.684 c 0
 -0.298828 -186.785 -13.5049 6.3623 12.7021 89.6758 c 0
 31.2021 148.487 72.6709 228.621 110.824 285.921 c 0
 120.205 300.01 148.76 295.365 131.851 268.789 c 0
 100.906 220.151 34.292 124.407 59.4268 45.2871 c 0
 91.7432 -56.4395 203.124 -88.3545 244.77 -87.1016 c 0
 377.619 -83.1191 528.493 -37.4277 617.052 39.2383 c 0
 622.423 43.8877 623.074 46.918 617.08 51.1865 c 0
 591.113 69.6797 473.555 81.4326 401.317 87.1182 c 0
 392.409 87.8193 389.315 89.4336 392.928 98.3584 c 0
 403.384 124.187 418.669 146.554 432.299 170.041 c 0
 435.299 175.21 437.905 178.179 442.867 181.07 c 0
 518.805 148.813 l 1
EndSplineSet
EndChar

StartChar: ayn.init_AynYaa.isol
Encoding: 65664 -1 132
Width: 587
VWidth: 0
Flags: MW
AnchorPoint: "dot.below" 406 148 basechar 0
AnchorPoint: "tashkil.below" 406 148 basechar 0
AnchorPoint: "dot.above" 226 642 basechar 0
AnchorPoint: "tashkil.above" 226 642 basechar 0
AnchorPoint: "curs" 10 128 exit 0
LayerCount: 2
Back
SplineSet
537.598 384.963 m 2
 537.075 343.396 l 2
 536.982 335.956 531.996 329.055 525.7 326.105 c 0
 377.205 256.552 186.195 199.681 76.8047 148.813 c 1
 142.222 138.293 214.002 120.236 230.171 94.6709 c 0
 237.578 82.958 232.742 20.2402 210.733 -8.49414 c 0
 167.206 -65.3252 -48.8037 -207.353 -233.053 -197.684 c 0
 -442.299 -186.785 -455.505 6.3623 -429.298 89.6758 c 0
 -410.798 148.487 -369.329 228.621 -331.176 285.921 c 0
 -321.795 300.01 -293.24 295.365 -310.149 268.789 c 0
 -341.094 220.151 -407.708 124.407 -382.573 45.2871 c 0
 -350.257 -56.4395 -238.876 -88.3545 -197.23 -87.1016 c 0
 -64.3809 -83.1191 86.4932 -37.4277 175.052 39.2383 c 0
 180.423 43.8877 181.074 46.918 175.08 51.1865 c 0
 149.113 69.6797 31.5547 81.4326 -40.6826 87.1182 c 0
 -49.5908 87.8193 -52.6846 89.4336 -49.0723 98.3584 c 0
 -38.6162 124.187 -23.3311 146.554 -9.70117 170.041 c 0
 -6.70117 175.21 -4.09473 178.179 0.867188 181.07 c 0
 55.5312 212.926 117.375 242.882 199.478 274.885 c 1
 174.141 302.456 129.127 338.73 138.278 382.353 c 0
 154.12 457.868 267.239 563.859 328.64 572.997 c 0
 366.06 578.565 448.077 535.269 480.3 500.887 c 0
 487.678 493.014 482.053 483.977 471.83 487.38 c 0
 391.804 514.021 272.945 497.606 205.394 426.292 c 0
 202.729 423.479 203.123 420.771 205.081 417.678 c 0
 220.068 394 258.748 356.965 341.383 341.307 c 0
 392.375 331.645 469.953 373.642 522.079 399.608 c 0
 528.694 402.904 537.743 396.488 537.598 384.963 c 2
EndSplineSet
Fore
SplineSet
0.867188 181.07 m 0
 55.5312 212.926 117.375 242.882 199.478 274.885 c 1
 174.141 302.456 129.127 338.73 138.278 382.353 c 0
 154.12 457.868 267.239 563.859 328.64 572.997 c 0
 366.06 578.565 448.077 535.269 480.3 500.887 c 0
 487.678 493.014 482.053 483.977 471.83 487.38 c 0
 391.804 514.021 272.945 497.606 205.394 426.292 c 0
 202.729 423.479 203.123 420.771 205.081 417.678 c 0
 220.068 394 258.748 356.965 341.383 341.307 c 0
 392.375 331.645 469.953 373.642 522.079 399.608 c 0
 528.694 402.904 537.743 396.488 537.598 384.963 c 2
 537.075 343.396 l 2
 536.982 335.956 531.996 329.055 525.7 326.105 c 0
 377.205 256.552 186.195 199.681 76.8047 148.813 c 1
 0.867188 181.07 l 0
EndSplineSet
EndChar

StartChar: yaa.fina_AynYaa.fina
Encoding: 65665 -1 133
Width: 931
VWidth: 0
Flags: MW
AnchorPoint: "tashkil.below" 302 -400 basechar 0
AnchorPoint: "hamza.above" 138 204 basechar 0
AnchorPoint: "dot.below" 304 -400 basechar 0
AnchorPoint: "tashkil.above" 318 306 basechar 0
AnchorPoint: "dot.above" 318 306 basechar 0
AnchorPoint: "curs" 502.39 7 entry 0
LayerCount: 2
Back
SplineSet
735.556 298.53 m 0
 776.499 298.144 817.298 282.082 848.681 241.249 c 0
 862.159 223.712 871.993 192.565 867.118 169.062 c 0
 866.403 165.609 865.521 162.513 862.649 160.688 c 0
 845.806 149.306 828.714 141.794 809.472 133.607 c 1
 839.651 110.24 875.503 95.6504 931.431 95.4365 c 1
 930.337 -0.657227 l 1
 830.974 8.03711 790.031 50.5986 742.856 93.752 c 0
 739.066 97.2227 734.303 96.9365 729.171 94.7188 c 0
 677.49 72.3916 612.073 54.3506 571.837 29.0928 c 0
 567.743 26.0215 564.635 22.4023 570.493 21.374 c 0
 624.178 11.9492 696.587 -16.0684 710.087 -55.7197 c 0
 718.65 -80.8711 700.101 -148.288 693.087 -158.813 c 0
 663.753 -202.835 465.368 -287.622 322.399 -305.72 c 0
 217.622 -318.982 65.1689 -297.979 50.5244 -134.251 c 0
 45.042 -72.9473 83.2432 43.4326 132.024 124.093 c 0
 142.135 140.811 164.474 135.963 152.618 111.655 c 0
 120.195 45.1738 85.6074 -28 119.774 -115.22 c 0
 145.813 -181.688 234.543 -218.482 351.649 -202.845 c 0
 458.749 -188.544 569.728 -153.028 657.993 -95.6572 c 0
 662.697 -92.5996 663.24 -89.1748 657.181 -85.751 c 0
 601.26 -54.1494 526.377 -45.5811 453.181 -37.376 c 0
 446.747 -36.6543 442.068 -33.6738 440.837 -27.4385 c 0
 437.88 -12.46 441.3 5.14844 443.149 22.124 c 0
 444.524 34.7334 451.062 39.9199 457.462 44.249 c 0
 516.977 84.5059 587.74 111.853 659.814 139.321 c 1
 637.17 156.801 618.04 169.677 584.517 177.164 c 0
 577.973 178.626 578.659 178.968 579.016 186.031 c 0
 580.376 212.976 588.726 235.034 602.899 247.374 c 0
 636.495 276.62 686.142 298.998 735.556 298.53 c 0
EndSplineSet
Fore
SplineSet
571.837 29.0928 m 0
 567.743 26.0215 564.635 22.4023 570.493 21.374 c 0
 624.178 11.9492 696.587 -16.0684 710.087 -55.7197 c 0
 718.65 -80.8711 700.101 -148.288 693.087 -158.813 c 0
 663.753 -202.835 465.368 -287.622 322.399 -305.72 c 0
 217.622 -318.982 65.1689 -297.979 50.5244 -134.251 c 0
 45.042 -72.9473 83.2432 43.4326 132.024 124.093 c 0
 142.135 140.811 164.474 135.963 152.618 111.655 c 0
 120.195 45.1738 85.6074 -28 119.774 -115.22 c 0
 145.813 -181.688 234.543 -218.482 351.649 -202.845 c 0
 458.749 -188.544 569.728 -153.028 657.993 -95.6572 c 0
 662.697 -92.5996 663.24 -89.1748 657.181 -85.751 c 0
 601.26 -54.1494 526.377 -45.5811 453.181 -37.376 c 0
 446.747 -36.6543 442.068 -33.6738 440.837 -27.4385 c 0
 437.88 -12.46 441.3 5.14844 443.149 22.124 c 0
 444.524 34.7334 451.062 39.9199 457.462 44.249 c 0
 571.837 29.0928 l 0
EndSplineSet
EndChar

StartChar: ayn.medi_AynYaa.fina
Encoding: 65666 -1 134
Width: 931
VWidth: 0
Flags: MW
AnchorPoint: "dot.below" 823 -193 basechar 0
AnchorPoint: "dot.above" 737 450 basechar 0
AnchorPoint: "tashkil.above" 737 450 basechar 0
AnchorPoint: "tashkil.below" 823 -193 basechar 0
AnchorPoint: "curs" 502.39 7 exit 0
LayerCount: 2
Back
SplineSet
735.556 298.53 m 0
 776.499 298.144 817.298 282.082 848.681 241.249 c 0
 862.159 223.712 871.993 192.565 867.118 169.062 c 0
 866.403 165.609 865.521 162.513 862.649 160.688 c 0
 845.806 149.306 828.714 141.794 809.472 133.607 c 1
 839.651 110.24 875.503 95.6504 931.431 95.4365 c 1
 930.337 -0.657227 l 1
 830.974 8.03711 790.031 50.5986 742.856 93.752 c 0
 739.066 97.2227 734.303 96.9365 729.171 94.7188 c 0
 677.49 72.3916 612.073 54.3506 571.837 29.0928 c 0
 567.743 26.0215 564.635 22.4023 570.493 21.374 c 0
 624.178 11.9492 696.587 -16.0684 710.087 -55.7197 c 0
 718.65 -80.8711 700.101 -148.288 693.087 -158.813 c 0
 663.753 -202.835 465.368 -287.622 322.399 -305.72 c 0
 217.622 -318.982 65.1689 -297.979 50.5244 -134.251 c 0
 45.042 -72.9473 83.2432 43.4326 132.024 124.093 c 0
 142.135 140.811 164.474 135.963 152.618 111.655 c 0
 120.195 45.1738 85.6074 -28 119.774 -115.22 c 0
 145.813 -181.688 234.543 -218.482 351.649 -202.845 c 0
 458.749 -188.544 569.728 -153.028 657.993 -95.6572 c 0
 662.697 -92.5996 663.24 -89.1748 657.181 -85.751 c 0
 601.26 -54.1494 526.377 -45.5811 453.181 -37.376 c 0
 446.747 -36.6543 442.068 -33.6738 440.837 -27.4385 c 0
 437.88 -12.46 441.3 5.14844 443.149 22.124 c 0
 444.524 34.7334 451.062 39.9199 457.462 44.249 c 0
 516.977 84.5059 587.74 111.853 659.814 139.321 c 1
 637.17 156.801 618.04 169.677 584.517 177.164 c 0
 577.973 178.626 578.659 178.968 579.016 186.031 c 0
 580.376 212.976 588.726 235.034 602.899 247.374 c 0
 636.495 276.62 686.142 298.998 735.556 298.53 c 0
EndSplineSet
Fore
SplineSet
457.462 44.249 m 0
 516.977 84.5059 587.74 111.853 659.814 139.321 c 1
 637.17 156.801 618.04 169.677 584.517 177.164 c 0
 577.973 178.626 578.659 178.968 579.016 186.031 c 0
 580.376 212.976 588.726 235.034 602.899 247.374 c 0
 636.495 276.62 686.142 298.998 735.556 298.53 c 0
 776.499 298.144 817.298 282.082 848.681 241.249 c 0
 862.159 223.712 871.993 192.565 867.118 169.062 c 0
 866.403 165.609 865.521 162.513 862.649 160.688 c 0
 845.806 149.306 828.714 141.794 809.472 133.607 c 1
 839.651 110.24 875.503 95.6504 931.431 95.4365 c 1
 930.337 -0.657227 l 1
 830.974 8.03711 790.031 50.5986 742.856 93.752 c 0
 739.066 97.2227 734.303 96.9365 729.171 94.7188 c 0
 677.49 72.3916 612.073 54.3506 571.837 29.0928 c 0
 457.462 44.249 l 0
EndSplineSet
EndChar

StartChar: haa.medi_BaaHaa.init
Encoding: 65667 -1 135
Width: 630
VWidth: 0
Flags: MW
AnchorPoint: "dot.below" 229 -61 basechar 0
AnchorPoint: "dot.above" 72 490 basechar 0
AnchorPoint: "tashkil.above" 72 490 basechar 0
AnchorPoint: "tashkil.below" 229 -61 basechar 0
AnchorPoint: "curs" 78 240 entry 0
LayerCount: 2
Back
SplineSet
449.84 381.876 m 4
 449.564 431.343 437.179 486.577 405.592 490.461 c 4
 401.026 491.022 391.701 491.273 385.146 482.896 c 4
 361.785 453.044 325.108 407.242 294.753 378.322 c 4
 252.104 337.692 211.271 309.237 173.597 287.137 c 4
 169.061 284.476 166.909 280.73 173.599 278.754 c 4
 304.16 240.182 423.698 211.418 562.424 205.344 c 4
 572.967 204.883 584.298 196.109 578.848 181.226 c 6
 560.074 129.962 l 6
 557.492 122.913 548.368 115.548 540.601 116.883 c 4
 343.395 150.77 138.47 44.9922 6.34668 0 c 5
 14.6426 104.275 l 5
 90.7256 109.272 167.371 126.174 231.729 152.565 c 4
 236.69 154.6 238.354 157.822 232.629 159.871 c 4
 163.741 184.529 84.8184 203.135 -0.946289 198.538 c 5
 -0.290039 314.688 74.7383 306.221 243.513 398.216 c 4
 289.089 423.059 325.661 469.253 346.36 498.009 c 4
 372.005 533.635 380.003 602.098 419.11 603.489 c 4
 473.876 605.489 484.168 429.339 484.199 383.369 c 4
 484.215 361.192 449.992 354.676 449.84 381.876 c 4
EndSplineSet
Fore
SplineSet
173.597 287.137 m 0
 169.061 284.476 166.909 280.73 173.599 278.754 c 0
 304.16 240.182 423.698 211.418 562.424 205.344 c 0
 572.967 204.883 584.298 196.109 578.848 181.226 c 2
 560.074 129.962 l 2
 557.492 122.913 548.368 115.548 540.601 116.883 c 0
 343.395 150.77 138.47 44.9922 6.34668 0 c 1
 14.6426 104.275 l 1
 90.7256 109.272 167.371 126.174 231.729 152.565 c 0
 236.69 154.6 238.354 157.822 232.629 159.871 c 0
 163.741 184.529 84.8184 203.135 -0.946289 198.538 c 1
 -0.632093 254.148 16.7301 281.192 53.2665 304.373 c 1
 173.597 287.137 l 0
EndSplineSet
EndChar

StartChar: baa.init_BaaHaa.init
Encoding: 65668 -1 136
Width: 534
VWidth: 0
Flags: MW
AnchorPoint: "dot.above" 414 703 basechar 0
AnchorPoint: "dot.below" 484 -2 basechar 0
AnchorPoint: "hamza.above" 414 703 basechar 0
AnchorPoint: "hamza.below" 485 -3 basechar 0
AnchorPoint: "tashkil.below" 484 -2 basechar 0
AnchorPoint: "tashkil.above" 414 703 basechar 0
AnchorPoint: "curs" 78 240 exit 0
LayerCount: 2
Back
SplineSet
449.84 381.876 m 0
 449.564 431.343 437.179 486.577 405.592 490.461 c 0
 401.026 491.022 391.701 491.273 385.146 482.896 c 0
 361.785 453.044 325.108 407.242 294.753 378.322 c 0
 252.104 337.692 211.271 309.237 173.597 287.137 c 0
 169.061 284.476 166.909 280.73 173.599 278.754 c 0
 304.16 240.182 423.698 211.418 562.424 205.344 c 0
 572.967 204.883 584.298 196.109 578.848 181.226 c 2
 560.074 129.962 l 2
 557.492 122.913 548.368 115.548 540.601 116.883 c 0
 343.395 150.77 138.47 44.9922 6.34668 0 c 1
 14.6426 104.275 l 1
 90.7256 109.272 167.371 126.174 231.729 152.565 c 0
 236.69 154.6 238.354 157.822 232.629 159.871 c 0
 163.741 184.529 84.8184 203.135 -0.946289 198.538 c 1
 -0.290039 314.688 74.7383 306.221 243.513 398.216 c 0
 289.089 423.059 325.661 469.253 346.36 498.009 c 0
 372.005 533.635 380.003 602.098 419.11 603.489 c 0
 473.876 605.489 484.168 429.339 484.199 383.369 c 0
 484.215 361.192 449.992 354.676 449.84 381.876 c 0
EndSplineSet
Fore
SplineSet
53.2665 304.373 m 1
 93.0424 329.609 155.543 350.266 243.513 398.216 c 0
 289.089 423.059 325.661 469.253 346.36 498.009 c 0
 372.005 533.635 380.003 602.098 419.11 603.489 c 0
 473.876 605.489 484.168 429.339 484.199 383.369 c 0
 484.215 361.192 449.992 354.676 449.84 381.876 c 0
 449.564 431.343 437.179 486.577 405.592 490.461 c 0
 401.026 491.022 391.701 491.273 385.146 482.896 c 0
 361.785 453.044 325.108 407.242 294.753 378.322 c 0
 252.104 337.692 211.271 309.237 173.597 287.137 c 0
 53.2665 304.373 l 1
EndSplineSet
EndChar

StartChar: haa.fina_BaaHaa.isol
Encoding: 65669 -1 137
Width: 1000
VWidth: 0
Flags: MW
AnchorPoint: "dot.below" 303 42 basechar 0
AnchorPoint: "dot.above" 89 731 basechar 0
AnchorPoint: "tashkil.above" 89 731 basechar 0
AnchorPoint: "tashkil.below" 303 42 basechar 0
AnchorPoint: "curs" 72 426 entry 0
LayerCount: 2
Back
SplineSet
134.582 477.639 m 0
 290.045 474.454 446.573 475.118 602.004 483.424 c 0
 606.943 483.688 613.713 480.652 611.043 474.139 c 2
 585.806 412.558 l 2
 580.756 400.236 569.605 401.97 561.386 400.408 c 0
 506.106 389.911 417.159 377.946 333.258 344.163 c 0
 223.835 300.104 80.6709 193.584 77.7148 40.4727 c 0
 75.1748 -91.1182 139.717 -158.532 225.105 -189.504 c 0
 374.72 -243.771 654.092 -211.35 763.022 -198.08 c 0
 779.62 -196.071 776.064 -216.788 768.033 -221.191 c 0
 677.111 -271.039 530.204 -326.212 418.344 -328.283 c 0
 291.015 -330.641 86.0303 -301.09 40.9219 -109.113 c 0
 8.11035 30.5244 47.9609 203.035 260.781 381.716 c 1
 3.73926 383.842 l 1
 1.44434 446.469 34.3682 477.488 102.522 517.836 c 1
 200.158 573.809 290.708 621.894 329.527 719.183 c 0
 354.638 784.098 368.8 845.956 401.221 845.775 c 0
 433.644 845.595 463.931 787.443 474.003 725.604 c 0
 479.808 689.97 477.653 652.48 476.223 622.437 c 0
 474.704 590.531 450.656 593.29 447.999 614.316 c 0
 443.09 653.427 431.239 739.475 393.933 739.355 c 0
 374.738 739.294 363.829 714.735 343.061 671.522 c 1
 315.399 623.13 280.016 577.56 237.461 541.239 c 0
 208.77 518.019 172.59 496.489 136.276 482.487 c 0
 133.563 481.441 130.46 477.723 134.582 477.639 c 0
EndSplineSet
Fore
SplineSet
136.276 482.487 m 0
 133.563 481.441 130.46 477.723 134.582 477.639 c 0
 290.045 474.454 446.573 475.118 602.004 483.424 c 0
 606.943 483.688 613.713 480.652 611.043 474.139 c 2
 585.806 412.558 l 2
 580.756 400.236 569.605 401.97 561.386 400.408 c 0
 506.106 389.911 417.159 377.946 333.258 344.163 c 0
 223.835 300.104 80.6709 193.584 77.7148 40.4727 c 0
 75.1748 -91.1182 139.717 -158.532 225.105 -189.504 c 0
 374.72 -243.771 654.092 -211.35 763.022 -198.08 c 0
 779.62 -196.071 776.064 -216.788 768.033 -221.191 c 0
 677.111 -271.039 530.204 -326.212 418.344 -328.283 c 0
 291.015 -330.641 86.0303 -301.09 40.9219 -109.113 c 0
 8.11035 30.5244 47.9609 203.035 260.781 381.716 c 1
 3.73926 383.842 l 1
 1.44434 446.469 34.3682 477.488 102.522 517.836 c 1
 136.276 482.487 l 0
EndSplineSet
EndChar

StartChar: baa.init_BaaHaa.isol
Encoding: 65670 -1 138
Width: 527
VWidth: 0
Flags: MW
AnchorPoint: "tashkil.above" 402 951 basechar 0
AnchorPoint: "tashkil.below" 560 212 basechar 0
AnchorPoint: "hamza.below" 561 211 basechar 0
AnchorPoint: "hamza.above" 402 951 basechar 0
AnchorPoint: "dot.below" 560 212 basechar 0
AnchorPoint: "dot.above" 402 951 basechar 0
AnchorPoint: "curs" 72 426 exit 0
LayerCount: 2
Back
SplineSet
134.582 477.639 m 4
 290.045 474.454 446.573 475.118 602.004 483.424 c 4
 606.943 483.688 613.713 480.652 611.043 474.139 c 6
 585.806 412.558 l 6
 580.756 400.236 569.605 401.97 561.386 400.408 c 4
 506.106 389.911 417.159 377.946 333.258 344.163 c 4
 223.835 300.104 80.6709 193.584 77.7148 40.4727 c 4
 75.1748 -91.1182 139.717 -158.532 225.105 -189.504 c 4
 374.72 -243.771 654.092 -211.35 763.022 -198.08 c 4
 779.62 -196.071 776.064 -216.788 768.033 -221.191 c 4
 677.111 -271.039 530.204 -326.212 418.344 -328.283 c 4
 291.015 -330.641 86.0303 -301.09 40.9219 -109.113 c 4
 8.11035 30.5244 47.9609 203.035 260.781 381.716 c 5
 3.73926 383.842 l 5
 1.44434 446.469 34.3682 477.488 102.522 517.836 c 5
 200.158 573.809 290.708 621.894 329.527 719.183 c 4
 354.638 784.098 368.8 845.956 401.221 845.775 c 4
 433.644 845.595 463.931 787.443 474.003 725.604 c 4
 479.808 689.97 477.653 652.48 476.223 622.437 c 4
 474.704 590.531 450.656 593.29 447.999 614.316 c 4
 443.09 653.427 431.239 739.475 393.933 739.355 c 4
 374.738 739.294 363.829 714.735 343.061 671.522 c 5
 315.399 623.13 280.016 577.56 237.461 541.239 c 4
 208.77 518.019 172.59 496.489 136.276 482.487 c 4
 133.563 481.441 130.46 477.723 134.582 477.639 c 4
EndSplineSet
Fore
SplineSet
102.522 517.836 m 1
 200.158 573.809 290.708 621.894 329.527 719.183 c 0
 354.638 784.098 368.8 845.956 401.221 845.775 c 0
 433.644 845.595 463.931 787.443 474.003 725.604 c 0
 479.808 689.97 477.653 652.48 476.223 622.437 c 0
 474.704 590.531 450.656 593.29 447.999 614.316 c 0
 443.09 653.427 431.239 739.475 393.933 739.355 c 0
 374.738 739.294 363.829 714.735 343.061 671.522 c 1
 315.399 623.13 280.016 577.56 237.461 541.239 c 0
 208.77 518.019 172.59 496.489 136.276 482.487 c 0
 102.522 517.836 l 1
EndSplineSet
EndChar

StartChar: heh.medi_BaaHeh.init
Encoding: 65671 -1 139
Width: 198
VWidth: 0
Flags: MW
AnchorPoint: "tashkil.below" 124 -370 basechar 0
AnchorPoint: "tashkil.above" 128 360 basechar 0
AnchorPoint: "curs" 126 -168 entry 0
LayerCount: 2
Back
SplineSet
456.809 67.8291 m 1
 439.467 102.934 418.074 114.606 376.331 112.645 c 0
 282.029 108.16 200.688 58.8418 181.442 15.1855 c 0
 139.899 -79.0479 161.159 -163.133 185.998 -228.797 c 0
 187.935 -233.916 189.317 -238.035 185.998 -242.971 c 2
 148.54 -298.651 l 2
 145.624 -302.985 143.373 -311.159 137.403 -304.22 c 0
 66.2402 -221.491 64.2275 -93.9863 94.3779 35.9395 c 1
 61.2422 11.5273 18.5059 2.88965 0.226562 0 c 1
 0.226562 97.1885 l 1
 38.4775 103.75 75.6357 117.6 107.032 138.695 c 0
 132.597 155.873 149.759 195.836 171.824 225.254 c 0
 187.283 245.863 204.138 231.902 196.628 218.674 c 0
 177.113 184.299 150.795 131.047 132.404 75.5889 c 0
 111.633 12.9492 100.58 -52.1113 113.486 -88.583 c 0
 114.021 -90.0947 115.74 -89.8877 116.491 -88.0059 c 0
 175.448 59.8994 238.259 129.149 309.565 167.759 c 0
 373.53 202.394 432.389 211.182 480.947 192.265 c 0
 498.02 185.613 518.004 171.876 519.071 148.293 c 0
 520.002 127.699 511.212 98.752 486.674 70.3604 c 0
 476.456 58.5381 463.666 57.9102 456.809 67.8291 c 1
EndSplineSet
Fore
SplineSet
185.998 -242.971 m 2,0,-1
137.403 -304.22 m 0,1,-1
 66.2402 -221.491 64.2275 -93.9863 94.3779 35.9395 c 1,4,-1
 61.2422 11.5273 18.5059 2.88965 0.226562 0 c 1,7,-1
 0.226562 97.1885 l 1,8,-1
 38.4775 103.75 75.6357 117.6 107.032 138.695 c 0,11,-1
 132.597 155.873 149.759 195.836 171.824 225.254 c 0,14,-1
 187.283 245.863 204.138 231.902 196.628 218.674 c 0,17,-1
 177.113 184.299 150.795 131.047 132.404 75.5889 c 0,20,-1
 111.633 12.9492 100.58 -52.1113 113.486 -88.583 c 0,23,-1
 137.403 -304.22 l 0,1,-1
EndSplineSet
EndChar

StartChar: baa.init_BaaHeh.init
Encoding: 65672 -1 140
Width: 569
VWidth: 0
Flags: MW
AnchorPoint: "tashkil.above" 394 385 basechar 0
AnchorPoint: "tashkil.below" 374 -78 basechar 0
AnchorPoint: "hamza.below" 375 -79 basechar 0
AnchorPoint: "hamza.above" 394 385 basechar 0
AnchorPoint: "dot.below" 374 -78 basechar 0
AnchorPoint: "dot.above" 394 385 basechar 0
AnchorPoint: "curs" 126 -168 exit 0
LayerCount: 2
Back
SplineSet
456.809 67.8291 m 1
 439.467 102.934 418.074 114.606 376.331 112.645 c 0
 282.029 108.16 200.688 58.8418 181.442 15.1855 c 0
 139.899 -79.0479 161.159 -163.133 185.998 -228.797 c 0
 187.935 -233.916 189.317 -238.035 185.998 -242.971 c 2
 148.54 -298.651 l 2
 145.624 -302.985 143.373 -311.159 137.403 -304.22 c 0
 66.2402 -221.491 64.2275 -93.9863 94.3779 35.9395 c 1
 61.2422 11.5273 18.5059 2.88965 0.226562 0 c 1
 0.226562 97.1885 l 1
 38.4775 103.75 75.6357 117.6 107.032 138.695 c 0
 132.597 155.873 149.759 195.836 171.824 225.254 c 0
 187.283 245.863 204.138 231.902 196.628 218.674 c 0
 177.113 184.299 150.795 131.047 132.404 75.5889 c 0
 111.633 12.9492 100.58 -52.1113 113.486 -88.583 c 0
 114.021 -90.0947 115.74 -89.8877 116.491 -88.0059 c 0
 175.448 59.8994 238.259 129.149 309.565 167.759 c 0
 373.53 202.394 432.389 211.182 480.947 192.265 c 0
 498.02 185.613 518.004 171.876 519.071 148.293 c 0
 520.002 127.699 511.212 98.752 486.674 70.3604 c 0
 476.456 58.5381 463.666 57.9102 456.809 67.8291 c 1
EndSplineSet
Fore
SplineSet
116.491 -88.0059 m 0
 175.448 59.8994 238.259 129.149 309.565 167.759 c 0
 373.53 202.394 432.389 211.182 480.947 192.265 c 0
 498.02 185.613 518.004 171.876 519.071 148.293 c 0
 520.002 127.699 511.212 98.752 486.674 70.3604 c 0
 476.456 58.5381 463.666 57.9102 456.809 67.8291 c 1
 439.467 102.934 418.074 114.606 376.331 112.645 c 0
 282.029 108.16 200.688 58.8418 181.442 15.1855 c 0
 139.899 -79.0479 161.159 -163.133 185.998 -228.797 c 0
 187.935 -233.916 189.317 -238.035 185.998 -242.971 c 2
 148.54 -298.651 l 2
 145.624 -302.985 143.373 -311.159 137.403 -304.22 c 0
 116.491 -88.0059 l 0
EndSplineSet
EndChar

StartChar: baa.init_BaaHeh.isol
Encoding: 65674 -1 141
Width: 479
VWidth: 0
Flags: MW
AnchorPoint: "dot.above" 407.758 399.875 basechar 0
AnchorPoint: "dot.below" 396.758 -67.916 basechar 0
AnchorPoint: "hamza.above" 407.758 399.875 basechar 0
AnchorPoint: "hamza.below" 397.498 -68.6562 basechar 0
AnchorPoint: "tashkil.below" 396.758 -67.916 basechar 0
AnchorPoint: "tashkil.above" 407.758 399.875 basechar 0
AnchorPoint: "curs" 328.402 94.7324 exit 0
LayerCount: 2
Back
SplineSet
242.915 463.578 m 0
 244.272 463.504 245.156 461.038 245.846 456.187 c 0
 260.051 356.116 271.304 202.013 287.527 166.286 c 0
 300.005 138.811 330.763 130.122 360.359 136.428 c 0
 385.382 141.761 409.556 158.299 421.58 178.299 c 1
 410.286 207.464 392.368 228.354 374.415 249.195 c 0
 372.292 251.66 372.084 252.247 373.125 255.673 c 2
 394.329 325.413 l 2
 396.295 331.884 398.845 329.318 401.183 326.058 c 0
 433.031 281.64 453.806 216.104 447.192 146.506 c 0
 444.794 121.266 439.359 98.6074 426.606 82.8936 c 0
 383.98 30.376 283.095 22.6855 260.841 73.8096 c 0
 248.892 101.262 240.712 135.62 234.719 172.951 c 1
 221.929 150.861 210.439 127.186 187.177 118.69 c 0
 159.975 108.758 89.2549 121.123 54.2266 133.445 c 0
 43.7705 137.123 33.3701 150.742 35.2246 162.174 c 0
 40.0596 191.976 45.7461 226.837 64.2773 243.928 c 0
 97.2275 274.319 168.146 306.938 218.352 334.282 c 1
 216.341 360.77 214.361 386.171 211.875 409.048 c 0
 211.063 416.505 211.066 422.198 215.933 428.774 c 2
 239.879 461.132 l 2
 241.118 462.807 242.101 463.621 242.915 463.578 c 0
221.522 292.976 m 1
 176.044 273.473 124.926 246.62 95.6406 223.288 c 0
 91.6572 220.115 93.9072 216.224 98.2744 213.828 c 0
 115.998 204.109 175.97 194.549 216.31 204.422 c 0
 221.372 205.661 225.649 207.963 229.397 210.979 c 1
 226.135 237.939 223.689 265.685 221.522 292.976 c 1
EndSplineSet
Fore
SplineSet
329.249 136.065 m 1
 339.082 134.421 349.612 134.787 360 137 c 0
 385.022 142.332 409.196 158.871 421.221 178.871 c 1
 409.926 208.035 392.008 228.927 374.056 249.768 c 0
 371.933 252.231 371.724 252.819 372.766 256.244 c 2
 393.97 325.984 l 2
 395.935 332.456 398.484 329.891 400.823 326.63 c 0
 432.671 282.212 453.445 216.675 446.833 147.078 c 0
 444.435 121.838 439 99.1797 426.246 83.4648 c 0
 403.546 55.4961 364.321 40.2422 329.249 39.8135 c 1
 329.249 136.065 l 1
EndSplineSet
EndChar

StartChar: heh.fina_Lellah.isol
Encoding: 65675 -1 142
Width: 340
VWidth: 0
Flags: MW
AnchorPoint: "tashkil.above" 85 472 basechar 0
AnchorPoint: "tashkil.below" 85 -101 basechar 0
AnchorPoint: "curs" 304 62 entry 0
LayerCount: 2
Back
SplineSet
565.312 528.875 m 0
 569.795 528.781 574.955 524.51 576.969 515.875 c 0
 601.232 411.838 644.773 224.953 646.531 187.875 c 0
 648.289 150.797 639.636 17.3418 584.875 12.875 c 0
 520.3 7.60742 494.365 47.4521 450.812 108.344 c 1
 403.881 1.44043 354.963 0.80957 318.688 0.625 c 0
 226.234 0.155273 215.855 72.9619 206.75 108.438 c 1
 189.74 88.1895 162.495 50.0605 148.219 47.4375 c 0
 85.7158 35.9521 5.65918 56.6309 1.40625 84.4375 c 0
 -12.4111 174.396 126.448 262.658 183.844 271.188 c 1
 179 323.188 l 2
 178.258 331.166 181.092 338.6 183.312 343.625 c 0
 193.413 366.48 209.457 397.115 217.406 410.5 c 0
 224.043 421.676 231.654 413.662 232.312 406.844 c 0
 238.763 339.985 230.155 163.005 286.844 124.938 c 0
 317.82 104.136 401.282 117.294 419.312 167.188 c 0
 420.891 171.554 413.285 197.805 405.656 234.531 c 0
 392.969 295.61 375.368 384.621 364.25 442.656 c 0
 361.921 454.812 361.528 464.664 368.281 474.469 c 2
 402.531 524.219 l 2
 406.908 530.573 416.573 526.691 418.562 518.062 c 0
 441.831 417.122 461.851 229.974 495.344 183.062 c 1
 530.98 138.465 581.096 123.717 599.875 134.469 c 0
 610.86 140.759 594.574 187.513 580.5 247.094 c 0
 565.91 308.855 544.73 395.221 533.25 448.906 c 0
 531.157 458.692 531.634 470.938 537.781 483.75 c 0
 542.262 493.089 549.298 509.604 559.406 525.594 c 0
 560.812 527.816 562.965 528.924 565.312 528.875 c 0
187.438 221 m 1
 168.649 216.851 102.404 187.357 85.9062 155.406 c 1
 99.2627 146.056 135.632 145.532 160.656 147.25 c 0
 173.288 148.117 187.963 154.299 195.656 163.219 c 1
 192.026 182.488 189.613 201.73 187.438 221 c 1
EndSplineSet
Fore
SplineSet
340 1.44078 m 1
 332.526 0.708452 325.391 0.659106 318.688 0.625 c 0
 226.234 0.155273 215.855 72.9619 206.75 108.438 c 1
 189.74 88.1895 162.495 50.0605 148.219 47.4375 c 0
 85.7158 35.9521 5.65918 56.6309 1.40625 84.4375 c 0
 -12.4111 174.396 126.448 262.658 183.844 271.188 c 1
 179 323.188 l 2
 178.258 331.166 181.092 338.6 183.312 343.625 c 0
 193.413 366.48 209.457 397.115 217.406 410.5 c 0
 224.043 421.676 231.654 413.662 232.312 406.844 c 0
 238.763 339.985 230.155 163.005 286.844 124.938 c 0
 298.917 116.83 318.963 113.881 340 116.255 c 1
 340 1.44078 l 1
187.438 221 m 1
 168.649 216.851 102.404 187.357 85.9062 155.406 c 1
 99.2627 146.056 135.632 145.532 160.656 147.25 c 0
 173.288 148.117 187.963 154.299 195.656 163.219 c 1
 192.026 182.488 189.613 201.73 187.438 221 c 1
EndSplineSet
EndChar

StartChar: lam.medi_Lellah.isol
Encoding: 65676 -1 143
Width: 516
VWidth: 0
Flags: MW
AnchorPoint: "tashkil.below" 436 -80 basechar 0
AnchorPoint: "tashkil.above" 378 640 basechar 0
AnchorPoint: "curs" 550 78 entry 0
AnchorPoint: "curs" 304 62 exit 0
LayerCount: 2
Back
SplineSet
565.312 528.875 m 0
 569.795 528.781 574.955 524.51 576.969 515.875 c 0
 601.232 411.838 644.773 224.953 646.531 187.875 c 0
 648.289 150.797 639.636 17.3418 584.875 12.875 c 0
 520.3 7.60742 494.365 47.4521 450.812 108.344 c 1
 403.881 1.44043 354.963 0.80957 318.688 0.625 c 0
 226.234 0.155273 215.855 72.9619 206.75 108.438 c 1
 189.74 88.1895 162.495 50.0605 148.219 47.4375 c 0
 85.7158 35.9521 5.65918 56.6309 1.40625 84.4375 c 0
 -12.4111 174.396 126.448 262.658 183.844 271.188 c 1
 179 323.188 l 2
 178.258 331.166 181.092 338.6 183.312 343.625 c 0
 193.413 366.48 209.457 397.115 217.406 410.5 c 0
 224.043 421.676 231.654 413.662 232.312 406.844 c 0
 238.763 339.985 230.155 163.005 286.844 124.938 c 0
 317.82 104.136 401.282 117.294 419.312 167.188 c 0
 420.891 171.554 413.285 197.805 405.656 234.531 c 0
 392.969 295.61 375.368 384.621 364.25 442.656 c 0
 361.921 454.812 361.528 464.664 368.281 474.469 c 2
 402.531 524.219 l 2
 406.908 530.573 416.573 526.691 418.562 518.062 c 0
 441.831 417.122 461.851 229.974 495.344 183.062 c 1
 530.98 138.465 581.096 123.717 599.875 134.469 c 0
 610.86 140.759 594.574 187.513 580.5 247.094 c 0
 565.91 308.855 544.73 395.221 533.25 448.906 c 0
 531.157 458.692 531.634 470.938 537.781 483.75 c 0
 542.262 493.089 549.298 509.604 559.406 525.594 c 0
 560.812 527.816 562.965 528.924 565.312 528.875 c 0
187.438 221 m 1
 168.649 216.851 102.404 187.357 85.9062 155.406 c 1
 99.2627 146.056 135.632 145.532 160.656 147.25 c 0
 173.288 148.117 187.963 154.299 195.656 163.219 c 1
 192.026 182.488 189.613 201.73 187.438 221 c 1
EndSplineSet
Fore
SplineSet
340 116.255 m 1
 372.939 119.973 408.31 136.74 419.312 167.188 c 0
 420.891 171.554 413.285 197.805 405.656 234.531 c 0
 392.969 295.61 375.368 384.621 364.25 442.656 c 0
 361.921 454.812 361.528 464.664 368.281 474.469 c 2
 402.531 524.219 l 2
 406.908 530.573 416.573 526.691 418.562 518.062 c 0
 441.831 417.122 461.851 229.974 495.344 183.062 c 1
 501.841 174.932 508.818 167.794 516 161.621 c 1
 516 31.0106 l 1
 493.366 47.7665 474.75 74.8761 450.812 108.344 c 1
 412.553 21.1948 372.974 4.67155 340 1.44078 c 1
 340 116.255 l 1
EndSplineSet
EndChar

StartChar: lam.init_Lellah.isol
Encoding: 65677 -1 144
Width: 696
VWidth: 0
Flags: MW
AnchorPoint: "tashkil.above" 558 640 basechar 0
AnchorPoint: "tashkil.below" 616 -80 basechar 0
AnchorPoint: "curs" 550 78 exit 0
LayerCount: 2
Back
SplineSet
565.312 528.875 m 0
 569.795 528.781 574.955 524.51 576.969 515.875 c 0
 601.232 411.838 644.773 224.953 646.531 187.875 c 0
 648.289 150.797 639.636 17.3418 584.875 12.875 c 0
 520.3 7.60742 494.365 47.4521 450.812 108.344 c 1
 403.881 1.44043 354.963 0.80957 318.688 0.625 c 0
 226.234 0.155273 215.855 72.9619 206.75 108.438 c 1
 189.74 88.1895 162.495 50.0605 148.219 47.4375 c 0
 85.7158 35.9521 5.65918 56.6309 1.40625 84.4375 c 0
 -12.4111 174.396 126.448 262.658 183.844 271.188 c 1
 179 323.188 l 2
 178.258 331.166 181.092 338.6 183.312 343.625 c 0
 193.413 366.48 209.457 397.115 217.406 410.5 c 0
 224.043 421.676 231.654 413.662 232.312 406.844 c 0
 238.763 339.985 230.155 163.005 286.844 124.938 c 0
 317.82 104.136 401.282 117.294 419.312 167.188 c 0
 420.891 171.554 413.285 197.805 405.656 234.531 c 0
 392.969 295.61 375.368 384.621 364.25 442.656 c 0
 361.921 454.812 361.528 464.664 368.281 474.469 c 2
 402.531 524.219 l 2
 406.908 530.573 416.573 526.691 418.562 518.062 c 0
 441.831 417.122 461.851 229.974 495.344 183.062 c 1
 530.98 138.465 581.096 123.717 599.875 134.469 c 0
 610.86 140.759 594.574 187.513 580.5 247.094 c 0
 565.91 308.855 544.73 395.221 533.25 448.906 c 0
 531.157 458.692 531.634 470.938 537.781 483.75 c 0
 542.262 493.089 549.298 509.604 559.406 525.594 c 0
 560.812 527.816 562.965 528.924 565.312 528.875 c 0
187.438 221 m 1
 168.649 216.851 102.404 187.357 85.9062 155.406 c 1
 99.2627 146.056 135.632 145.532 160.656 147.25 c 0
 173.288 148.117 187.963 154.299 195.656 163.219 c 1
 192.026 182.488 189.613 201.73 187.438 221 c 1
EndSplineSet
Fore
SplineSet
516 161.621 m 1
 548.212 133.936 584.52 125.677 599.875 134.469 c 0
 610.86 140.759 594.574 187.513 580.5 247.094 c 0
 565.91 308.855 544.73 395.221 533.25 448.906 c 0
 531.157 458.692 531.634 470.938 537.781 483.75 c 0
 542.262 493.089 549.298 509.604 559.406 525.594 c 0
 560.812 527.816 562.965 528.924 565.312 528.875 c 0
 569.795 528.781 574.955 524.51 576.969 515.875 c 0
 601.232 411.838 644.773 224.953 646.531 187.875 c 0
 648.289 150.797 639.636 17.3418 584.875 12.875 c 0
 555.792 10.5029 534.547 17.2803 516 31.0107 c 1
 516 161.621 l 1
EndSplineSet
EndChar

StartChar: haa.init_preMeem
Encoding: 65679 -1 145
Width: 615
VWidth: 0
Flags: MW
AnchorPoint: "dot.below" 372 59 basechar 0
AnchorPoint: "dot.above" 130 585 basechar 0
AnchorPoint: "tashkil.above" 130 585 basechar 0
AnchorPoint: "tashkil.below" 372 59 basechar 0
AnchorPoint: "curs" 80 250 exit 0
LayerCount: 2
Back
SplineSet
134.875 465.156 m 0
 139.033 465.24 143.121 465.097 147.125 464.688 c 0
 215.27 459.045 280.489 398.344 358.656 365.562 c 0
 423.745 338.314 494.324 314.115 557.969 306.375 c 0
 561.432 305.954 566.539 302.23 565.844 296.906 c 0
 562.308 269.827 550.968 253.81 537.906 231.75 c 0
 535.045 226.918 528.777 223.856 522.531 226.031 c 0
 367.419 280.048 257.919 289.756 140.75 253.906 c 1
 190.357 190.61 186.947 109.579 148.375 70.4375 c 0
 125.873 47.6035 33.9385 73.7676 -29.0312 113.094 c 1
 -54.998 35.2158 -109.699 10.584 -129.25 0 c 1
 -128.344 89.9062 l 1
 -111.858 94.0654 -72.1191 106.511 -45.5625 129.625 c 0
 -42.96 131.891 -42.1514 136.675 -42.2188 139.969 c 0
 -43.4346 199.997 -6.74023 247.503 14.625 262 c 0
 73.3613 301.854 182.401 307.392 241.562 317.844 c 1
 201.038 346.357 142.986 396.026 15.3438 372.25 c 0
 4.94531 370.312 4.72656 381.621 9.875 388.594 c 0
 48.0596 440.303 94.6787 464.348 134.875 465.156 c 0
30.625 225.5 m 0
 15.5049 225.576 0.735352 221.077 -5.40625 206.156 c 1
 12.9961 180.733 77.1396 147.904 135.594 141.031 c 1
 123.076 172.485 101.143 199.421 71.1885 216.188 c 0
 65.3379 219.462 47.7617 225.413 30.625 225.5 c 0
EndSplineSet
Fore
SplineSet
14.625 262 m 0
 73.3613 301.854 182.401 307.392 241.562 317.844 c 1
 201.038 346.357 142.986 396.026 15.3438 372.25 c 0
 4.94531 370.312 4.72656 381.621 9.875 388.594 c 0
 48.0596 440.303 94.6787 464.348 134.875 465.156 c 0
 139.033 465.24 143.121 465.097 147.125 464.688 c 0
 215.27 459.045 280.489 398.344 358.656 365.562 c 0
 423.745 338.314 494.324 314.115 557.969 306.375 c 0
 561.432 305.954 566.539 302.23 565.844 296.906 c 0
 562.308 269.827 550.968 253.81 537.906 231.75 c 0
 535.045 226.918 528.777 223.856 522.531 226.031 c 0
 367.419 280.048 257.919 289.756 140.75 253.906 c 1
 14.625 262 l 0
EndSplineSet
EndChar

StartChar: meem.fina_BaaMeem.fina
Encoding: 65680 -1 146
Width: 362
VWidth: 0
Flags: MW
AnchorPoint: "tashkil.below" 260 -278 basechar 0
AnchorPoint: "tashkil.above" 136 252 basechar 0
AnchorPoint: "curs" 158 38 entry 0
LayerCount: 2
Back
SplineSet
522.054 101.288 m 0
 515.445 -0.0332031 l 1
 433.872 0.916016 430.235 77.5039 383.688 105.815 c 0
 327.671 139.887 238.587 98.3672 197.742 65.4004 c 1
 249.955 39.6934 294.502 16.4277 358.226 -37.5605 c 0
 362.435 -41.126 364.705 -50.4951 360.729 -56.707 c 2
 314.437 -129.02 l 2
 312.309 -132.344 308.62 -132.899 305.207 -132.019 c 0
 212.469 -108.091 102.41 -122.952 38.3369 -171.127 c 0
 34.1025 -174.311 33.626 -178.539 34.3887 -184.51 c 0
 55.6494 -351.133 104.777 -521.235 95.0635 -673.397 c 0
 92.5576 -712.636 67.5898 -732.589 65.3271 -681.005 c 0
 56.2471 -473.897 -20.1621 -286.768 1.67871 -181.752 c 0
 28.2393 -54.0459 107.72 -49.6338 134.133 -43.374 c 1
 122.934 -35.7959 110.132 -28.752 95.8184 -22.2109 c 0
 90.9648 -19.9941 89.6162 -16.1631 90.8711 -12.7305 c 0
 102.432 18.8984 117.399 49.6992 142.943 83.2773 c 0
 149.649 92.0938 299.871 209.61 382.308 201.965 c 0
 441.342 196.489 446.385 107.084 522.054 101.288 c 0
EndSplineSet
Fore
SplineSet
515.445 -0.0332031 m 1,0,-1
197.742 65.4004 m 1,1,-1
 249.955 39.6934 294.502 16.4277 358.226 -37.5605 c 0,4,-1
 362.435 -41.126 364.705 -50.4951 360.729 -56.707 c 2,7,-1
 314.437 -129.02 l 2,8,-1
 312.309 -132.344 308.62 -132.899 305.207 -132.019 c 0,11,-1
 212.469 -108.091 102.41 -122.952 38.3369 -171.127 c 0,14,-1
 34.1025 -174.311 33.626 -178.539 34.3887 -184.51 c 0,17,-1
 55.6494 -351.133 104.777 -521.235 95.0635 -673.397 c 0,20,-1
 92.5576 -712.636 67.5898 -732.589 65.3271 -681.005 c 0,23,-1
 56.2471 -473.897 -20.1621 -286.768 1.67871 -181.752 c 0,26,-1
 28.2393 -54.0459 107.72 -49.6338 134.133 -43.374 c 1,29,-1
 122.934 -35.7959 110.132 -28.752 95.8184 -22.2109 c 0,32,-1
 90.9648 -19.9941 89.6162 -16.1631 90.8711 -12.7305 c 0,35,-1
 102.432 18.8984 117.399 49.6992 142.943 83.2773 c 0,38,-1
 197.742 65.4004 l 1,1,-1
EndSplineSet
EndChar

StartChar: baa.medi_BaaMeem.fina
Encoding: 65681 -1 147
Width: 522
VWidth: 0
Flags: MW
AnchorPoint: "dot.below" 396 -285 basechar 0
AnchorPoint: "dot.above" 369 357 basechar 0
AnchorPoint: "hamza.below" 396 -285 basechar 0
AnchorPoint: "hamza.above" 369 358 basechar 0
AnchorPoint: "tashkil.above" 369 357 basechar 0
AnchorPoint: "tashkil.below" 396 -285 basechar 0
AnchorPoint: "curs" 158 38 exit 0
LayerCount: 2
Back
SplineSet
522.054 101.288 m 0
 515.445 -0.0332031 l 1
 433.872 0.916016 430.235 77.5039 383.688 105.815 c 0
 327.671 139.887 238.587 98.3672 197.742 65.4004 c 1
 249.955 39.6934 294.502 16.4277 358.226 -37.5605 c 0
 362.435 -41.126 364.705 -50.4951 360.729 -56.707 c 2
 314.437 -129.02 l 2
 312.309 -132.344 308.62 -132.899 305.207 -132.019 c 0
 212.469 -108.091 102.41 -122.952 38.3369 -171.127 c 0
 34.1025 -174.311 33.626 -178.539 34.3887 -184.51 c 0
 55.6494 -351.133 104.777 -521.235 95.0635 -673.397 c 0
 92.5576 -712.636 67.5898 -732.589 65.3271 -681.005 c 0
 56.2471 -473.897 -20.1621 -286.768 1.67871 -181.752 c 0
 28.2393 -54.0459 107.72 -49.6338 134.133 -43.374 c 1
 122.934 -35.7959 110.132 -28.752 95.8184 -22.2109 c 0
 90.9648 -19.9941 89.6162 -16.1631 90.8711 -12.7305 c 0
 102.432 18.8984 117.399 49.6992 142.943 83.2773 c 0
 149.649 92.0938 299.871 209.61 382.308 201.965 c 0
 441.342 196.489 446.385 107.084 522.054 101.288 c 0
EndSplineSet
Fore
SplineSet
142.943 83.2773 m 0
 149.649 92.0938 299.871 209.61 382.308 201.965 c 0
 441.342 196.489 446.385 107.084 522.054 101.288 c 0
 515.445 -0.0332031 l 1
 433.872 0.916016 430.235 77.5039 383.688 105.815 c 0
 327.671 139.887 238.587 98.3672 197.742 65.4004 c 1
 142.943 83.2773 l 0
EndSplineSet
EndChar

StartChar: meem.fina_SeenMeem.fina
Encoding: 65682 -1 148
Width: 522
VWidth: 0
Flags: MW
AnchorPoint: "tashkil.above" 156 304 basechar 0
AnchorPoint: "tashkil.below" 260 -278 basechar 0
LayerCount: 2
Fore
SplineSet
522.054 101.288 m 0
 515.445 -0.0332031 l 1
 433.872 0.916016 430.235 77.5039 383.688 105.815 c 0
 327.671 139.887 238.587 98.3672 197.742 65.4004 c 1
 249.955 39.6934 294.502 16.4277 358.226 -37.5605 c 0
 362.435 -41.126 364.705 -50.4951 360.729 -56.707 c 2
 314.437 -129.02 l 2
 312.309 -132.344 308.62 -132.899 305.207 -132.019 c 0
 212.469 -108.091 102.41 -122.952 38.3369 -171.127 c 0
 34.1025 -174.311 33.626 -178.539 34.3887 -184.51 c 0
 55.6494 -351.133 104.777 -521.235 95.0635 -673.397 c 0
 92.5576 -712.636 67.5898 -732.589 65.3271 -681.005 c 0
 56.2471 -473.897 -20.1621 -286.768 1.67871 -181.752 c 0
 28.2393 -54.0459 107.72 -49.6338 134.133 -43.374 c 1
 122.934 -35.7959 110.132 -28.752 95.8184 -22.2109 c 0
 90.9648 -19.9941 89.6162 -16.1631 90.8711 -12.7305 c 0
 102.432 18.8984 117.399 49.6992 142.943 83.2773 c 0
 149.649 92.0938 299.871 209.61 382.308 201.965 c 0
 441.342 196.489 446.385 107.084 522.054 101.288 c 0
EndSplineSet
EndChar

StartChar: seen.medi_BaaSeen_SeenMeem.fina
Encoding: 65683 -1 149
Width: 295
VWidth: 0
Flags: MW
AnchorPoint: "dot.below" 146.597 -142 basechar 0
AnchorPoint: "dot.above" 140.597 422 basechar 0
AnchorPoint: "tashkil.above" 140.597 422 basechar 0
AnchorPoint: "tashkil.below" 146.597 -142 basechar 0
AnchorPoint: "curs" 296 133 entry 0
LayerCount: 2
Back
SplineSet
399.094 438.562 m 0
 402.557 438.54 406.403 436.021 408.344 432.594 c 0
 429.516 395.225 455.904 312.257 468.375 233.281 c 0
 474.041 197.405 475.088 162.359 474.531 132.781 c 0
 473.69 88.0557 444.993 7.93457 425.156 4.75 c 0
 368.447 -4.35547 311.088 69.9062 298 104.5 c 0
 296.168 109.343 293.539 109.503 291.25 104.688 c 0
 273.344 67.0098 238.058 -5.19434 200.812 -8.15625 c 0
 164.229 -11.0654 118.036 16.8516 87.9062 48.0625 c 1
 53.4941 13.043 20.2266 4.52051 -12.1875 4.6875 c 1
 -0.125 84.9062 l 1
 112.178 86.5303 125.313 125.23 146.094 172.312 c 0
 152.605 187.063 164.621 177.603 161.656 168.812 c 0
 157.774 157.302 152.038 147.054 149.888 136.774 c 0
 147.831 126.941 149.403 116.565 153.969 111.75 c 0
 167.268 97.7256 215.47 69.2637 245.188 82.5625 c 0
 260.104 89.2373 280.713 145.522 291.844 176.031 c 0
 293.702 181.124 297.739 182.874 301.5 177 c 0
 334.613 125.291 410.444 62.5713 442.688 86.9062 c 0
 443.812 87.7539 444.696 90.2695 444.781 92.875 c 0
 445.611 118.166 435.847 166.566 422.724 211.158 c 0
 411.193 250.339 394.967 292.292 373.406 333.812 c 0
 371.921 336.674 371.961 338.928 372.281 341.062 c 0
 376.558 369.56 383.273 403.414 392.781 433.375 c 0
 393.957 437.079 396.401 438.58 399.094 438.562 c 0
EndSplineSet
Fore
SplineSet
295 108.196 m 1
 293.767 108.39 292.461 107.235 291.25 104.688 c 0
 273.344 67.0098 238.058 -5.19434 200.812 -8.15625 c 0
 164.229 -11.0654 118.036 16.8516 87.9062 48.0625 c 1
 53.4941 13.043 20.2266 4.52051 -12.1875 4.6875 c 1
 -0.125 84.9062 l 1
 112.178 86.5303 125.313 125.23 146.094 172.312 c 0
 152.605 187.063 164.621 177.603 161.656 168.812 c 0
 157.774 157.302 152.038 147.054 149.888 136.774 c 0
 147.831 126.941 149.403 116.565 153.969 111.75 c 0
 167.268 97.7256 215.47 69.2637 245.188 82.5625 c 0
 260.104 89.2373 280.713 145.522 291.844 176.031 c 0
 292.594 178.088 293.7 179.6 295 180.284 c 1
 295 108.196 l 1
EndSplineSet
EndChar

StartChar: seen.medi_SeenMeem.fina
Encoding: 65684 -1 150
Width: 411
VWidth: 0
Flags: MW
AnchorPoint: "tashkil.below" 176.597 -144 basechar 0
AnchorPoint: "tashkil.above" 170.597 420 basechar 0
AnchorPoint: "dot.above" 170.597 420 basechar 0
AnchorPoint: "dot.below" 176.597 -144 basechar 0
LayerCount: 2
Fore
SplineSet
162.396 212.855 m 1
 169.48 225.437 189.688 223.624 186.521 206.605 c 1
 180.721 188.393 172.297 172.604 168.425 156.574 c 0
 161.986 129.927 188.624 116.824 207.166 111.99 c 0
 223.072 107.843 250.477 110.164 261.929 122.693 c 0
 275.64 137.694 300.371 199.782 305.952 210.291 c 0
 309.215 216.435 318.034 216.345 322.864 206.605 c 0
 342.721 167.516 371.12 124.698 408.489 106.764 c 1
 411.583 4.13672 l 1
 355.971 23.9375 327.918 73.2676 302.026 124.768 c 0
 300.363 128.075 297.946 128.594 296.688 124.269 c 0
 270.084 32.8174 245.267 2.55957 218.228 2.25391 c 0
 155.03 1.54102 111.062 36.0449 101.896 57.2305 c 1
 65.791 22.2207 27.7705 6.50488 1.63867 0 c 1
 11.7432 105.387 l 1
 98.3555 100.765 131.646 138.953 162.396 212.855 c 1
EndSplineSet
EndChar

StartChar: seen.init_SeenMeem.isol
Encoding: 65685 -1 151
Width: 351
VWidth: 0
Flags: MW
AnchorPoint: "tashkil.below" 130.597 -110 basechar 0
AnchorPoint: "tashkil.above" 124.597 454 basechar 0
AnchorPoint: "dot.above" 124.597 454 basechar 0
AnchorPoint: "dot.below" 130.597 -110 basechar 0
LayerCount: 2
Fore
SplineSet
264.354 274.224 m 0
 266.335 280.645 270.605 280.675 273.785 277.719 c 0
 303.789 249.83 306.065 192.641 297.973 144.188 c 0
 289.303 92.2705 266.253 46.0107 249.137 43.7861 c 0
 191.199 36.2568 139.573 64.7764 106.925 88.8945 c 1
 77.2119 42.9062 40.0967 15.627 -2.43359 0 c 1
 -0.683594 90.25 l 1
 61.8652 113.65 116.643 138.979 147.348 243.344 c 0
 151.663 258.011 167.033 251.267 164.848 241.438 c 0
 159.897 219.162 149.688 191.878 152.739 180.949 c 0
 157.417 164.193 201.224 135.432 257.725 134.261 c 0
 259.592 134.224 259.913 135.188 259.481 136.728 c 0
 255.166 152.132 246.72 162.562 237.566 172.938 c 0
 234.519 176.393 234.765 178.141 236.3 182.974 c 0
 243.551 205.8 254.888 243.563 264.354 274.224 c 0
EndSplineSet
EndChar

StartChar: noon.fina_BaaNoon.fina
Encoding: 65686 -1 152
Width: 591
VWidth: 0
Flags: MW
AnchorPoint: "dot.below" 312 -330 basechar 0
AnchorPoint: "dot.above" 312 243 basechar 0
AnchorPoint: "tashkil.above" 312 243 basechar 0
AnchorPoint: "tashkil.below" 312 -330 basechar 0
AnchorPoint: "curs" 551.576 188 entry 0
LayerCount: 2
Back
SplineSet
802.957 2 m 1
 774.336 -2.36719 748.342 12.832 734.371 37.6875 c 0
 719.487 64.167 704.188 155.827 690.423 222.836 c 0
 689.609 226.795 688.135 226.956 686.45 223.481 c 0
 671.557 192.748 645.846 151.585 592.283 143.494 c 0
 588.187 142.876 588.689 141.968 588.814 138.264 c 0
 590.111 99.7432 591.643 41.9424 570.404 -17.8955 c 0
 536.65 -113 446.302 -203.321 275.102 -209.198 c 0
 35.1299 -217.397 38.4873 -41.7461 59.2422 41.9033 c 0
 70.9053 88.9082 92.6719 136.703 120.365 180.119 c 0
 135.005 203.07 153.376 197.448 140.74 172.961 c 0
 125.346 143.127 76.6719 50.3887 105.478 -22.209 c 0
 123.671 -68.0625 185.406 -112.802 287.216 -105.674 c 0
 435.82 -95.2695 521.585 -40.5273 549.37 12.0029 c 0
 550.25 13.665 550.996 16.1846 551.376 18.0205 c 0
 556.663 43.6074 537.589 136.863 507.512 188.359 c 0
 504.065 194.26 506.865 197.588 508.27 201.917 c 2
 530.872 271.609 l 2
 532.659 277.119 532.106 277.75 537.12 275.175 c 0
 552.972 267.033 564.822 233.405 575.062 230.418 c 0
 595.685 224.403 650.021 233.658 664.709 251.213 c 0
 681.314 271.059 688.955 292.337 699.987 313.689 c 0
 703.881 321.227 711.759 319.091 715.228 312.852 c 0
 731.6 283.4 741.199 173.367 760.913 119.4 c 0
 769.227 96.6406 781.219 85.4648 801.533 90.3613 c 1
 802.957 2 l 1
EndSplineSet
Fore
SplineSet
591.859 143.494 m 0
 587.762 142.876 588.266 141.968 588.391 138.264 c 0
 589.688 99.7432 591.219 41.9424 569.98 -17.8955 c 0
 536.227 -113 445.877 -203.321 274.678 -209.198 c 0
 34.7051 -217.397 38.0625 -41.7461 58.8174 41.9033 c 0
 70.4805 88.9082 92.2471 136.703 119.94 180.119 c 0
 134.58 203.07 152.951 197.448 140.316 172.961 c 0
 124.921 143.127 76.2471 50.3887 105.053 -22.209 c 0
 123.246 -68.0625 184.982 -112.802 286.791 -105.674 c 0
 435.396 -95.2695 521.16 -40.5273 548.945 12.0029 c 0
 549.826 13.665 550.572 16.1846 550.951 18.0205 c 0
 556.238 43.6074 537.164 136.863 507.088 188.359 c 0
 503.641 194.26 506.441 197.588 507.846 201.917 c 2
 530.447 271.609 l 2
 532.234 277.119 531.682 277.75 536.695 275.175 c 0
 552.547 267.033 564.398 233.405 574.637 230.418 c 0
 591.859 143.494 l 0
EndSplineSet
EndChar

StartChar: baa.medi_BaaNoon.fina
Encoding: 65687 -1 153
Width: 302
VWidth: 0
Flags: MW
AnchorPoint: "dot.below" 156 -135 basechar 0
AnchorPoint: "dot.above" 141 435 basechar 0
AnchorPoint: "hamza.below" 156 -135 basechar 0
AnchorPoint: "hamza.above" 141 436 basechar 0
AnchorPoint: "tashkil.above" 141 435 basechar 0
AnchorPoint: "tashkil.below" 156 -135 basechar 0
AnchorPoint: "curs" 51.5762 188 exit 0
LayerCount: 2
Back
SplineSet
302.957 2 m 1
 274.336 -2.36719 248.342 12.832 234.371 37.6875 c 0
 219.487 64.167 204.188 155.827 190.423 222.836 c 0
 189.609 226.795 188.135 226.956 186.45 223.481 c 0
 171.557 192.748 145.846 151.585 92.2832 143.494 c 0
 88.1865 142.876 88.6895 141.968 88.8145 138.264 c 0
 90.1113 99.7432 91.6426 41.9424 70.4043 -17.8955 c 0
 36.6504 -113 -53.6982 -203.321 -224.898 -209.198 c 0
 -464.87 -217.397 -461.513 -41.7461 -440.758 41.9033 c 0
 -429.095 88.9082 -407.328 136.703 -379.635 180.119 c 0
 -364.995 203.07 -346.624 197.448 -359.26 172.961 c 0
 -374.654 143.127 -423.328 50.3887 -394.522 -22.209 c 0
 -376.329 -68.0625 -314.594 -112.802 -212.784 -105.674 c 0
 -64.1797 -95.2695 21.585 -40.5273 49.3701 12.0029 c 0
 50.25 13.665 50.9961 16.1846 51.376 18.0205 c 0
 56.6631 43.6074 37.5889 136.863 7.51172 188.359 c 0
 4.06543 194.26 6.86523 197.588 8.26953 201.917 c 2
 30.8721 271.609 l 2
 32.6592 277.119 32.1064 277.75 37.1201 275.175 c 0
 52.9717 267.033 64.8223 233.405 75.0615 230.418 c 0
 95.6846 224.403 150.021 233.658 164.709 251.213 c 0
 181.314 271.059 188.955 292.337 199.987 313.689 c 0
 203.881 321.227 211.759 319.091 215.228 312.852 c 0
 231.6 283.4 241.199 173.367 260.913 119.4 c 0
 269.227 96.6406 281.219 85.4648 301.533 90.3613 c 1
 302.957 2 l 1
EndSplineSet
Fore
SplineSet
74.6367 230.418 m 0
 95.2598 224.403 149.598 233.658 164.285 251.213 c 0
 180.891 271.059 188.531 292.337 199.562 313.689 c 0
 203.457 321.227 211.334 319.091 214.803 312.852 c 0
 231.176 283.4 240.775 173.367 260.488 119.4 c 0
 268.803 96.6406 280.795 85.4648 301.109 90.3613 c 1
 302.533 2 l 1
 273.912 -2.36719 247.918 12.832 233.947 37.6875 c 0
 219.062 64.167 203.764 155.827 189.998 222.836 c 0
 189.186 226.795 187.711 226.956 186.025 223.481 c 0
 171.133 192.748 145.422 151.585 91.8594 143.494 c 0
 74.6367 230.418 l 0
EndSplineSet
EndChar

StartChar: noon.fina_BaaNoon.isol
Encoding: 65688 -1 154
Width: 615
VWidth: 0
Flags: MW
AnchorPoint: "tashkil.below" 312 -444 basechar 0
AnchorPoint: "tashkil.above" 312 129 basechar 0
AnchorPoint: "dot.above" 312 129 basechar 0
AnchorPoint: "dot.below" 312 -444 basechar 0
AnchorPoint: "curs" 556.462 64 entry 0
LayerCount: 2
Back
SplineSet
719.899 193.105 m 4
 729.612 90.9951 707.289 18.3252 614.714 -2.07227 c 4
 610.164 -3.0752 610.348 -5.8457 609.78 -9.81836 c 4
 599.649 -80.667 578.432 -175.312 552.54 -217.214 c 4
 505.604 -293.175 401.682 -367.114 261.033 -366.339 c 4
 116.811 -365.543 50.2236 -277.967 49.542 -174.483 c 4
 49.0459 -98.6191 97.0684 15.3975 122.873 60.3135 c 4
 129.653 72.1172 144.561 60.3877 140.054 50.291 c 4
 122.989 12.0693 91.4648 -45.7471 91.4707 -97.1787 c 4
 91.4785 -168.82 140.203 -243.429 274.635 -246.074 c 4
 402.797 -248.596 523.822 -175.661 554.104 -127.643 c 4
 557.092 -122.903 558.45 -118.294 559.187 -112.924 c 4
 568.698 -43.5713 551.948 21.1582 522.322 83.2207 c 4
 519.463 89.2109 517.569 94.2871 519.372 100.654 c 4
 525.895 123.697 542.88 159.146 549.438 173.166 c 4
 552.12 178.899 556.016 181.381 561.397 176.702 c 4
 576.272 163.773 586.266 148.645 596.338 129.107 c 4
 599.808 122.377 604.818 118.998 611.39 116.259 c 4
 629.276 108.803 665.381 113.337 676.311 123.155 c 4
 687.877 133.545 693.604 166.273 695.56 191.674 c 4
 697.175 212.651 718.475 208.076 719.899 193.105 c 4
EndSplineSet
Fore
SplineSet
615.176 -2.07227 m 0
 610.626 -3.0752 610.81 -5.8457 610.242 -9.81836 c 0
 600.111 -80.667 578.894 -175.312 553.002 -217.214 c 0
 506.065 -293.175 402.144 -367.114 261.495 -366.339 c 0
 117.272 -365.543 50.6855 -277.967 50.0039 -174.483 c 0
 49.5078 -98.6191 97.5303 15.3975 123.335 60.3135 c 0
 130.115 72.1172 145.022 60.3877 140.516 50.291 c 0
 123.451 12.0693 91.9268 -45.7471 91.9326 -97.1787 c 0
 91.9404 -168.82 140.665 -243.429 275.097 -246.074 c 0
 403.259 -248.596 524.284 -175.661 554.565 -127.643 c 0
 557.554 -122.903 558.912 -118.294 559.648 -112.924 c 0
 569.16 -43.5713 552.41 21.1582 522.784 83.2207 c 0
 519.925 89.2109 518.031 94.2871 519.834 100.654 c 0
 526.356 123.697 543.342 159.146 549.899 173.166 c 0
 552.582 178.899 556.478 181.381 561.859 176.702 c 0
 576.734 163.773 586.728 148.645 596.8 129.107 c 0
 600.27 122.377 605.28 118.998 611.852 116.259 c 0
 615.176 -2.07227 l 0
EndSplineSet
EndChar

StartChar: baa.init_BaaNoon.isol
Encoding: 65689 -1 155
Width: 162
VWidth: 0
Flags: MW
AnchorPoint: "dot.above" 20 377 basechar 0
AnchorPoint: "dot.below" 88 -156 basechar 0
AnchorPoint: "hamza.above" 20 377 basechar 0
AnchorPoint: "hamza.below" 89 -157 basechar 0
AnchorPoint: "tashkil.below" 88 -156 basechar 0
AnchorPoint: "tashkil.above" 20 377 basechar 0
AnchorPoint: "curs" -53.5381 64 exit 0
LayerCount: 2
Back
SplineSet
109.899 193.105 m 0
 119.612 90.9951 97.2891 18.3252 4.71387 -2.07227 c 0
 0.164062 -3.0752 0.347656 -5.8457 -0.219727 -9.81836 c 0
 -10.3506 -80.667 -31.5684 -175.312 -57.46 -217.214 c 0
 -104.396 -293.175 -208.318 -367.114 -348.967 -366.339 c 0
 -493.189 -365.543 -559.776 -277.967 -560.458 -174.483 c 0
 -560.954 -98.6191 -512.932 15.3975 -487.127 60.3135 c 0
 -480.347 72.1172 -465.439 60.3877 -469.946 50.291 c 0
 -487.011 12.0693 -518.535 -45.7471 -518.529 -97.1787 c 0
 -518.521 -168.82 -469.797 -243.429 -335.365 -246.074 c 0
 -207.203 -248.596 -86.1777 -175.661 -55.8965 -127.643 c 0
 -52.9082 -122.903 -51.5498 -118.294 -50.8135 -112.924 c 0
 -41.3018 -43.5713 -58.0518 21.1582 -87.6777 83.2207 c 0
 -90.5371 89.2109 -92.4307 94.2871 -90.6279 100.654 c 0
 -84.1055 123.697 -67.1201 159.146 -60.5625 173.166 c 0
 -57.8799 178.899 -53.9844 181.381 -48.6025 176.702 c 0
 -33.7275 163.773 -23.7344 148.645 -13.6621 129.107 c 0
 -10.1924 122.377 -5.18164 118.998 1.38965 116.259 c 0
 19.2764 108.803 55.3809 113.337 66.3105 123.155 c 0
 77.877 133.545 83.6045 166.273 85.5596 191.674 c 0
 87.1748 212.651 108.475 208.076 109.899 193.105 c 0
EndSplineSet
Fore
SplineSet
1.85156 116.259 m 0
 19.7383 108.803 55.8428 113.337 66.7725 123.155 c 0
 78.3389 133.545 84.0664 166.273 86.0215 191.674 c 0
 87.6367 212.651 108.937 208.076 110.361 193.105 c 0
 120.074 90.9951 97.751 18.3252 5.17578 -2.07227 c 0
 1.85156 116.259 l 0
EndSplineSet
EndChar

StartChar: meem.medi_BaaMeem.init
Encoding: 65690 -1 156
Width: 398
VWidth: 0
Flags: MW
AnchorPoint: "tashkil.above" 62 658 basechar 0
AnchorPoint: "tashkil.below" 98 -92 basechar 0
AnchorPoint: "curs" 138 286 entry 0
LayerCount: 2
Back
SplineSet
356.556 373.679 m 0
 315.65 409.133 273.426 417.519 234.86 398.018 c 0
 203.815 382.319 172.907 356.92 155.567 319.302 c 0
 153.688 315.226 153.227 310.842 154.08 306.741 c 0
 162.731 265.134 199.308 211.121 218.753 197.219 c 0
 252.619 173.008 292.681 164.73 334.723 134.224 c 0
 342.212 128.789 351.007 118.048 347.966 107.736 c 2
 325.059 30.0664 l 2
 323.258 23.9619 320.962 15.3906 308.235 21.4756 c 0
 245.383 51.5283 228.413 65.9619 183.676 63.7119 c 1
 130.145 63.1133 70.7109 -5.93359 1.49023 0 c 1
 1.13184 91.9883 l 1
 56.2559 88.5488 121.098 115.19 145.71 138.79 c 1
 119.271 172.283 105.534 255.77 122.47 327.863 c 0
 129.46 357.617 143.203 388.655 162.271 414.695 c 0
 202.647 469.838 261.905 508.807 296.396 509.485 c 0
 330.437 510.154 364.642 501.065 390.917 473.898 c 0
 397.646 466.941 404.529 459.659 401.836 448.474 c 0
 395.753 423.22 387.166 398.466 371.589 375.11 c 0
 367.857 369.516 363.791 367.407 356.556 373.679 c 0
EndSplineSet
Fore
SplineSet
154.08 306.741 m 0
 162.731 265.134 199.308 211.121 218.753 197.219 c 0
 252.619 173.008 292.681 164.73 334.723 134.224 c 0
 342.212 128.789 351.007 118.048 347.966 107.736 c 2
 325.059 30.0664 l 2
 323.258 23.9619 320.962 15.3906 308.235 21.4756 c 0
 245.383 51.5283 228.413 65.9619 183.676 63.7119 c 1
 130.145 63.1133 70.7109 -5.93359 1.49023 0 c 1
 1.13184 91.9883 l 1
 56.2559 88.5488 121.098 115.19 145.71 138.79 c 1
 119.271 172.283 105.534 255.77 122.47 327.863 c 0
 154.08 306.741 l 0
EndSplineSet
EndChar

StartChar: baa.init_BaaMeem.init
Encoding: 65691 -1 157
Width: 452
VWidth: 0
Flags: MW
AnchorPoint: "dot.below" 334 -120 basechar 0
AnchorPoint: "dot.above" 288 688 basechar 0
AnchorPoint: "tashkil.above" 288 688 basechar 0
AnchorPoint: "tashkil.below" 334 -120 basechar 0
AnchorPoint: "curs" 138 286 exit 0
LayerCount: 2
Back
SplineSet
356.556 373.679 m 0
 315.65 409.133 273.426 417.519 234.86 398.018 c 0
 203.815 382.319 172.907 356.92 155.567 319.302 c 0
 153.688 315.226 153.227 310.842 154.08 306.741 c 0
 162.731 265.134 199.308 211.121 218.753 197.219 c 0
 252.619 173.008 292.681 164.73 334.723 134.224 c 0
 342.212 128.789 351.007 118.048 347.966 107.736 c 2
 325.059 30.0664 l 2
 323.258 23.9619 320.962 15.3906 308.235 21.4756 c 0
 245.383 51.5283 228.413 65.9619 183.676 63.7119 c 1
 130.145 63.1133 70.7109 -5.93359 1.49023 0 c 1
 1.13184 91.9883 l 1
 56.2559 88.5488 121.098 115.19 145.71 138.79 c 1
 119.271 172.283 105.534 255.77 122.47 327.863 c 0
 129.46 357.617 143.203 388.655 162.271 414.695 c 0
 202.647 469.838 261.905 508.807 296.396 509.485 c 0
 330.437 510.154 364.642 501.065 390.917 473.898 c 0
 397.646 466.941 404.529 459.659 401.836 448.474 c 0
 395.753 423.22 387.166 398.466 371.589 375.11 c 0
 367.857 369.516 363.791 367.407 356.556 373.679 c 0
EndSplineSet
Fore
SplineSet
122.47 327.863 m 0
 129.46 357.617 143.203 388.655 162.271 414.695 c 0
 202.647 469.838 261.905 508.807 296.396 509.485 c 0
 330.437 510.154 364.642 501.065 390.917 473.898 c 0
 397.646 466.941 404.529 459.659 401.836 448.474 c 0
 395.753 423.22 387.166 398.466 371.589 375.11 c 0
 367.857 369.516 363.791 367.407 356.556 373.679 c 0
 315.65 409.133 273.426 417.519 234.86 398.018 c 0
 203.815 382.319 172.907 356.92 155.567 319.302 c 0
 153.688 315.226 153.227 310.842 154.08 306.741 c 0
 122.47 327.863 l 0
EndSplineSet
EndChar

StartChar: raa.fina_BaaRaa.fina
Encoding: 65692 -1 158
Width: 407
VWidth: 0
Flags: MW
AnchorPoint: "curs" 374 162 entry 0
LayerCount: 2
Back
SplineSet
633.455 91.1143 m 0
 628.782 0 l 1
 549.401 5.33008 538.691 65.3545 526.29 201.086 c 0
 525.927 205.057 523.662 205.31 521.939 201.483 c 0
 484.752 118.905 446.548 120.891 408.955 113.969 c 0
 405.659 113.365 405.93 112.765 405.62 109.382 c 0
 403.209 83.1074 402.207 52.8984 392.848 11.0703 c 0
 374.025 -73.0469 267.945 -191.429 207.478 -204.033 c 0
 156.04 -214.755 70.1562 -181.021 7.51953 -156.159 c 0
 -1.18359 -152.705 -2.10547 -139.91 16.9668 -140.679 c 0
 74.1445 -142.981 128.09 -152.599 185.303 -137.061 c 0
 263.973 -115.694 342.528 -29.8477 374.078 23.9775 c 0
 374.766 25.1514 375.711 27.083 375.688 28.8135 c 0
 375.147 70.2217 346.138 110.279 329.793 131.875 c 0
 328.223 133.951 328.189 135.081 328.885 137.788 c 0
 337.871 172.787 347.737 206.801 357.847 242.064 c 0
 359.253 246.968 364.529 246.29 368.612 243.338 c 0
 382.654 233.184 387.294 203.404 407.617 202.67 c 0
 484.898 199.879 508.667 231.574 530.854 305.854 c 0
 535.352 320.911 552.916 317.302 554.801 304.297 c 0
 572.985 179.642 558.359 117.396 633.455 91.1143 c 0
EndSplineSet
Fore
SplineSet
405.62 109.382 m 0
 403.209 83.1074 402.207 52.8984 392.848 11.0703 c 0
 374.025 -73.0469 267.945 -191.429 207.478 -204.033 c 0
 156.04 -214.755 70.1562 -181.021 7.51953 -156.159 c 0
 -1.18359 -152.705 -2.10547 -139.91 16.9668 -140.679 c 0
 74.1445 -142.981 128.09 -152.599 185.303 -137.061 c 0
 263.973 -115.694 342.528 -29.8477 374.078 23.9775 c 0
 374.766 25.1514 375.711 27.083 375.688 28.8135 c 0
 375.147 70.2217 346.138 110.279 329.793 131.875 c 0
 328.223 133.951 328.189 135.081 328.885 137.788 c 0
 337.871 172.787 347.737 206.801 357.847 242.064 c 0
 359.253 246.968 364.529 246.29 368.612 243.338 c 0
 382.654 233.184 387.294 203.404 407.617 202.67 c 0
 405.62 109.382 l 0
EndSplineSet
EndChar

StartChar: yaa.fina_BaaYaa.isol
Encoding: 65693 -1 159
Width: 750
VWidth: 0
Flags: MW
AnchorPoint: "dot.above" 294 430 basechar 0
AnchorPoint: "tashkil.above" 294 430 basechar 0
AnchorPoint: "dot.below" 272 -338 basechar 0
AnchorPoint: "hamza.above" 114 328 basechar 0
AnchorPoint: "tashkil.below" 270 -338 basechar 0
AnchorPoint: "curs" 493.948 108 entry 0
LayerCount: 2
Back
SplineSet
556.836 513.888 m 2
 558.673 518.603 564.479 520.497 571.029 514.325 c 0
 603.475 483.754 645.835 405.482 653.938 355.517 c 0
 668.097 268.218 636.895 193.746 609.777 147.218 c 0
 607.503 143.316 606.226 141.084 610.617 138.974 c 0
 635.607 126.968 682.177 113.331 697.195 74.8291 c 0
 710.575 40.5303 677.316 -42.2891 647.124 -71.457 c 0
 574.196 -141.915 466.088 -179.784 361.882 -197.008 c 0
 166.325 -229.331 64.1738 -131.552 51.3096 -13.0879 c 0
 39.7822 93.0654 106.606 199.467 163.645 257.838 c 0
 170.71 265.068 181.974 257.991 173.556 249.027 c 0
 150.409 224.377 78.7373 131.778 93.9385 46.9512 c 0
 107.902 -30.9688 184.386 -113.31 356.376 -97.8887 c 0
 502.15 -84.8193 621.69 -3.77734 650.509 19.4414 c 0
 654.312 22.5059 654.982 24.6143 650.935 27.623 c 0
 613.187 55.6777 547.38 74.9287 430.645 78.1738 c 0
 424.646 78.3398 424.225 80.4287 426.848 85.7568 c 2
 457.998 149.03 l 2
 459.863 152.82 463.585 153.208 468.837 153.872 c 0
 511.681 159.283 562.745 166.794 619.576 220.657 c 0
 622.014 222.967 620.91 224.69 620.814 228.347 c 0
 619.214 289.845 587.872 356.127 522.124 412.849 c 0
 519.37 415.225 520.143 419.717 521.385 422.904 c 2
 556.836 513.888 l 2
EndSplineSet
Fore
SplineSet
610.617 138.974 m 0
 635.607 126.968 682.177 113.331 697.195 74.8291 c 0
 710.575 40.5303 677.316 -42.2891 647.124 -71.457 c 0
 574.196 -141.915 466.088 -179.784 361.882 -197.008 c 0
 166.325 -229.331 64.1738 -131.552 51.3096 -13.0879 c 0
 39.7822 93.0654 106.606 199.467 163.645 257.838 c 0
 170.71 265.068 181.974 257.991 173.556 249.027 c 0
 150.409 224.377 78.7373 131.778 93.9385 46.9512 c 0
 107.902 -30.9688 184.386 -113.31 356.376 -97.8887 c 0
 502.15 -84.8193 621.69 -3.77734 650.509 19.4414 c 0
 654.312 22.5059 654.982 24.6143 650.935 27.623 c 0
 613.187 55.6777 547.38 74.9287 430.645 78.1738 c 0
 424.646 78.3398 424.225 80.4287 426.848 85.7568 c 2
 457.998 149.03 l 2
 610.617 138.974 l 0
EndSplineSet
EndChar

StartChar: baa.init_BaaYaa.isol
Encoding: 65694 -1 160
Width: 750
VWidth: 0
Flags: MW
AnchorPoint: "dot.above" 548 619 basechar 0
AnchorPoint: "dot.below" 656 -281 basechar 0
AnchorPoint: "hamza.above" 548 619 basechar 0
AnchorPoint: "hamza.below" 657 -282 basechar 0
AnchorPoint: "tashkil.below" 656 -281 basechar 0
AnchorPoint: "tashkil.above" 548 619 basechar 0
AnchorPoint: "curs" 493.948 108 exit 0
LayerCount: 2
Back
SplineSet
556.836 513.888 m 2
 558.673 518.603 564.479 520.497 571.029 514.325 c 0
 603.475 483.754 645.835 405.482 653.938 355.517 c 0
 668.097 268.218 636.895 193.746 609.777 147.218 c 0
 607.503 143.316 606.226 141.084 610.617 138.974 c 0
 635.607 126.968 682.177 113.331 697.195 74.8291 c 0
 710.575 40.5303 677.316 -42.2891 647.124 -71.457 c 0
 574.196 -141.915 466.088 -179.784 361.882 -197.008 c 0
 166.325 -229.331 64.1738 -131.552 51.3096 -13.0879 c 0
 39.7822 93.0654 106.606 199.467 163.645 257.838 c 0
 170.71 265.068 181.974 257.991 173.556 249.027 c 0
 150.409 224.377 78.7373 131.778 93.9385 46.9512 c 0
 107.902 -30.9688 184.386 -113.31 356.376 -97.8887 c 0
 502.15 -84.8193 621.69 -3.77734 650.509 19.4414 c 0
 654.312 22.5059 654.982 24.6143 650.935 27.623 c 0
 613.187 55.6777 547.38 74.9287 430.645 78.1738 c 0
 424.646 78.3398 424.225 80.4287 426.848 85.7568 c 2
 457.998 149.03 l 2
 459.863 152.82 463.585 153.208 468.837 153.872 c 0
 511.681 159.283 562.745 166.794 619.576 220.657 c 0
 622.014 222.967 620.91 224.69 620.814 228.347 c 0
 619.214 289.845 587.872 356.127 522.124 412.849 c 0
 519.37 415.225 520.143 419.717 521.385 422.904 c 2
 556.836 513.888 l 2
EndSplineSet
Fore
SplineSet
468.837 153.872 m 0
 511.681 159.283 562.745 166.794 619.576 220.657 c 0
 622.014 222.967 620.91 224.69 620.814 228.347 c 0
 619.214 289.845 587.872 356.127 522.124 412.849 c 0
 519.37 415.225 520.143 419.717 521.385 422.904 c 2
 556.836 513.888 l 2
 558.673 518.603 564.479 520.497 571.029 514.325 c 0
 603.475 483.754 645.835 405.482 653.938 355.517 c 0
 668.097 268.218 636.895 193.746 609.777 147.218 c 0
 468.837 153.872 l 0
EndSplineSet
EndChar

StartChar: haa.medi_preHaa
Encoding: 65695 -1 161
Width: 655
VWidth: 0
Flags: MW
AnchorPoint: "tashkil.below" 143 -103 basechar 0
AnchorPoint: "tashkil.above" 516 470 basechar 0
AnchorPoint: "dot.above" 516 470 basechar 0
AnchorPoint: "dot.below" 143 -103 basechar 0
AnchorPoint: "curs" 108 252 entry 0
LayerCount: 2
Back
SplineSet
161.688 646.906 m 0
 226.029 645.988 281.218 524.21 279.344 415.062 c 0
 278.198 348.335 240.214 293.673 203.188 269.281 c 1
 307.047 230.329 436.985 204.332 587.906 203.5 c 0
 596.548 202.941 604.454 201.124 605.125 187.281 c 1
 578.281 126.562 l 1
 577.36 121.455 569.751 117.646 558.031 117.938 c 0
 438.774 126.618 340.234 119.605 253.344 91 c 0
 185.925 68.8047 67.6465 14.2568 3.25 0 c 1
 1.75 79.9688 l 1
 65.8447 96.2334 173.747 122.771 245.719 158.938 c 1
 168.463 190.77 85.5117 205.291 5.78125 224.75 c 1
 5.30469 247.609 23.0625 295.173 53.375 302.688 c 0
 138.91 323.893 228.045 328.091 250.781 394.812 c 1
 248.612 410.336 241.827 423.352 231.562 438.875 c 1
 225.488 446.042 215.646 448.803 211.938 442.906 c 0
 191.839 410.948 149.479 371.891 110.062 378.156 c 0
 47.7783 388.057 53.8477 465.713 74.5 537.281 c 0
 91.7803 597.164 137.191 647.259 161.688 646.906 c 0
124.156 538.469 m 0
 116.753 538.354 109.589 535.361 102.5 526.188 c 1
 102.352 515.854 110.891 488.797 133 487.844 c 0
 146.628 487.248 161.737 494.051 168.781 512.25 c 1
 156.252 526.373 141.223 536.499 129.312 538.125 c 0
 127.576 538.362 125.865 538.495 124.156 538.469 c 0
EndSplineSet
Fore
SplineSet
203.188 269.281 m 1
 307.047 230.329 436.985 204.332 587.906 203.5 c 0
 596.548 202.941 604.454 201.124 605.125 187.281 c 1
 578.281 126.562 l 1
 577.36 121.455 569.751 117.646 558.031 117.938 c 0
 438.774 126.618 340.234 119.605 253.344 91 c 0
 185.925 68.8047 67.6465 14.2568 3.25 0 c 1
 1.75 79.9688 l 1
 65.8447 96.2334 173.747 122.771 245.719 158.938 c 1
 168.463 190.77 85.5117 205.291 5.78125 224.75 c 1
 5.30469 247.609 23.0625 295.173 53.375 302.688 c 0
 203.188 269.281 l 1
EndSplineSet
EndChar

StartChar: faa.init_preHaa
Encoding: 65696 -1 162
Width: 655
VWidth: 0
Flags: MW
AnchorPoint: "dot.below" 457 -49 basechar 0
AnchorPoint: "dot.above" 156 759 basechar 0
AnchorPoint: "tashkil.above" 156 759 basechar 0
AnchorPoint: "tashkil.below" 457 -49 basechar 0
AnchorPoint: "curs" 108 252 exit 0
LayerCount: 2
Back
SplineSet
161.688 646.906 m 0
 226.029 645.988 281.218 524.21 279.344 415.062 c 0
 278.198 348.335 240.214 293.673 203.188 269.281 c 1
 307.047 230.329 436.985 204.332 587.906 203.5 c 0
 596.548 202.941 604.454 201.124 605.125 187.281 c 1
 578.281 126.562 l 1
 577.36 121.455 569.751 117.646 558.031 117.938 c 0
 438.774 126.618 340.234 119.605 253.344 91 c 0
 185.925 68.8047 67.6465 14.2568 3.25 0 c 1
 1.75 79.9688 l 1
 65.8447 96.2334 173.747 122.771 245.719 158.938 c 1
 168.463 190.77 85.5117 205.291 5.78125 224.75 c 1
 5.30469 247.609 23.0625 295.173 53.375 302.688 c 0
 138.91 323.893 228.045 328.091 250.781 394.812 c 1
 248.612 410.336 241.827 423.352 231.562 438.875 c 1
 225.488 446.042 215.646 448.803 211.938 442.906 c 0
 191.839 410.948 149.479 371.891 110.062 378.156 c 0
 47.7783 388.057 53.8477 465.713 74.5 537.281 c 0
 91.7803 597.164 137.191 647.259 161.688 646.906 c 0
124.156 538.469 m 0
 116.753 538.354 109.589 535.361 102.5 526.188 c 1
 102.352 515.854 110.891 488.797 133 487.844 c 0
 146.628 487.248 161.737 494.051 168.781 512.25 c 1
 156.252 526.373 141.223 536.499 129.312 538.125 c 0
 127.576 538.362 125.865 538.495 124.156 538.469 c 0
EndSplineSet
Fore
SplineSet
53.375 302.688 m 0
 138.91 323.893 228.045 328.091 250.781 394.812 c 1
 248.612 410.336 241.827 423.352 231.562 438.875 c 1
 225.488 446.042 215.646 448.803 211.938 442.906 c 0
 191.839 410.948 149.479 371.891 110.062 378.156 c 0
 47.7783 388.057 53.8477 465.713 74.5 537.281 c 0
 91.7803 597.164 137.191 647.259 161.688 646.906 c 0
 226.029 645.988 281.218 524.21 279.344 415.062 c 0
 278.198 348.335 240.214 293.673 203.188 269.281 c 1
 53.375 302.688 l 0
124.156 538.469 m 0
 116.753 538.354 109.589 535.361 102.5 526.188 c 1
 102.352 515.854 110.891 488.797 133 487.844 c 0
 146.628 487.248 161.737 494.051 168.781 512.25 c 1
 156.252 526.373 141.223 536.499 129.312 538.125 c 0
 127.576 538.362 125.865 538.495 124.156 538.469 c 0
EndSplineSet
EndChar

StartChar: faa.init_preMeem
Encoding: 65698 -1 163
Width: 279
VWidth: 0
Flags: MW
AnchorPoint: "tashkil.below" 231 -113 basechar 0
AnchorPoint: "tashkil.above" 112 767 basechar 0
AnchorPoint: "dot.above" 112 767 basechar 0
AnchorPoint: "dot.below" 231 -113 basechar 0
AnchorPoint: "curs" 110 240 exit 0
LayerCount: 2
Back
SplineSet
114.281 593.5 m 1
 143.192 592.263 170.842 553.327 189.344 526.031 c 0
 229.993 466.062 236.144 363.479 223.094 306.5 c 0
 214.348 268.312 188.483 244.684 172.875 229.5 c 1
 189.401 206.065 208.092 165.745 201.906 130.844 c 0
 194.305 87.9551 156.935 37.0176 150.344 35.2812 c 0
 108.345 24.2168 35.9492 68.9609 -15.4062 92.9062 c 1
 -41.2383 47.2783 -116.569 0.986328 -138.625 0 c 1
 -138.438 85.125 l 1
 -118.128 85.25 -64.7861 96.5869 -27.4062 121.031 c 1
 -19.1074 166.463 -3.80371 206.826 34.4385 237.75 c 0
 77.3662 272.464 155.093 273.158 192.938 307.812 c 0
 195.496 310.158 196.901 313.692 196.594 316.875 c 0
 193.719 346.578 175.826 382.215 160.594 384.156 c 1
 135.262 318.308 91.0186 325.287 64.3115 328.531 c 0
 -5.3418 336.991 -4.98242 425.223 12.0938 474.031 c 0
 29.0068 522.372 62.5195 579.182 114.281 593.5 c 1
83.4688 479.812 m 0
 72.3906 479.839 61.2393 473.776 51.5312 460.125 c 0
 47.9404 455.075 49.1436 449.106 53.7812 444.781 c 0
 72.9033 426.95 98.415 427.674 120.031 440.938 c 0
 124.906 443.929 125.842 447.706 122.625 452.75 c 0
 111.83 469.679 97.7119 479.779 83.4688 479.812 c 0
63.4062 201.312 m 0
 44.2988 201.511 30.2656 192.83 21.25 179.906 c 1
 29.2158 160.155 144.188 119.777 159.469 124.312 c 1
 158.127 137.342 146.464 168.995 103.312 190.375 c 0
 88.1699 197.878 74.8711 201.193 63.4062 201.312 c 0
EndSplineSet
Fore
SplineSet
34.4385 237.75 m 0
 77.3662 272.464 155.093 273.158 192.938 307.812 c 0
 195.496 310.158 196.901 313.692 196.594 316.875 c 0
 193.719 346.578 175.826 382.215 160.594 384.156 c 1
 135.262 318.308 91.0186 325.287 64.3115 328.531 c 0
 -5.3418 336.991 -4.98242 425.223 12.0938 474.031 c 0
 29.0068 522.372 62.5195 579.182 114.281 593.5 c 1
 143.192 592.263 170.842 553.327 189.344 526.031 c 0
 229.993 466.062 236.144 363.479 223.094 306.5 c 0
 214.348 268.312 188.483 244.684 172.875 229.5 c 1
 34.4385 237.75 l 0
83.4688 479.812 m 0
 72.3906 479.839 61.2393 473.776 51.5312 460.125 c 0
 47.9404 455.075 49.1436 449.106 53.7812 444.781 c 0
 72.9033 426.95 98.415 427.674 120.031 440.938 c 0
 124.906 443.929 125.842 447.706 122.625 452.75 c 0
 111.83 469.679 97.7119 479.779 83.4688 479.812 c 0
EndSplineSet
EndChar

StartChar: faa.medi_FaaYaa.fina
Encoding: 65699 -1 164
Width: 638
VWidth: 0
Flags: MW
AnchorPoint: "dot.below" 552 -416 basechar 0
AnchorPoint: "dot.above" 512 376 basechar 0
AnchorPoint: "tashkil.above" 512 376 basechar 0
AnchorPoint: "tashkil.below" 552 -416 basechar 0
AnchorPoint: "curs" 466 -126 exit 0
LayerCount: 2
Back
SplineSet
599.106 90.3223 m 1
 617.081 87.4766 627.7 87.2822 636.575 87.7617 c 1
 638.763 -1.5 l 1
 627.443 -2.12109 612.734 -2.87598 597.419 -2.03125 c 1
 588.983 -45.1172 565.204 -84.9756 545.075 -107.188 c 0
 542.828 -109.667 543.508 -111.085 545.95 -112.469 c 0
 576.355 -129.696 621.266 -153.58 629.419 -180.469 c 0
 633.554 -194.104 614.106 -254.248 602.419 -265.812 c 0
 548.556 -319.111 386.265 -388.313 255.513 -398.438 c 0
 198.424 -402.839 139.959 -398.554 96.9189 -376.156 c 0
 -5.83984 -322.683 -10.9463 -235.783 16.1064 -150.781 c 0
 36.3818 -87.0742 74.7158 -20.8848 103.513 17.2188 c 0
 112.991 29.7598 126.412 25.1426 115.521 10.4277 c 0
 72.2148 -48.0771 44.8145 -116.452 51.208 -166.639 c 0
 60.8945 -242.679 126.041 -292.696 250.013 -298.844 c 0
 366.476 -304.618 500.751 -266.734 582.731 -220.062 c 0
 584.901 -218.827 584.871 -216.625 582.919 -215.188 c 0
 523.751 -171.622 438.443 -155.104 398.263 -147.5 c 0
 394.546 -146.797 395.003 -145.027 396.013 -140.594 c 0
 399.957 -123.271 407.724 -105.523 416.294 -87.6875 c 0
 418.696 -82.6875 419.141 -83.1396 424.013 -83.4062 c 0
 486.541 -86.833 529.797 -69.75 557.263 -53.25 c 0
 565.322 -48.4082 569.356 -28.5889 567.731 0 c 1
 494.734 5.97168 414.008 22.7529 404.219 51.7646 c 0
 382.804 115.234 476.977 255.653 517.094 254.315 c 0
 544.355 253.405 590.221 178.924 599.106 90.3223 c 1
457.553 137.814 m 0
 454.77 119.643 522.116 104.131 540.802 102.281 c 1
 529.995 123.082 502.997 166.115 486.281 165.939 c 0
 473.406 165.805 459.79 152.415 457.553 137.814 c 0
EndSplineSet
Fore
SplineSet
396.013 -140.594 m 0
 399.957 -123.271 407.724 -105.523 416.294 -87.6875 c 0
 418.696 -82.6875 419.141 -83.1396 424.013 -83.4062 c 0
 486.541 -86.833 529.797 -69.75 557.263 -53.25 c 0
 565.322 -48.4082 569.356 -28.5889 567.731 0 c 1
 494.734 5.97168 414.008 22.7529 404.219 51.7646 c 0
 382.804 115.234 476.977 255.653 517.094 254.315 c 0
 544.355 253.405 590.221 178.924 599.106 90.3223 c 1
 617.081 87.4766 627.7 87.2822 636.575 87.7617 c 1
 638.763 -1.5 l 1
 627.443 -2.12109 612.734 -2.87598 597.419 -2.03125 c 1
 588.983 -45.1172 565.204 -84.9756 545.075 -107.188 c 0
 396.013 -140.594 l 0
457.553 137.814 m 0
 454.77 119.643 522.116 104.131 540.802 102.281 c 1
 529.995 123.082 502.997 166.115 486.281 165.939 c 0
 473.406 165.805 459.79 152.415 457.553 137.814 c 0
EndSplineSet
EndChar

